<svg xmlns="http://www.w3.org/2000/svg" width="1366" viewBox="0 0 1024.5 576" height="768" version="1.0"><defs><clipPath id="b"><path d="M0 .14h1024v575.72H0zm0 0"/></clipPath><clipPath id="A"><path d="M0 0h551v75H0z"/></clipPath><clipPath id="d"><path d="M0 0h551v85H0z"/></clipPath><clipPath id="h"><path d="M0 10h550.531v63H0zm0 0"/></clipPath><clipPath id="g"><path d="M0 0h551v85H0z"/></clipPath><clipPath id="k"><path d="M0 10h550.531v63H0zm0 0"/></clipPath><clipPath id="j"><path d="M0 0h551v85H0z"/></clipPath><clipPath id="n"><path d="M0 10h550.531v63H0zm0 0"/></clipPath><clipPath id="m"><path d="M0 0h551v85H0z"/></clipPath><clipPath id="e"><path d="M.398 10H550.93v63H.398zm0 0"/></clipPath><clipPath id="q"><path d="M0 10h550.531v62H0zm0 0"/></clipPath><clipPath id="p"><path d="M0 0h551v84H0z"/></clipPath><clipPath id="t"><path d="M0 10h550.531v62H0zm0 0"/></clipPath><clipPath id="s"><path d="M0 0h551v84H0z"/></clipPath><clipPath id="u"><path d="M0 501h551v74.86H0zm0 0"/></clipPath><clipPath id="x"><path d="M0 10h550.531v62H0zm0 0"/></clipPath><clipPath id="w"><path d="M0 0h551v75H0z"/></clipPath><clipPath id="y"><path d="M2 .14h551V75H2zm0 0"/></clipPath><clipPath id="B"><path d="M.398.14H550.93V62H.398zm0 0"/></clipPath><mask id="i"><g filter="url(#a)"><path fill-opacity=".086" d="M-102.45-57.6h1229.4v691.2h-1229.4z"/></g></mask><mask id="f"><g filter="url(#a)"><path fill-opacity=".086" d="M-102.45-57.6h1229.4v691.2h-1229.4z"/></g></mask><mask id="v"><g filter="url(#a)"><path fill-opacity=".086" d="M-102.45-57.6h1229.4v691.2h-1229.4z"/></g></mask><mask id="o"><g filter="url(#a)"><path fill-opacity=".086" d="M-102.45-57.6h1229.4v691.2h-1229.4z"/></g></mask><mask id="l"><g filter="url(#a)"><path fill-opacity=".086" d="M-102.45-57.6h1229.4v691.2h-1229.4z"/></g></mask><mask id="r"><g filter="url(#a)"><path fill-opacity=".086" d="M-102.45-57.6h1229.4v691.2h-1229.4z"/></g></mask><mask id="z"><g filter="url(#a)"><path fill-opacity=".09" d="M-102.45-57.6h1229.4v691.2h-1229.4z"/></g></mask><mask id="c"><g filter="url(#a)"><path fill-opacity=".09" d="M-102.45-57.6h1229.4v691.2h-1229.4z"/></g></mask><filter x="0%" y="0%" width="100%" height="100%" id="a"><feColorMatrix values="0 0 0 0 1 0 0 0 0 1 0 0 0 0 1 0 0 0 1 0" color-interpolation-filters="sRGB"/></filter></defs><g clip-path="url(#b)"><path fill="#fff" d="M0 .14h1024.5v576H0zm0 0"/><path fill="#007dff" d="M0 .14h1024.5v576H0zm0 0"/></g><g mask="url(#c)"><g clip-path="url(#d)" transform="translate(2 65)"><g clip-path="url(#e)"><path fill="none" d="M4.766 65.43c-.274-.364-.41-.711-.41-1.04 0-.327.023-.538.07-.632L20.62 19.207c.512-1.352 1.445-2.027 2.797-2.027h10.828c1.352 0 2.285.675 2.797 2.027l16.195 44.55c.047.095.07.306.07.634 0 .375-.156.714-.46 1.023-.297.297-.633.441-1.008.441h-9c-1.172 0-1.969-.511-2.387-1.53l-3.633-9.856a39.172 39.172 0 0 1-5.097 1.617 49.94 49.94 0 0 1-4.996.937 64.732 64.732 0 0 1-4.5.43c-1.399.067-2.61.102-3.633.102h-1.637c-.445 0-.777-.032-1.008-.086.832.148 1.512.617 2.047 1.414.547.785.61 1.71.188 2.781l-.989 2.66c-.41 1.02-1.199 1.531-2.37 1.531h-9c-.333 0-.684-.14-1.06-.425zm17.75-17.867a39.77 39.77 0 0 0 4.039-.497 34.22 34.22 0 0 0 3.804-.8 17.7 17.7 0 0 0 3.817-1.5l-5.387-15.36zM105.55 17.18c.465 0 .879.187 1.242.562.375.375.562.797.562 1.262v45.113c0 .512-.187.934-.562 1.262-.363.32-.777.476-1.242.476H96.75c-.512 0-.93-.156-1.262-.476-.328-.328-.492-.75-.492-1.262V40.301c0-.285-.137-.43-.41-.43-.102 0-.2.074-.29.223l-6.835 12.5c-.559 1.066-1.371 1.601-2.441 1.601h-3.715c-.922 0-1.735-.535-2.438-1.601l-6.77-12.5c-.046-.149-.14-.223-.288-.223-.274 0-.41.145-.41.43v23.816c0 .559-.165.988-.497 1.297-.328.297-.77.441-1.328.441h-8.73c-.512 0-.942-.144-1.293-.44-.344-.31-.512-.74-.512-1.298v-41.14c0-.977.219-1.825.664-2.54a6.948 6.948 0 0 1 1.567-1.824c.605-.488 1.23-.847 1.878-1.074.657-.238 1.196-.36 1.618-.36h3.906c1.215 0 2.055.512 2.523 1.536l11.66 20.887c.09.09.184.136.274.136.137 0 .25-.047.34-.136l11.75-20.887c.453-1.024 1.289-1.535 2.504-1.535zm11.383 46.785V23.113c0-1.761.601-3.21 1.808-4.347 1.215-1.149 2.637-1.723 4.262-1.723h28.492c.465 0 .887.187 1.262.562.375.364.562.778.562 1.247v6.921c0 .512-.187.91-.562 1.192-.332.32-.75.48-1.262.48h-25.832c1.113 0 2.027.395 2.746 1.192.727.785 1.09 1.644 1.09 2.574v2.934c0 .511.184 1 .547 1.464.375.47.914.7 1.617.7h15.16c1.203 0 1.805.609 1.805 1.824v6.293c0 1.203-.602 1.808-1.805 1.808h-21.16c1.07 0 1.973.375 2.711 1.125.75.739 1.125 1.575 1.125 2.504v3.293c0 .512.2 1 .598 1.465.398.465.922.7 1.566.7h20.395c.511 0 .937.175 1.277.527.352.343.527.77.527 1.28v6.837c0 .512-.187.93-.562 1.262a1.802 1.802 0 0 1-1.242.492h-33.387c-.508 0-.93-.164-1.262-.492-.316-.332-.476-.75-.476-1.262zm85.89 1.328a1.409 1.409 0 0 1-1.039.426H192c-1.355 0-2.309-.63-2.867-1.89l-7.04-13.966c-.421-.75-1.05-1.125-1.894-1.125h-9.222c1.214 0 2.16.422 2.828 1.262.683.84 1.023 1.66 1.023 2.457v11.508c0 .566-.164 1.004-.492 1.312-.332.297-.773.442-1.332.442h-9.496c-.512 0-.93-.164-1.262-.492-.316-.332-.476-.75-.476-1.262V23.113c0-1.715.601-3.156 1.808-4.312 1.215-1.172 2.637-1.758 4.262-1.758h14.797c2.617 0 5.094.289 7.433.871 2.356.578 4.418 1.5 6.192 2.762 1.773 1.25 3.191 2.89 4.261 4.926 1.067 2.023 1.602 4.48 1.602 7.367 0 2.886-.598 5.426-1.789 7.62-1.184 2.18-3.05 3.974-5.61 5.372-.374.273-.562.574-.562.902 0 .328.047.586.137.766l8.73 15.86c.145.269.219.527.219.765 0 .32-.14.664-.426 1.039zm-14.168-32.395c0-1.91-.55-3.363-1.652-4.363-1.094-1-2.57-1.5-4.434-1.5h-12.004c1.114 0 2.02.41 2.711 1.227.707.808 1.059 1.652 1.059 2.539v5.578a2.119 2.119 0 0 0 2.164 2.164h6.07c1.864 0 3.34-.461 4.434-1.383 1.102-.93 1.652-2.351 1.652-4.262zm21.582 31.22V23.25c0-1.762.602-3.21 1.805-4.348 1.219-1.148 2.637-1.722 4.262-1.722h5.593c.56 0 .973.164 1.247.496.328.316.492.73.492 1.242v45.2c0 .51-.164.925-.492 1.245-.274.328-.688.492-1.247.492h-9.921c-.512 0-.934-.156-1.262-.476-.32-.328-.477-.75-.477-1.262zm21.508-16.419a30.186 30.186 0 0 1-.086-2.472v-7.368c0-1.03.031-1.875.086-2.523.09-3.215.707-6.004 1.844-8.371 1.133-2.375 2.656-4.328 4.566-5.863 1.91-1.547 4.168-2.7 6.77-3.461 2.613-.774 5.433-1.16 8.457-1.16 2.66 0 5.281.328 7.86.988 2.581.648 4.894 1.672 6.94 3.07a16.702 16.702 0 0 1 4.993 5.27c1.285 2.113 1.95 4.636 1.996 7.57 0 .418-.137.77-.41 1.055-.328.273-.703.41-1.125.41H263.8c-.707 0-1.211-.137-1.52-.41-.293-.286-.53-.75-.715-1.399-.613-2.191-1.562-3.75-2.847-4.672-1.274-.93-3.051-1.398-5.336-1.398-5.262 0-7.985 2.91-8.168 8.73a36.534 36.534 0 0 0-.067 2.371v6.836c0 .977.024 1.797.067 2.457.238 5.864 2.96 8.797 8.168 8.797 2.047 0 3.789-.468 5.234-1.398 1.352-.977 2.336-2.563 2.95-4.758.226-.738.484-1.203.765-1.398.367-.274.856-.41 1.469-.41h9.836c.422 0 .797.136 1.125.41.273.285.41.636.41 1.058-.047 2.977-.723 5.54-2.027 7.688a16.488 16.488 0 0 1-5.067 5.27c-2.066 1.362-4.379 2.362-6.937 3a32.578 32.578 0 0 1-7.758.937c-3.113 0-5.969-.367-8.559-1.106-2.582-.75-4.824-1.894-6.734-3.43-1.91-1.535-3.422-3.488-4.535-5.863-1.114-2.375-1.719-5.195-1.809-8.457zm46.778 17.73c-.274-.363-.41-.71-.41-1.038 0-.328.023-.54.066-.633l16.199-44.551c.512-1.352 1.441-2.027 2.797-2.027H308c1.356 0 2.285.675 2.797 2.027l16.2 44.55c.042.095.066.306.066.634 0 .375-.153.714-.461 1.023-.293.297-.63.441-1.004.441h-9.004c-1.172 0-1.965-.511-2.387-1.53l-3.633-9.856a38.797 38.797 0 0 1-5.097 1.617c-1.715.41-3.38.723-4.993.937a65.06 65.06 0 0 1-4.503.43c-1.399.067-2.61.102-3.63.102h-1.671c-.469 0-.813-.032-1.04-.086.876.101 1.579.562 2.114 1.379.543.808.605 1.746.187 2.816l-.988 2.66c-.41 1.02-1.199 1.531-2.37 1.531h-9.005c-.328 0-.68-.14-1.054-.425zm17.746-17.866a39.841 39.841 0 0 0 4.043-.497 34.16 34.16 0 0 0 3.8-.8 17.652 17.652 0 0 0 3.82-1.5l-5.386-15.36zm36.386 16.332V23.043c0-1.625.582-3.04 1.739-4.242 1.16-1.219 2.605-1.824 4.332-1.824h2.234c.555 0 1.184.105 1.875.324.703.203 1.434.816 2.184 1.84 2.738 4.285 5.203 8.148 7.398 11.593 1.352 2.09 2.41 3.758 3.172 4.996a515.86 515.86 0 0 0 2.164 3.41c.684 1.048 1.25 1.942 1.707 2.692.465.75.75 1.195.852 1.332.09.09.203.137.34.137.238 0 .359-.113.359-.344V23.043c0-.93.168-1.766.512-2.504a5.965 5.965 0 0 1 1.363-1.894 6.315 6.315 0 0 1 1.945-1.211c.75-.305 1.5-.457 2.25-.457h4.535c.512 0 .907.156 1.192.476.32.328.476.774.476 1.328v45.047c0 .512-.156.934-.476 1.262-.285.375-.68.562-1.192.562h-7.894c-1.114 0-1.907-.445-2.371-1.328a8083.5 8083.5 0 0 0-7.536-11.527 246.139 246.139 0 0 1-3.289-4.91 273.017 273.017 0 0 0-2.203-3.426 230.802 230.802 0 0 0-1.703-2.66c-.465-.73-.746-1.16-.836-1.297-.148-.137-.265-.203-.36-.203-.269 0-.405.113-.405.34v23.254c0 .558-.164.992-.496 1.296-.329.309-.774.461-1.329.461h-8.8c-.465 0-.875-.175-1.227-.527-.34-.355-.512-.762-.512-1.23zm115.57-46.512c.282.332.426.683.426 1.058v.41l-7.468 44.5c-.059.602-.364 1.137-.922 1.602-.465.465-1.09.7-1.875.7h-6.988c-.606 0-1.137-.153-1.606-.462-.465-.304-.789-.761-.969-1.363l-6.566-18.293c-.055-.137-.176-.207-.356-.207-.136 0-.25.07-.343.207l-6.496 18.293c-.512 1.215-1.399 1.824-2.66 1.824h-6.989c-.785 0-1.41-.234-1.875-.699a2.55 2.55 0 0 1-.836-1.601l-7.484-44.5c-.047-.364-.035-.649.031-.852.082-.219.188-.422.324-.617.375-.27.723-.406 1.043-.406h9.086c1.352 0 2.098.53 2.235 1.601l3.972 24.723c.09.226.23.34.426.34.18 0 .297-.09.34-.274l4.332-13.758c.375-1.25 1.117-1.875 2.234-1.875h5.25c1.203 0 1.973.625 2.301 1.875l4.332 13.692c.043.18.16.273.34.273.238 0 .36-.094.36-.273l4.038-24.723c.149-.558.36-.976.633-1.262.375-.226.887-.34 1.535-.34h9.153c.422 0 .77.137 1.043.407zm3.7 48.047c-.274-.364-.41-.711-.41-1.04 0-.327.023-.538.066-.632l16.2-44.551c.511-1.352 1.44-2.027 2.796-2.027h10.824c1.356 0 2.286.675 2.797 2.027l16.2 44.55c.043.095.066.306.066.634 0 .375-.152.714-.461 1.023-.293.297-.629.441-1.004.441h-9.004c-1.172 0-1.965-.511-2.387-1.53l-3.632-9.856a38.797 38.797 0 0 1-5.098 1.617 49.53 49.53 0 0 1-4.996.937 64.732 64.732 0 0 1-4.5.43c-1.399.067-2.61.102-3.629.102h-1.672c-.469 0-.812-.032-1.039-.086.875.101 1.578.562 2.113 1.379.543.808.606 1.746.188 2.816l-.988 2.66c-.41 1.02-1.2 1.531-2.372 1.531h-9.003c-.329 0-.68-.14-1.055-.425zm17.746-17.867a39.841 39.841 0 0 0 4.043-.497 34.16 34.16 0 0 0 3.8-.8 17.652 17.652 0 0 0 3.821-1.5l-5.387-15.36zm48.887 16.488V51.6c0-.738-.098-1.488-.293-2.25-.18-.773-.414-1.413-.7-1.925l-15.07-28.082a1.363 1.363 0 0 1-.222-.766c0-.375.156-.71.46-1.008.31-.304.645-.457 1.008-.457h9.157c.507 0 1.011.13 1.5.39.488.25.824.63 1.003 1.142 1.684 3.023 3.2 5.746 4.555 8.168a141.808 141.808 0 0 0 1.906 3.53c.489.864.934 1.669 1.332 2.419.399.742.743 1.367 1.04 1.879.308.507.484.812.527.902.105.148.222.223.36.223.136 0 .226-.075.273-.223.047-.09.222-.402.527-.938a382.09 382.09 0 0 0 2.61-4.707c.566-1.035 1.132-2.062 1.687-3.085 1.351-2.422 2.863-5.145 4.535-8.168.602-1.02 1.445-1.532 2.523-1.532h9.141c.375 0 .707.153 1.004.457.309.297.46.633.46 1.008 0 .285-.07.54-.202.766a4504.857 4504.857 0 0 1-7.332 13.554 647.529 647.529 0 0 1-3.121 5.832 2283.07 2283.07 0 0 0-2.133 3.989 357.592 357.592 0 0 1-1.668 3.14 76.386 76.386 0 0 1-.836 1.5 7.383 7.383 0 0 0-.734 1.993 9.396 9.396 0 0 0-.239 2.046v12.653c0 .554-.164.988-.496 1.293-.328.297-.77.445-1.328.445h-9.496c-.512 0-.934-.16-1.262-.476-.32-.333-.476-.75-.476-1.262zm0 0" stroke="#fff" stroke-width="1.0043009999999999"/></g></g></g><g mask="url(#f)"><g clip-path="url(#g)" transform="translate(0 136)"><g clip-path="url(#h)"><path fill="none" d="M4.219 65.297c-.274-.363-.41-.711-.41-1.04 0-.327.023-.538.07-.628l16.195-44.555c.512-1.351 1.446-2.027 2.797-2.027H33.7c1.352 0 2.285.676 2.797 2.027L52.691 63.63c.047.09.07.3.07.629 0 .375-.156.715-.46 1.023-.297.297-.633.442-1.008.442h-9c-1.172 0-1.969-.512-2.387-1.532l-3.633-9.855c-1.671.66-3.37 1.2-5.097 1.617a49.94 49.94 0 0 1-4.996.938 64.732 64.732 0 0 1-4.5.43c-1.399.066-2.61.1-3.633.1H16.41c-.445 0-.777-.03-1.008-.085.832.148 1.512.621 2.047 1.414.547.785.61 1.711.188 2.781l-.989 2.66c-.41 1.02-1.199 1.532-2.37 1.532h-9c-.333 0-.684-.141-1.06-.426zm17.75-17.867c1.297-.09 2.64-.254 4.039-.496a33.355 33.355 0 0 0 3.805-.801 17.7 17.7 0 0 0 3.816-1.5l-5.387-15.36zm83.035-30.383c.465 0 .879.187 1.242.562.375.375.563.797.563 1.262v45.113c0 .512-.188.934-.563 1.262-.363.32-.777.477-1.242.477h-8.8c-.513 0-.93-.157-1.263-.477-.328-.328-.492-.75-.492-1.262V40.168c0-.285-.136-.426-.41-.426-.101 0-.2.07-.289.219l-6.836 12.5c-.559 1.066-1.371 1.602-2.441 1.602h-3.715c-.922 0-1.735-.536-2.438-1.602l-6.77-12.5c-.046-.148-.14-.219-.288-.219-.274 0-.41.14-.41.426v23.816c0 .559-.164.989-.497 1.297-.328.297-.769.442-1.328.442h-8.73c-.512 0-.942-.145-1.293-.442-.344-.308-.512-.738-.512-1.297v-41.14c0-.977.219-1.824.664-2.54a7.012 7.012 0 0 1 1.567-1.824c.605-.488 1.23-.847 1.879-1.074.656-.238 1.199-.36 1.617-.36h3.906c1.215 0 2.055.513 2.523 1.536l11.66 20.887c.09.09.184.136.274.136.137 0 .25-.046.34-.136l11.75-20.887c.453-1.023 1.289-1.535 2.504-1.535zm11.383 46.785V22.98c0-1.761.605-3.21 1.808-4.347 1.215-1.149 2.637-1.723 4.262-1.723h28.492c.465 0 .887.188 1.262.563.375.363.562.78.562 1.246v6.922c0 .511-.187.91-.562 1.191-.332.32-.75.48-1.262.48h-25.832c1.113 0 2.028.395 2.746 1.192.727.785 1.09 1.644 1.09 2.574v2.934c0 .511.184 1 .547 1.465.375.468.914.699 1.617.699h15.16c1.204 0 1.805.61 1.805 1.824v6.293c0 1.203-.601 1.809-1.805 1.809h-21.16c1.07 0 1.973.375 2.711 1.125.75.738 1.125 1.574 1.125 2.503v3.293c0 .512.2 1 .598 1.465.398.465.922.7 1.566.7h20.395c.511 0 .937.175 1.277.527.352.344.527.77.527 1.281v6.836c0 .512-.187.93-.562 1.262a1.802 1.802 0 0 1-1.242.492h-33.383c-.512 0-.934-.164-1.262-.492-.32-.332-.48-.75-.48-1.262zm85.89 1.328a1.409 1.409 0 0 1-1.039.426h-9.785c-1.355 0-2.308-.629-2.867-1.89l-7.04-13.966c-.421-.75-1.05-1.125-1.894-1.125h-9.222c1.215 0 2.16.422 2.828 1.262.683.844 1.023 1.66 1.023 2.457v11.508c0 .566-.164 1.004-.492 1.313-.332.296-.773.441-1.332.441h-9.496c-.512 0-.93-.164-1.262-.492-.316-.332-.476-.75-.476-1.262V22.98c0-1.714.601-3.152 1.808-4.312 1.215-1.172 2.637-1.758 4.262-1.758h14.797c2.617 0 5.094.29 7.433.871 2.356.578 4.418 1.5 6.192 2.762 1.773 1.25 3.191 2.89 4.262 4.926 1.07 2.023 1.601 4.48 1.601 7.367 0 2.887-.594 5.426-1.789 7.621-1.183 2.184-3.05 3.973-5.61 5.371-.374.274-.562.574-.562.902 0 .329.047.586.137.766l8.73 15.86c.145.273.22.527.22.765 0 .32-.141.664-.427 1.04zM188.11 32.766c0-1.907-.55-3.364-1.652-4.364-1.094-1-2.57-1.5-4.434-1.5H170.02c1.113 0 2.02.41 2.71 1.227.708.809 1.06 1.656 1.06 2.539v5.578a2.119 2.119 0 0 0 2.163 2.164h6.07c1.864 0 3.34-.46 4.434-1.379 1.102-.933 1.652-2.355 1.652-4.265zm21.582 31.218V23.117c0-1.762.602-3.21 1.805-4.347 1.219-1.149 2.637-1.723 4.266-1.723h5.59c.558 0 .972.164 1.246.496.328.316.492.73.492 1.242v45.2c0 .511-.164.925-.492 1.245-.274.329-.688.493-1.246.493h-9.922c-.512 0-.934-.157-1.262-.477-.32-.328-.477-.75-.477-1.262zM231.2 47.566a30.186 30.186 0 0 1-.086-2.472v-7.368c0-1.03.032-1.874.086-2.519.09-3.219.707-6.008 1.844-8.375 1.137-2.375 2.656-4.328 4.566-5.863 1.91-1.547 4.168-2.7 6.77-3.461 2.613-.774 5.434-1.16 8.457-1.16 2.66 0 5.281.328 7.86.988 2.581.648 4.894 1.672 6.94 3.07a16.702 16.702 0 0 1 4.993 5.27c1.285 2.113 1.95 4.637 1.996 7.57 0 .418-.137.77-.41 1.055-.328.273-.703.41-1.125.41h-9.836c-.707 0-1.211-.137-1.52-.41-.293-.285-.53-.75-.714-1.399-.614-2.191-1.563-3.75-2.848-4.672-1.274-.93-3.05-1.398-5.336-1.398-5.262 0-7.984 2.91-8.168 8.73a36.534 36.534 0 0 0-.066 2.372v6.836c0 .976.023 1.796.066 2.457.238 5.863 2.961 8.796 8.168 8.796 2.047 0 3.79-.464 5.234-1.398 1.352-.977 2.336-2.562 2.95-4.758.226-.738.484-1.203.765-1.398.367-.274.856-.406 1.469-.406h9.836c.422 0 .797.132 1.125.406.273.285.41.636.41 1.058-.047 2.977-.723 5.54-2.027 7.688a16.488 16.488 0 0 1-5.067 5.27c-2.066 1.363-4.379 2.363-6.937 3a32.578 32.578 0 0 1-7.758.937c-3.113 0-5.969-.367-8.559-1.106-2.582-.75-4.824-1.894-6.734-3.43-1.91-1.534-3.422-3.488-4.535-5.863-1.113-2.375-1.719-5.195-1.809-8.457zm46.778 17.73c-.274-.362-.41-.71-.41-1.038 0-.328.023-.54.066-.63l16.2-44.554c.51-1.351 1.444-2.027 2.796-2.027h10.824c1.356 0 2.285.676 2.797 2.027l16.2 44.555c.042.09.066.3.066.629 0 .375-.153.715-.461 1.023-.293.297-.63.442-1.004.442h-9.004c-1.168 0-1.965-.512-2.387-1.532l-3.633-9.855a38.22 38.22 0 0 1-5.097 1.617c-1.715.41-3.38.723-4.992.938a65.06 65.06 0 0 1-4.504.43c-1.399.066-2.61.1-3.63.1h-1.671c-.465 0-.813-.03-1.04-.085.876.102 1.579.562 2.114 1.379.543.808.606 1.746.188 2.816l-.989 2.66c-.41 1.02-1.199 1.532-2.37 1.532h-9.005c-.328 0-.68-.141-1.054-.426zm17.746-17.866a39.84 39.84 0 0 0 4.043-.496 33.296 33.296 0 0 0 3.8-.801 17.652 17.652 0 0 0 3.82-1.5L302 29.273zm36.386 16.332V22.914c0-1.629.582-3.043 1.743-4.246 1.156-1.219 2.601-1.824 4.328-1.824h2.234c.559 0 1.184.105 1.875.324.703.203 1.434.816 2.184 1.84 2.738 4.285 5.203 8.148 7.398 11.594 1.352 2.09 2.41 3.757 3.172 4.996a751.222 751.222 0 0 0 2.164 3.41c.684 1.047 1.25 1.941 1.707 2.691.465.754.75 1.196.852 1.332.09.09.203.137.34.137.238 0 .359-.113.359-.34V22.914c0-.934.172-1.77.512-2.508a5.965 5.965 0 0 1 1.363-1.894 6.232 6.232 0 0 1 1.945-1.207 5.87 5.87 0 0 1 2.25-.461h4.535c.512 0 .91.156 1.192.476.32.328.476.774.476 1.328v45.047c0 .512-.156.934-.476 1.262-.281.375-.68.563-1.192.563h-7.894c-1.113 0-1.906-.442-2.371-1.329a8080.688 8080.688 0 0 0-7.535-11.527 246.14 246.14 0 0 1-3.29-4.91 329.095 329.095 0 0 0-2.199-3.426 289.261 289.261 0 0 0-1.707-2.66c-.465-.727-.746-1.16-.836-1.297-.148-.137-.265-.203-.355-.203-.274 0-.41.113-.41.34v23.254c0 .558-.164.992-.496 1.297-.328.308-.774.46-1.328.46h-8.797c-.47 0-.88-.175-1.23-.527-.34-.355-.513-.762-.513-1.23zM447.68 17.25c.282.332.427.684.427 1.059v.41l-7.47 44.5c-.054.601-.362 1.136-.921 1.601-.465.465-1.09.7-1.875.7h-6.988a2.852 2.852 0 0 1-1.606-.461c-.465-.305-.789-.762-.969-1.364l-6.566-18.293c-.055-.136-.176-.207-.355-.207-.137 0-.25.07-.344.207l-6.496 18.293c-.512 1.215-1.399 1.825-2.66 1.825h-6.989c-.785 0-1.41-.235-1.875-.7a2.55 2.55 0 0 1-.836-1.601l-7.484-44.5c-.047-.364-.035-.649.031-.852.082-.219.192-.422.324-.617.375-.27.723-.406 1.043-.406h9.086c1.352 0 2.098.531 2.235 1.601l3.972 24.723c.09.227.23.34.426.34.184 0 .297-.09.34-.274l4.332-13.757c.375-1.25 1.121-1.875 2.234-1.875h5.25c1.204 0 1.973.625 2.301 1.875l4.332 13.691c.047.18.16.273.34.273.238 0 .36-.093.36-.273l4.039-24.723c.148-.558.359-.976.632-1.261.375-.227.887-.34 1.535-.34h9.153c.422 0 .77.136 1.043.406zm3.7 48.047c-.273-.363-.41-.711-.41-1.04 0-.327.023-.538.066-.628l16.2-44.555c.511-1.351 1.44-2.027 2.796-2.027h10.825c1.355 0 2.285.676 2.796 2.027l16.2 44.555c.043.09.066.3.066.629 0 .375-.152.715-.46 1.023-.294.297-.63.442-1.005.442h-9.004c-1.172 0-1.965-.512-2.386-1.532l-3.633-9.855a38.22 38.22 0 0 1-5.098 1.617c-1.715.41-3.379.723-4.992.938a65.06 65.06 0 0 1-4.504.43c-1.398.066-2.61.1-3.629.1h-1.672c-.468 0-.812-.03-1.039-.085.875.102 1.578.562 2.113 1.379.543.808.606 1.746.188 2.816l-.988 2.66c-.41 1.02-1.2 1.532-2.371 1.532h-9.004c-.328 0-.68-.141-1.055-.426zm17.746-17.867a39.84 39.84 0 0 0 4.043-.496 33.296 33.296 0 0 0 3.8-.801 17.652 17.652 0 0 0 3.821-1.5l-5.387-15.36zm48.887 16.488v-12.45c0-.738-.098-1.488-.293-2.25-.18-.773-.414-1.413-.695-1.925l-15.075-28.082a1.363 1.363 0 0 1-.222-.766c0-.375.156-.71.46-1.007.31-.305.645-.458 1.008-.458h9.157c.511 0 1.011.13 1.5.391.488.25.824.629 1.004 1.14 1.683 3.024 3.199 5.747 4.554 8.169a141.808 141.808 0 0 0 1.907 3.53c.492.864.933 1.669 1.332 2.419.398.742.742 1.367 1.039 1.879.308.508.484.812.527.902.105.149.223.223.36.223.136 0 .226-.074.273-.223.047-.09.222-.402.527-.937.309-.535.676-1.196 1.11-1.977.44-.797.94-1.707 1.5-2.73.57-1.036 1.132-2.063 1.687-3.086 1.352-2.422 2.863-5.145 4.535-8.168.602-1.02 1.445-1.532 2.524-1.532h9.14c.375 0 .707.153 1.004.458.309.296.461.632.461 1.007 0 .285-.066.54-.203.766a4072.92 4072.92 0 0 1-7.332 13.555 647.525 647.525 0 0 1-3.121 5.832c-.762 1.422-1.473 2.75-2.133 3.988a357.66 357.66 0 0 1-1.668 3.14 76.389 76.389 0 0 1-.836 1.5 7.384 7.384 0 0 0-.734 1.993 9.396 9.396 0 0 0-.239 2.047v12.652c0 .555-.164.988-.496 1.293-.328.297-.77.445-1.328.445h-9.496c-.512 0-.933-.16-1.262-.476-.32-.332-.476-.75-.476-1.262zm0 0" stroke="#fff" stroke-width="1.0043009999999999"/></g></g></g><g mask="url(#i)"><g clip-path="url(#j)" transform="translate(0 210)"><g clip-path="url(#k)"><path fill="none" d="M4.219 65.36c-.274-.364-.41-.712-.41-1.044 0-.328.023-.539.07-.628l16.195-44.551c.512-1.352 1.446-2.028 2.797-2.028H33.7c1.352 0 2.285.676 2.797 2.028l16.195 44.55c.047.09.07.301.07.63 0 .374-.156.718-.46 1.023-.297.297-.633.445-1.008.445h-9c-1.172 0-1.969-.512-2.387-1.535l-3.633-9.855c-1.671.66-3.37 1.199-5.097 1.62a49.94 49.94 0 0 1-4.996.938 64.608 64.608 0 0 1-4.5.426 78.29 78.29 0 0 1-3.633.101H16.41c-.445 0-.777-.027-1.008-.085.832.148 1.512.62 2.047 1.418.547.78.61 1.71.188 2.777l-.989 2.66c-.41 1.023-1.199 1.535-2.37 1.535h-9c-.333 0-.684-.144-1.06-.426zm17.75-17.872c1.297-.09 2.64-.254 4.039-.492a35.13 35.13 0 0 0 3.805-.8 17.7 17.7 0 0 0 3.816-1.5l-5.387-15.364zm83.035-30.379c.465 0 .879.188 1.242.563.375.375.563.793.563 1.262v45.113c0 .512-.188.93-.563 1.262a1.84 1.84 0 0 1-1.242.476h-8.8c-.513 0-.93-.16-1.263-.476-.328-.332-.492-.75-.492-1.262v-23.82c0-.286-.136-.426-.41-.426-.101 0-.2.074-.289.222L86.914 52.52c-.559 1.07-1.371 1.601-2.441 1.601h-3.715c-.922 0-1.735-.531-2.438-1.601l-6.77-12.497c-.046-.148-.14-.222-.288-.222-.274 0-.41.14-.41.426v23.82c0 .555-.164.988-.497 1.293-.328.297-.769.445-1.328.445h-8.73c-.512 0-.942-.148-1.293-.445-.344-.305-.512-.738-.512-1.293v-41.14c0-.981.219-1.825.664-2.544a7.012 7.012 0 0 1 1.567-1.824c.605-.488 1.23-.848 1.879-1.074.656-.238 1.199-.356 1.617-.356h3.906c1.215 0 2.055.508 2.523 1.532l11.66 20.886c.09.09.184.137.274.137.137 0 .25-.047.34-.137l11.75-20.886c.453-1.024 1.289-1.532 2.504-1.532zm11.383 46.782V23.039c0-1.762.605-3.21 1.808-4.348 1.215-1.144 2.637-1.718 4.262-1.718h28.492c.465 0 .887.187 1.262.562.375.363.562.778.562 1.242V25.7c0 .512-.187.91-.562 1.196-.332.316-.75.476-1.262.476h-25.832c1.113 0 2.028.399 2.746 1.195.727.782 1.09 1.641 1.09 2.575v2.93c0 .511.184 1 .547 1.468.375.465.914.7 1.617.7h15.16c1.204 0 1.805.605 1.805 1.824v6.289c0 1.207-.601 1.808-1.805 1.808h-21.16c1.07 0 1.973.375 2.711 1.125.75.738 1.125 1.574 1.125 2.508v3.289c0 .512.2 1 .598 1.465.398.469.922.7 1.566.7h20.395c.511 0 .937.179 1.277.53.352.34.527.766.527 1.278v6.836c0 .511-.187.933-.562 1.261a1.788 1.788 0 0 1-1.242.496h-33.383c-.512 0-.934-.164-1.262-.496-.32-.328-.48-.75-.48-1.261zm85.89 1.332a1.409 1.409 0 0 1-1.039.425h-9.785c-1.355 0-2.308-.632-2.867-1.894l-7.04-13.961c-.421-.75-1.05-1.125-1.894-1.125h-9.222c1.215 0 2.16.418 2.828 1.262.683.84 1.023 1.656 1.023 2.453V63.89c0 .57-.164 1.007-.492 1.312-.332.297-.773.445-1.332.445h-9.496c-.512 0-.93-.164-1.262-.496-.316-.328-.476-.75-.476-1.261V23.039c0-1.715.601-3.152 1.808-4.312 1.215-1.172 2.637-1.754 4.262-1.754h14.797c2.617 0 5.094.289 7.433.867 2.356.582 4.418 1.5 6.192 2.762 1.773 1.25 3.191 2.894 4.262 4.93 1.07 2.023 1.601 4.476 1.601 7.363 0 2.886-.594 5.43-1.789 7.62-1.183 2.184-3.05 3.973-5.61 5.372-.374.273-.562.574-.562.906 0 .328.047.582.137.766l8.73 15.855c.145.274.22.527.22.77 0 .316-.141.664-.427 1.039zM188.11 32.828c0-1.91-.55-3.367-1.652-4.367-1.094-1-2.57-1.5-4.434-1.5H170.02c1.113 0 2.02.41 2.71 1.23.708.805 1.06 1.653 1.06 2.54v5.574c0 .613.21 1.133.628 1.55.422.41.934.618 1.535.618h6.07c1.864 0 3.34-.461 4.434-1.383 1.102-.934 1.652-2.352 1.652-4.262zm21.582 31.219V23.176c0-1.762.602-3.211 1.805-4.348 1.219-1.148 2.637-1.719 4.266-1.719h5.59c.558 0 .972.164 1.246.493.328.32.492.734.492 1.246v45.199c0 .512-.164.926-.492 1.242-.274.332-.688.496-1.246.496h-9.922c-.512 0-.934-.16-1.262-.476-.32-.332-.477-.75-.477-1.262zM231.2 47.625a30.013 30.013 0 0 1-.086-2.469V37.79c0-1.035.032-1.875.086-2.523.09-3.22.707-6.008 1.844-8.371 1.137-2.375 2.656-4.332 4.566-5.868 1.91-1.543 4.168-2.699 6.77-3.46 2.613-.774 5.434-1.157 8.457-1.157 2.66 0 5.281.328 7.86.988 2.581.649 4.894 1.668 6.94 3.067a16.743 16.743 0 0 1 4.993 5.27c1.285 2.113 1.95 4.636 1.996 7.57 0 .422-.137.773-.41 1.058-.328.27-.703.407-1.125.407h-9.836c-.707 0-1.211-.137-1.52-.407-.293-.285-.53-.75-.714-1.398-.614-2.195-1.563-3.754-2.848-4.672-1.274-.934-3.05-1.398-5.336-1.398-5.262 0-7.984 2.91-8.168 8.73a36.404 36.404 0 0 0-.066 2.367v6.84c0 .977.023 1.793.066 2.453.238 5.867 2.961 8.797 8.168 8.797 2.047 0 3.79-.465 5.234-1.398 1.352-.977 2.336-2.563 2.95-4.754.226-.742.484-1.207.765-1.399.367-.273.856-.41 1.469-.41h9.836c.422 0 .797.137 1.125.41.273.282.41.637.41 1.055-.047 2.98-.723 5.543-2.027 7.691a16.528 16.528 0 0 1-5.067 5.27c-2.066 1.363-4.379 2.363-6.937 3a32.578 32.578 0 0 1-7.758.937c-3.113 0-5.969-.37-8.559-1.109-2.582-.75-4.824-1.89-6.734-3.426-1.91-1.535-3.422-3.492-4.535-5.867s-1.719-5.191-1.809-8.457zm46.778 17.734c-.274-.363-.41-.71-.41-1.043 0-.328.023-.539.066-.628l16.2-44.551c.51-1.352 1.444-2.028 2.796-2.028h10.824c1.356 0 2.285.676 2.797 2.028l16.2 44.55c.042.09.066.301.066.63 0 .374-.153.718-.461 1.023-.293.297-.63.445-1.004.445h-9.004c-1.168 0-1.965-.512-2.387-1.535l-3.633-9.855c-1.668.66-3.367 1.199-5.097 1.62-1.715.41-3.38.723-4.992.938a64.932 64.932 0 0 1-4.504.426 78.28 78.28 0 0 1-3.63.101h-1.671c-.465 0-.813-.027-1.04-.085.876.105 1.579.562 2.114 1.382.543.809.606 1.746.188 2.813l-.989 2.66c-.41 1.023-1.199 1.535-2.37 1.535h-9.005c-.328 0-.68-.144-1.054-.426zm17.746-17.87a40.94 40.94 0 0 0 4.043-.493 35.068 35.068 0 0 0 3.8-.8 17.652 17.652 0 0 0 3.82-1.5L302 29.331zm36.386 16.335V22.973c0-1.625.582-3.04 1.743-4.246 1.156-1.215 2.601-1.825 4.328-1.825h2.234c.559 0 1.184.11 1.875.325.703.203 1.434.82 2.184 1.84 2.738 4.285 5.203 8.152 7.398 11.593a290.791 290.791 0 0 1 3.172 4.996 475.6 475.6 0 0 0 2.164 3.41c.684 1.047 1.25 1.946 1.707 2.696.465.75.75 1.191.852 1.328.09.094.203.137.34.137.238 0 .359-.114.359-.34V22.973c0-.934.172-1.766.512-2.508a5.948 5.948 0 0 1 1.363-1.89 6.315 6.315 0 0 1 1.945-1.212 5.87 5.87 0 0 1 2.25-.46h4.535c.512 0 .91.16 1.192.476.32.332.476.773.476 1.332v45.043c0 .512-.156.934-.476 1.262-.281.375-.68.562-1.192.562h-7.894c-1.113 0-1.906-.441-2.371-1.328a8080.688 8080.688 0 0 0-7.535-11.527 225.146 225.146 0 0 1-3.29-4.91 376.517 376.517 0 0 0-2.199-3.426 354.965 354.965 0 0 0-1.707-2.66 160.62 160.62 0 0 0-.836-1.297c-.148-.133-.265-.203-.355-.203-.274 0-.41.113-.41.34v23.257c0 .555-.164.989-.496 1.297-.328.305-.774.457-1.328.457h-8.797c-.47 0-.88-.176-1.23-.527a1.715 1.715 0 0 1-.513-1.227zm115.57-46.511c.282.328.427.68.427 1.058v.406l-7.47 44.5c-.054.602-.362 1.137-.921 1.602-.465.469-1.09.7-1.875.7h-6.988a2.88 2.88 0 0 1-1.606-.458c-.465-.308-.789-.762-.969-1.367l-6.566-18.293c-.055-.137-.176-.203-.355-.203-.137 0-.25.066-.344.203l-6.496 18.293c-.512 1.219-1.399 1.824-2.66 1.824h-6.989c-.785 0-1.41-.23-1.875-.7-.468-.417-.746-.952-.836-1.6l-7.484-44.5c-.047-.364-.035-.65.031-.852.082-.215.192-.422.324-.613.375-.274.723-.41 1.043-.41h9.086c1.352 0 2.098.535 2.235 1.6l3.972 24.724c.09.226.23.343.426.343.184 0 .297-.093.34-.273l4.332-13.762c.375-1.25 1.121-1.875 2.234-1.875h5.25c1.204 0 1.973.625 2.301 1.875l4.332 13.692c.047.183.16.273.34.273.238 0 .36-.09.36-.273l4.039-24.723c.148-.555.359-.977.632-1.262.375-.226.887-.34 1.535-.34h9.153c.422 0 .77.137 1.043.41zm3.7 48.046c-.273-.363-.41-.71-.41-1.043 0-.328.023-.539.066-.628l16.2-44.551c.511-1.352 1.44-2.028 2.796-2.028h10.825c1.355 0 2.285.676 2.796 2.028l16.2 44.55c.043.09.066.301.066.63 0 .374-.152.718-.46 1.023-.294.297-.63.445-1.005.445h-9.004c-1.172 0-1.965-.512-2.386-1.535l-3.633-9.855c-1.668.66-3.367 1.199-5.098 1.62-1.715.41-3.379.723-4.992.938a64.932 64.932 0 0 1-4.504.426 78.28 78.28 0 0 1-3.629.101h-1.672c-.468 0-.812-.027-1.039-.085.875.105 1.578.562 2.113 1.382.543.809.606 1.746.188 2.813l-.988 2.66c-.41 1.023-1.2 1.535-2.371 1.535h-9.004c-.328 0-.68-.144-1.055-.426zm17.746-17.87a40.94 40.94 0 0 0 4.043-.493 35.068 35.068 0 0 0 3.8-.8 17.652 17.652 0 0 0 3.821-1.5l-5.387-15.364zm48.887 16.488V51.53c0-.738-.098-1.488-.293-2.25-.18-.773-.414-1.418-.695-1.926l-15.075-28.082a1.376 1.376 0 0 1-.222-.77c0-.374.156-.706.46-1.003.31-.309.645-.46 1.008-.46h9.157c.511 0 1.011.132 1.5.39.488.25.824.633 1.004 1.144 1.683 3.024 3.199 5.746 4.554 8.168a133.73 133.73 0 0 0 1.907 3.528c.492.863.933 1.671 1.332 2.421a72.45 72.45 0 0 0 1.039 1.875c.308.512.484.813.527.903.105.148.223.222.36.222.136 0 .226-.074.273-.222.047-.09.222-.403.527-.938.309-.531.676-1.191 1.11-1.976.44-.797.94-1.707 1.5-2.727.57-1.035 1.132-2.066 1.687-3.086 1.352-2.422 2.863-5.144 4.535-8.168.602-1.023 1.445-1.535 2.524-1.535h9.14c.375 0 .707.152 1.004.461.309.297.461.629.461 1.004 0 .285-.066.543-.203.77a4504.857 4504.857 0 0 1-7.332 13.554 706.473 706.473 0 0 1-3.121 5.832c-.762 1.418-1.473 2.75-2.133 3.988a350.699 350.699 0 0 1-1.668 3.137 76.389 76.389 0 0 1-.836 1.5 7.41 7.41 0 0 0-.734 1.996 9.369 9.369 0 0 0-.239 2.047v12.649c0 .558-.164.988-.496 1.296-.328.297-.77.442-1.328.442h-9.496c-.512 0-.933-.156-1.262-.477-.32-.328-.476-.75-.476-1.261zm0 0" stroke="#fff" stroke-width="1.0043009999999999"/></g></g></g><g mask="url(#l)"><g clip-path="url(#m)" transform="translate(0 282)"><g clip-path="url(#n)"><path fill="none" d="M4.219 65.559c-.274-.364-.41-.711-.41-1.04 0-.331.023-.542.07-.632l16.195-44.551c.512-1.352 1.446-2.027 2.797-2.027H33.7c1.352 0 2.285.675 2.797 2.027l16.195 44.55c.047.09.07.302.07.634 0 .375-.156.714-.46 1.02-.297.296-.633.444-1.008.444h-9c-1.172 0-1.969-.511-2.387-1.535l-3.633-9.855c-1.671.66-3.37 1.199-5.097 1.62a49.94 49.94 0 0 1-4.996.938 64.609 64.609 0 0 1-4.5.426 73.18 73.18 0 0 1-3.633.102H16.41c-.445 0-.777-.028-1.008-.086.832.148 1.512.62 2.047 1.418.547.785.61 1.71.188 2.777l-.989 2.66c-.41 1.024-1.199 1.535-2.37 1.535h-9c-.333 0-.684-.14-1.06-.425zm17.75-17.868a42.12 42.12 0 0 0 4.039-.496 35.131 35.131 0 0 0 3.805-.8 17.7 17.7 0 0 0 3.816-1.5L28.242 29.53zm83.035-30.382c.465 0 .879.187 1.242.562.375.375.563.793.563 1.262v45.113c0 .512-.188.93-.563 1.262a1.84 1.84 0 0 1-1.242.476h-8.8c-.513 0-.93-.16-1.263-.476-.328-.332-.492-.75-.492-1.262v-23.82c0-.285-.136-.426-.41-.426-.101 0-.2.074-.289.223l-6.836 12.496c-.559 1.07-1.371 1.601-2.441 1.601h-3.715c-.922 0-1.735-.53-2.438-1.601l-6.77-12.496c-.046-.149-.14-.223-.288-.223-.274 0-.41.14-.41.426v23.82c0 .555-.164.988-.497 1.293-.328.297-.769.445-1.328.445h-8.73c-.512 0-.942-.148-1.293-.445-.344-.305-.512-.738-.512-1.293v-41.14c0-.981.219-1.825.664-2.543a7.012 7.012 0 0 1 1.567-1.825c.605-.488 1.23-.847 1.879-1.074.656-.238 1.199-.355 1.617-.355h3.906c1.215 0 2.055.511 2.523 1.53l11.66 20.888c.09.093.184.136.274.136.137 0 .25-.043.34-.136l11.75-20.887c.453-1.02 1.289-1.531 2.504-1.531zm11.383 46.78V23.243c0-1.762.605-3.21 1.808-4.347 1.215-1.149 2.637-1.723 4.262-1.723h28.492c.465 0 .887.187 1.262.562.375.364.562.778.562 1.243v6.921c0 .512-.187.91-.562 1.196-.332.316-.75.476-1.262.476h-25.832c1.113 0 2.028.399 2.746 1.196.727.785 1.09 1.64 1.09 2.574v2.933c0 .508.184 1 .547 1.465.375.465.914.7 1.617.7h15.16c1.204 0 1.805.609 1.805 1.824v6.289c0 1.207-.601 1.808-1.805 1.808h-21.16c1.07 0 1.973.375 2.711 1.125.75.739 1.125 1.575 1.125 2.508v3.29c0 .511.2 1 .598 1.468.398.465.922.7 1.566.7h20.395c.511 0 .937.175 1.277.527.352.34.527.765.527 1.277v6.836c0 .512-.187.933-.562 1.262a1.788 1.788 0 0 1-1.242.496h-33.383c-.512 0-.934-.164-1.262-.496-.32-.329-.48-.75-.48-1.262zm85.89 1.333a1.409 1.409 0 0 1-1.039.426h-9.785c-1.355 0-2.308-.63-2.867-1.891l-7.04-13.965c-.421-.75-1.05-1.125-1.894-1.125h-9.222c1.215 0 2.16.418 2.828 1.262.683.84 1.023 1.66 1.023 2.453V64.09c0 .57-.164 1.008-.492 1.316-.332.293-.773.442-1.332.442h-9.496c-.512 0-.93-.164-1.262-.496-.316-.329-.476-.75-.476-1.262V23.242c0-1.719.601-3.156 1.808-4.316 1.215-1.168 2.637-1.754 4.262-1.754h14.797c2.617 0 5.094.289 7.433.867 2.356.582 4.418 1.5 6.192 2.762 1.773 1.25 3.191 2.894 4.262 4.93 1.07 2.023 1.601 4.476 1.601 7.363 0 2.886-.594 5.43-1.789 7.62-1.183 2.184-3.05 3.974-5.61 5.372-.374.273-.562.574-.562.906 0 .328.047.582.137.766l8.73 15.855c.145.274.22.532.22.77 0 .316-.141.664-.427 1.039zM188.11 33.027c0-1.91-.55-3.363-1.652-4.363-1.094-1.004-2.57-1.504-4.434-1.504H170.02c1.113 0 2.02.41 2.71 1.23.708.805 1.06 1.653 1.06 2.54v5.574c0 .613.21 1.133.628 1.555.422.406.934.613 1.535.613h6.07c1.864 0 3.34-.461 4.434-1.383 1.102-.934 1.652-2.351 1.652-4.262zm21.582 31.22V23.374c0-1.762.602-3.21 1.805-4.348 1.219-1.144 2.637-1.718 4.266-1.718h5.59c.558 0 .972.164 1.246.492.328.32.492.734.492 1.246v45.2c0 .51-.164.925-.492 1.241-.274.332-.688.496-1.246.496h-9.922c-.512 0-.934-.16-1.262-.476-.32-.332-.477-.75-.477-1.262zM231.2 47.827a30.186 30.186 0 0 1-.086-2.473v-7.367c0-1.035.032-1.875.086-2.523.09-3.215.707-6.008 1.844-8.371 1.137-2.375 2.656-4.332 4.566-5.864 1.91-1.546 4.168-2.703 6.77-3.464 2.613-.77 5.434-1.157 8.457-1.157 2.66 0 5.281.329 7.86.989 2.581.648 4.894 1.672 6.94 3.066a16.743 16.743 0 0 1 4.993 5.27c1.285 2.113 1.95 4.636 1.996 7.57 0 .422-.137.773-.41 1.059-.328.273-.703.41-1.125.41h-9.836c-.707 0-1.211-.137-1.52-.41-.293-.286-.53-.75-.714-1.399-.614-2.195-1.563-3.75-2.848-4.672-1.274-.933-3.05-1.398-5.336-1.398-5.262 0-7.984 2.91-8.168 8.73a36.49 36.49 0 0 0-.066 2.367v6.84c0 .977.023 1.793.066 2.453.238 5.868 2.961 8.797 8.168 8.797 2.047 0 3.79-.465 5.234-1.394 1.352-.98 2.336-2.567 2.95-4.758.226-.738.484-1.207.765-1.399.367-.273.856-.41 1.469-.41h9.836c.422 0 .797.137 1.125.41.273.286.41.637.41 1.055-.047 2.98-.723 5.543-2.027 7.692a16.488 16.488 0 0 1-5.067 5.27c-2.066 1.362-4.379 2.362-6.937 3a32.578 32.578 0 0 1-7.758.937c-3.113 0-5.969-.371-8.559-1.11-2.582-.75-4.824-1.89-6.734-3.426-1.91-1.535-3.422-3.488-4.535-5.867-1.113-2.375-1.719-5.191-1.809-8.453zm46.778 17.73c-.274-.363-.41-.71-.41-1.038 0-.332.023-.543.066-.633l16.2-44.551c.51-1.352 1.444-2.027 2.796-2.027h10.824c1.356 0 2.285.675 2.797 2.027l16.2 44.55c.042.09.066.302.066.634 0 .375-.153.714-.461 1.02-.293.296-.63.444-1.004.444h-9.004c-1.168 0-1.965-.511-2.387-1.535l-3.633-9.855c-1.668.66-3.367 1.199-5.097 1.62-1.715.411-3.38.724-4.992.938a64.933 64.933 0 0 1-4.504.426 73.16 73.16 0 0 1-3.63.102h-1.671c-.465 0-.813-.028-1.04-.086.876.105 1.579.566 2.114 1.383.543.808.606 1.746.188 2.812l-.989 2.66c-.41 1.024-1.199 1.535-2.37 1.535h-9.005c-.328 0-.68-.14-1.054-.425zm17.746-17.867a42.195 42.195 0 0 0 4.043-.496 35.069 35.069 0 0 0 3.8-.8 17.652 17.652 0 0 0 3.82-1.5L302 29.53zm36.386 16.332V23.172c0-1.625.582-3.04 1.743-4.246 1.156-1.215 2.601-1.824 4.328-1.824h2.234c.559 0 1.184.109 1.875.324.703.207 1.434.82 2.184 1.844 2.738 4.285 5.203 8.148 7.398 11.593 1.352 2.09 2.41 3.754 3.172 4.992.773 1.23 1.496 2.368 2.164 3.41.684 1.048 1.25 1.946 1.707 2.696.465.75.75 1.195.852 1.328.09.094.203.137.34.137.238 0 .359-.113.359-.34V23.172c0-.93.172-1.766.512-2.508a5.948 5.948 0 0 1 1.363-1.89 6.315 6.315 0 0 1 1.945-1.211c.75-.305 1.5-.461 2.25-.461h4.535c.512 0 .91.16 1.192.476.32.332.476.774.476 1.332v45.047c0 .508-.156.93-.476 1.262-.281.375-.68.562-1.192.562h-7.894c-1.113 0-1.906-.445-2.371-1.332a7909.854 7909.854 0 0 0-7.535-11.523 246.139 246.139 0 0 1-3.29-4.91 331.898 331.898 0 0 0-2.199-3.43 459.25 459.25 0 0 0-1.707-2.66c-.465-.727-.746-1.156-.836-1.293-.148-.137-.265-.207-.355-.207-.274 0-.41.113-.41.344v23.253c0 .559-.164.989-.496 1.297-.328.305-.774.461-1.328.461h-8.797c-.47 0-.88-.18-1.23-.531a1.715 1.715 0 0 1-.513-1.227zm115.57-46.511c.282.328.427.683.427 1.058v.407l-7.47 44.5c-.054.605-.362 1.136-.921 1.605-.465.465-1.09.7-1.875.7h-6.988a2.883 2.883 0 0 1-1.606-.462c-.465-.308-.789-.761-.969-1.363l-6.566-18.297c-.055-.137-.176-.203-.355-.203-.137 0-.25.066-.344.203l-6.496 18.297c-.512 1.215-1.399 1.824-2.66 1.824h-6.989c-.785 0-1.41-.234-1.875-.699a2.56 2.56 0 0 1-.836-1.605l-7.484-44.5c-.047-.364-.035-.645.031-.852.082-.215.192-.422.324-.613.375-.274.723-.41 1.043-.41h9.086c1.352 0 2.098.535 2.235 1.605l3.972 24.719c.09.23.23.344.426.344.184 0 .297-.094.34-.274l4.332-13.758c.375-1.254 1.121-1.879 2.234-1.879h5.25c1.204 0 1.973.625 2.301 1.88l4.332 13.687c.047.183.16.273.34.273.238 0 .36-.09.36-.273l4.039-24.719c.148-.559.359-.98.632-1.262.375-.23.887-.343 1.535-.343h9.153c.422 0 .77.136 1.043.41zm3.7 48.047c-.273-.364-.41-.711-.41-1.04 0-.331.023-.542.066-.632l16.2-44.551c.511-1.352 1.44-2.027 2.796-2.027h10.825c1.355 0 2.285.675 2.796 2.027l16.2 44.55c.043.09.066.302.066.634 0 .375-.152.714-.46 1.02-.294.296-.63.444-1.005.444h-9.004c-1.172 0-1.965-.511-2.386-1.535l-3.633-9.855c-1.668.66-3.367 1.199-5.098 1.62-1.715.411-3.379.724-4.992.938a64.933 64.933 0 0 1-4.504.426 73.16 73.16 0 0 1-3.629.102h-1.672c-.468 0-.812-.028-1.039-.086.875.105 1.578.566 2.113 1.383.543.808.606 1.746.188 2.812l-.988 2.66c-.41 1.024-1.2 1.535-2.371 1.535h-9.004c-.328 0-.68-.14-1.055-.425zm17.746-17.868a42.195 42.195 0 0 0 4.043-.496 35.069 35.069 0 0 0 3.8-.8 17.652 17.652 0 0 0 3.821-1.5l-5.387-15.364zm48.887 16.485V51.73c0-.738-.098-1.488-.293-2.25-.18-.773-.414-1.414-.695-1.925l-15.075-28.082a1.372 1.372 0 0 1-.222-.766c0-.375.156-.71.46-1.008.31-.308.645-.46 1.008-.46h9.157c.511 0 1.011.132 1.5.394.488.25.824.629 1.004 1.14 1.683 3.024 3.199 5.747 4.554 8.168a133.729 133.729 0 0 0 1.907 3.528c.492.863.933 1.672 1.332 2.422a72.45 72.45 0 0 0 1.039 1.875c.308.511.484.812.527.902.105.148.223.223.36.223.136 0 .226-.075.273-.223.047-.09.222-.402.527-.938.309-.53.676-1.19 1.11-1.976.44-.797.94-1.703 1.5-2.727.57-1.035 1.132-2.062 1.687-3.086 1.352-2.421 2.863-5.144 4.535-8.168.602-1.023 1.445-1.535 2.524-1.535h9.14c.375 0 .707.153 1.004.461.309.297.461.633.461 1.008 0 .281-.066.54-.203.766a4504.857 4504.857 0 0 1-7.332 13.554 706.445 706.445 0 0 1-3.121 5.832c-.762 1.418-1.473 2.75-2.133 3.989a350.673 350.673 0 0 1-1.668 3.136 76.383 76.383 0 0 1-.836 1.5 7.41 7.41 0 0 0-.734 1.996 9.369 9.369 0 0 0-.239 2.047v12.649c0 .558-.164.988-.496 1.297-.328.297-.77.441-1.328.441h-9.496c-.512 0-.933-.156-1.262-.476-.32-.329-.476-.75-.476-1.262zm0 0" stroke="#fff" stroke-width="1.0043009999999999"/></g></g></g><g mask="url(#o)"><g clip-path="url(#p)" transform="translate(0 355)"><g clip-path="url(#q)"><path fill="none" d="M4.219 65.059c-.274-.364-.41-.711-.41-1.04 0-.328.023-.539.07-.632l16.195-44.551c.512-1.352 1.446-2.027 2.797-2.027H33.7c1.352 0 2.285.675 2.797 2.027l16.195 44.55c.047.094.07.305.07.634 0 .375-.156.714-.46 1.023-.297.293-.633.441-1.008.441h-9c-1.172 0-1.969-.511-2.387-1.535l-3.633-9.851a39.172 39.172 0 0 1-5.097 1.617 49.94 49.94 0 0 1-4.996.937 62.308 62.308 0 0 1-4.5.426c-1.399.07-2.61.106-3.633.106H16.41c-.445 0-.777-.032-1.008-.086.832.148 1.512.617 2.047 1.414.547.785.61 1.71.188 2.781l-.989 2.656c-.41 1.024-1.199 1.535-2.37 1.535h-9c-.333 0-.684-.14-1.06-.425zm17.75-17.868a40.91 40.91 0 0 0 4.039-.496 34.22 34.22 0 0 0 3.805-.8 17.7 17.7 0 0 0 3.816-1.5l-5.387-15.36zm83.035-30.382c.465 0 .879.187 1.242.562.375.375.563.797.563 1.262v45.113c0 .512-.188.934-.563 1.262-.363.32-.777.476-1.242.476h-8.8c-.513 0-.93-.156-1.263-.476-.328-.328-.492-.75-.492-1.262V39.93c0-.285-.136-.43-.41-.43-.101 0-.2.074-.289.223l-6.836 12.5c-.559 1.066-1.371 1.601-2.441 1.601h-3.715c-.922 0-1.735-.535-2.438-1.601l-6.77-12.5c-.046-.149-.14-.223-.288-.223-.274 0-.41.145-.41.43v23.816c0 .559-.164.988-.497 1.297-.328.293-.769.441-1.328.441h-8.73c-.512 0-.942-.148-1.293-.441-.344-.309-.512-.738-.512-1.297v-41.14c0-.977.219-1.825.664-2.54a6.949 6.949 0 0 1 1.567-1.824c.605-.488 1.23-.847 1.879-1.074.656-.238 1.199-.36 1.617-.36h3.906c1.215 0 2.055.512 2.523 1.536l11.66 20.886c.09.09.184.137.274.137.137 0 .25-.047.34-.137l11.75-20.886c.453-1.024 1.289-1.535 2.504-1.535zm11.383 46.785V22.742c0-1.762.605-3.21 1.808-4.347 1.215-1.149 2.637-1.723 4.262-1.723h28.492c.465 0 .887.187 1.262.562.375.364.562.778.562 1.246v6.922c0 .512-.187.91-.562 1.192-.332.32-.75.48-1.262.48h-25.832c1.113 0 2.028.395 2.746 1.192.727.785 1.09 1.644 1.09 2.574v2.933c0 .512.184 1 .547 1.465.375.469.914.7 1.617.7h15.16c1.204 0 1.805.609 1.805 1.824v6.293c0 1.203-.601 1.808-1.805 1.808h-21.16c1.07 0 1.973.375 2.711 1.125.75.739 1.125 1.575 1.125 2.504v3.293c0 .512.2 1 .598 1.465.398.465.922.7 1.566.7h20.395c.511 0 .937.175 1.277.527.352.343.527.77.527 1.28v6.837c0 .511-.187.93-.562 1.261a1.802 1.802 0 0 1-1.242.493h-33.383c-.512 0-.934-.164-1.262-.493-.32-.332-.48-.75-.48-1.261zm85.89 1.328a1.409 1.409 0 0 1-1.039.426h-9.785c-1.355 0-2.308-.63-2.867-1.891l-7.04-13.965c-.421-.75-1.05-1.125-1.894-1.125h-9.222c1.215 0 2.16.422 2.828 1.262.683.84 1.023 1.66 1.023 2.457v11.508c0 .566-.164 1.004-.492 1.312-.332.297-.773.442-1.332.442h-9.496c-.512 0-.93-.164-1.262-.493-.316-.332-.476-.75-.476-1.261V22.742c0-1.715.601-3.156 1.808-4.312 1.215-1.172 2.637-1.758 4.262-1.758h14.797c2.617 0 5.094.289 7.433.871 2.356.578 4.418 1.5 6.192 2.762 1.773 1.25 3.191 2.89 4.262 4.925 1.07 2.024 1.601 4.48 1.601 7.368 0 2.886-.594 5.425-1.789 7.62-1.183 2.18-3.05 3.973-5.61 5.372-.374.273-.562.574-.562.902 0 .328.047.586.137.766l8.73 15.86c.145.269.22.527.22.765 0 .316-.141.664-.427 1.039zM188.11 32.527c0-1.91-.55-3.363-1.652-4.363-1.094-1-2.57-1.5-4.434-1.5H170.02c1.113 0 2.02.41 2.71 1.227.708.808 1.06 1.652 1.06 2.539v5.578a2.119 2.119 0 0 0 2.163 2.164h6.07c1.864 0 3.34-.461 4.434-1.383 1.102-.93 1.652-2.351 1.652-4.262zm21.582 31.22V22.878c0-1.762.602-3.211 1.805-4.348 1.219-1.148 2.637-1.722 4.266-1.722h5.59c.558 0 .972.164 1.246.496.328.316.492.73.492 1.242v45.2c0 .51-.164.925-.492 1.245-.274.328-.688.492-1.246.492h-9.922c-.512 0-.934-.156-1.262-.476-.32-.328-.477-.75-.477-1.262zM231.2 47.327a30.186 30.186 0 0 1-.086-2.473v-7.367c0-1.031.032-1.875.086-2.523.09-3.215.707-6.004 1.844-8.371 1.137-2.375 2.656-4.328 4.566-5.864 1.91-1.546 4.168-2.699 6.77-3.46 2.613-.774 5.434-1.16 8.457-1.16 2.66 0 5.281.328 7.86.988 2.581.648 4.894 1.672 6.94 3.07a16.702 16.702 0 0 1 4.993 5.27c1.285 2.113 1.95 4.636 1.996 7.566 0 .422-.137.773-.41 1.059-.328.273-.703.41-1.125.41h-9.836c-.707 0-1.211-.137-1.52-.41-.293-.286-.53-.75-.714-1.399-.614-2.191-1.563-3.75-2.848-4.672-1.274-.93-3.05-1.398-5.336-1.398-5.262 0-7.984 2.91-8.168 8.73a36.534 36.534 0 0 0-.066 2.371v6.836c0 .977.023 1.797.066 2.457.238 5.864 2.961 8.797 8.168 8.797 2.047 0 3.79-.469 5.234-1.398 1.352-.977 2.336-2.563 2.95-4.758.226-.738.484-1.203.765-1.399.367-.273.856-.41 1.469-.41h9.836c.422 0 .797.137 1.125.41.273.286.41.637.41 1.06-.047 2.976-.723 5.538-2.027 7.687a16.488 16.488 0 0 1-5.067 5.27c-2.066 1.362-4.379 2.362-6.937 3a32.578 32.578 0 0 1-7.758.937c-3.113 0-5.969-.368-8.559-1.106-2.582-.75-4.824-1.894-6.734-3.43-1.91-1.535-3.422-3.488-4.535-5.863-1.113-2.375-1.719-5.195-1.809-8.457zm46.778 17.73c-.274-.363-.41-.71-.41-1.038 0-.329.023-.54.066-.633l16.2-44.551c.51-1.352 1.444-2.027 2.796-2.027h10.824c1.356 0 2.285.675 2.797 2.027l16.2 44.55c.042.094.066.305.066.634 0 .375-.153.714-.461 1.023-.293.293-.63.441-1.004.441h-9.004c-1.168 0-1.965-.511-2.387-1.535l-3.633-9.851a38.797 38.797 0 0 1-5.097 1.617c-1.715.41-3.38.723-4.992.937a62.614 62.614 0 0 1-4.504.426 73.67 73.67 0 0 1-3.63.106h-1.671c-.465 0-.813-.032-1.04-.086.876.101 1.579.562 2.114 1.379.543.808.606 1.746.188 2.816l-.989 2.656c-.41 1.024-1.199 1.535-2.37 1.535h-9.005c-.328 0-.68-.14-1.054-.425zm17.746-17.867a40.984 40.984 0 0 0 4.043-.496 34.16 34.16 0 0 0 3.8-.8 17.652 17.652 0 0 0 3.82-1.5L302 29.035zm36.386 16.332V22.672c0-1.625.582-3.04 1.743-4.242 1.156-1.22 2.601-1.825 4.328-1.825h2.234c.559 0 1.184.106 1.875.325.703.203 1.434.816 2.184 1.84 2.738 4.285 5.203 8.148 7.398 11.593 1.352 2.09 2.41 3.758 3.172 4.996a751.222 751.222 0 0 0 2.164 3.41 97.662 97.662 0 0 1 1.707 2.692c.465.75.75 1.195.852 1.332.09.09.203.137.34.137.238 0 .359-.114.359-.344V22.672c0-.93.172-1.766.512-2.504a5.965 5.965 0 0 1 1.363-1.895 6.315 6.315 0 0 1 1.945-1.21c.75-.305 1.5-.458 2.25-.458h4.535c.512 0 .91.157 1.192.477.32.328.476.773.476 1.328v45.047c0 .512-.156.934-.476 1.262-.281.375-.68.562-1.192.562h-7.894c-1.113 0-1.906-.445-2.371-1.332a7910.758 7910.758 0 0 0-7.535-11.523 246.139 246.139 0 0 1-3.29-4.91 329.094 329.094 0 0 0-2.199-3.426 289.261 289.261 0 0 0-1.707-2.66c-.465-.73-.746-1.16-.836-1.297-.148-.137-.265-.203-.355-.203-.274 0-.41.113-.41.34v23.253c0 .559-.164.993-.496 1.297-.328.309-.774.461-1.328.461h-8.797c-.47 0-.88-.176-1.23-.527-.34-.356-.513-.762-.513-1.23zm115.57-46.511c.282.332.427.683.427 1.058v.41l-7.47 44.5c-.054.602-.362 1.137-.921 1.602-.465.465-1.09.7-1.875.7h-6.988a2.852 2.852 0 0 1-1.606-.462c-.465-.304-.789-.761-.969-1.363l-6.566-18.293c-.055-.137-.176-.207-.355-.207-.137 0-.25.07-.344.207l-6.496 18.293c-.512 1.215-1.399 1.824-2.66 1.824h-6.989c-.785 0-1.41-.234-1.875-.699a2.55 2.55 0 0 1-.836-1.602l-7.484-44.5c-.047-.363-.035-.648.031-.851.082-.219.192-.422.324-.617.375-.27.723-.407 1.043-.407h9.086c1.352 0 2.098.532 2.235 1.602l3.972 24.723c.09.226.23.34.426.34.184 0 .297-.09.34-.274l4.332-13.758c.375-1.25 1.121-1.875 2.234-1.875h5.25c1.204 0 1.973.625 2.301 1.875l4.332 13.692c.047.18.16.273.34.273.238 0 .36-.094.36-.273l4.039-24.723c.148-.559.359-.977.632-1.262.375-.226.887-.34 1.535-.34h9.153c.422 0 .77.137 1.043.407zm3.7 48.047c-.273-.364-.41-.711-.41-1.04 0-.328.023-.539.066-.632l16.2-44.551c.511-1.352 1.44-2.027 2.796-2.027h10.825c1.355 0 2.285.675 2.796 2.027l16.2 44.55c.043.094.066.305.066.634 0 .375-.152.714-.46 1.023-.294.293-.63.441-1.005.441h-9.004c-1.172 0-1.965-.511-2.386-1.535l-3.633-9.851a38.797 38.797 0 0 1-5.098 1.617c-1.715.41-3.379.723-4.992.937a62.613 62.613 0 0 1-4.504.426 73.67 73.67 0 0 1-3.629.106h-1.672c-.468 0-.812-.032-1.039-.086.875.101 1.578.562 2.113 1.379.543.808.606 1.746.188 2.816l-.988 2.656c-.41 1.024-1.2 1.535-2.371 1.535h-9.004c-.328 0-.68-.14-1.055-.425zm17.746-17.868a40.984 40.984 0 0 0 4.043-.496 34.16 34.16 0 0 0 3.8-.8 17.652 17.652 0 0 0 3.821-1.5l-5.387-15.36zm48.887 16.489V51.23c0-.738-.098-1.488-.293-2.25-.18-.773-.414-1.414-.695-1.925l-15.075-28.082a1.363 1.363 0 0 1-.222-.766c0-.375.156-.71.46-1.008.31-.304.645-.457 1.008-.457h9.157c.511 0 1.011.13 1.5.39.488.25.824.63 1.004 1.141 1.683 3.024 3.199 5.747 4.554 8.168a141.808 141.808 0 0 0 1.907 3.532c.492.863.933 1.668 1.332 2.418.398.742.742 1.367 1.039 1.875.308.511.484.816.527.906.105.148.223.223.36.223.136 0 .226-.075.273-.223.047-.09.222-.402.527-.938a382.15 382.15 0 0 0 2.61-4.707c.57-1.035 1.132-2.062 1.687-3.086 1.352-2.421 2.863-5.144 4.535-8.168.602-1.023 1.445-1.53 2.524-1.53h9.14c.375 0 .707.152 1.004.456.309.297.461.633.461 1.008 0 .285-.066.54-.203.766a4504.857 4504.857 0 0 1-7.332 13.554 647.529 647.529 0 0 1-3.121 5.832c-.762 1.422-1.473 2.75-2.133 3.989a303.844 303.844 0 0 1-1.668 3.136 70.326 70.326 0 0 1-.836 1.504 7.383 7.383 0 0 0-.734 1.992 9.396 9.396 0 0 0-.239 2.047V63.68c0 .554-.164.988-.496 1.293-.328.297-.77.445-1.328.445h-9.496c-.512 0-.933-.16-1.262-.477-.32-.332-.476-.75-.476-1.261zm0 0" stroke="#fff" stroke-width="1.0043009999999999"/></g></g></g><g mask="url(#r)"><g clip-path="url(#s)" transform="translate(0 427)"><g clip-path="url(#t)"><path fill="none" d="M4.219 64.867c-.274-.367-.41-.71-.41-1.043 0-.328.023-.539.07-.629l16.195-44.55c.512-1.352 1.446-2.032 2.797-2.032H33.7c1.352 0 2.285.68 2.797 2.032l16.195 44.55c.047.09.07.301.07.63 0 .374-.156.718-.46 1.023-.297.297-.633.445-1.008.445h-9c-1.172 0-1.969-.512-2.387-1.535l-3.633-9.856c-1.671.66-3.37 1.2-5.097 1.621a51.076 51.076 0 0 1-4.996.938 64.609 64.609 0 0 1-4.5.426 78.29 78.29 0 0 1-3.633.101H16.41c-.445 0-.777-.027-1.008-.086.832.149 1.512.621 2.047 1.418.547.782.61 1.707.188 2.778l-.989 2.66c-.41 1.023-1.199 1.535-2.37 1.535h-9c-.333 0-.684-.145-1.06-.426zm17.75-17.87c1.297-.09 2.64-.255 4.039-.493a35.131 35.131 0 0 0 3.805-.8 18.112 18.112 0 0 0 3.816-1.5L28.242 28.84zm83.035-30.384c.465 0 .879.188 1.242.563.375.375.563.797.563 1.262v45.117c0 .508-.188.93-.563 1.261a1.84 1.84 0 0 1-1.242.477h-8.8c-.513 0-.93-.16-1.263-.477-.328-.332-.492-.753-.492-1.261v-23.82c0-.286-.136-.426-.41-.426-.101 0-.2.074-.289.222l-6.836 12.496c-.559 1.067-1.371 1.602-2.441 1.602h-3.715c-.922 0-1.735-.535-2.438-1.602l-6.77-12.496c-.046-.148-.14-.222-.288-.222-.274 0-.41.14-.41.425v23.82c0 .555-.164.989-.497 1.294-.328.297-.769.445-1.328.445h-8.73c-.512 0-.942-.148-1.293-.445-.344-.305-.512-.739-.512-1.293V22.41c0-.976.219-1.824.664-2.539a7.012 7.012 0 0 1 1.567-1.824c.605-.488 1.23-.848 1.879-1.074.656-.239 1.199-.36 1.617-.36h3.906c1.215 0 2.055.512 2.523 1.535l11.66 20.887c.09.09.184.137.274.137.137 0 .25-.047.34-.137l11.75-20.887c.453-1.023 1.289-1.535 2.504-1.535zm11.383 46.785V22.547c0-1.762.605-3.211 1.808-4.348 1.215-1.148 2.637-1.719 4.262-1.719h28.492c.465 0 .887.188 1.262.563.375.363.562.777.562 1.242v6.922c0 .512-.187.91-.562 1.195-.332.317-.75.477-1.262.477h-25.832c1.113 0 2.028.398 2.746 1.195.727.781 1.09 1.64 1.09 2.574v2.93c0 .512.184 1 .547 1.469.375.465.914.7 1.617.7h15.16c1.204 0 1.805.605 1.805 1.823v6.29c0 1.206-.601 1.808-1.805 1.808h-21.16c1.07 0 1.973.375 2.711 1.125.75.738 1.125 1.574 1.125 2.508v3.289c0 .512.2 1 .598 1.465.398.468.922.699 1.566.699h20.395c.511 0 .937.176 1.277.531.352.34.527.766.527 1.278v6.835c0 .512-.187.934-.562 1.262a1.788 1.788 0 0 1-1.242.496h-33.383c-.512 0-.934-.164-1.262-.496-.32-.328-.48-.75-.48-1.262zm85.89 1.332a1.424 1.424 0 0 1-1.039.426h-9.785c-1.355 0-2.308-.633-2.867-1.894l-7.04-13.961c-.421-.75-1.05-1.125-1.894-1.125h-9.222c1.215 0 2.16.418 2.828 1.262.683.84 1.023 1.656 1.023 2.453v11.507c0 .57-.164 1.008-.492 1.313-.332.297-.773.445-1.332.445h-9.496c-.512 0-.93-.164-1.262-.496-.316-.328-.476-.75-.476-1.262V22.547c0-1.715.601-3.152 1.808-4.313 1.215-1.171 2.637-1.754 4.262-1.754h14.797c2.617 0 5.094.29 7.433.868 2.356.582 4.418 1.5 6.192 2.761 1.773 1.25 3.191 2.895 4.262 4.93 1.07 2.024 1.601 4.477 1.601 7.363 0 2.887-.594 5.43-1.789 7.621-1.183 2.184-3.05 3.973-5.61 5.372-.374.273-.562.574-.562.902 0 .332.047.586.137.77l8.73 15.855c.145.273.22.527.22.766 0 .32-.141.667-.427 1.042zM188.11 32.336c0-1.91-.55-3.367-1.652-4.367-1.094-1-2.57-1.5-4.434-1.5H170.02c1.113 0 2.02.41 2.71 1.23.708.805 1.06 1.653 1.06 2.54v5.574a2.12 2.12 0 0 0 2.164 2.164h6.07c1.863 0 3.34-.457 4.433-1.38 1.102-.933 1.652-2.35 1.652-4.261zm21.582 31.219V22.684c0-1.762.602-3.211 1.805-4.348 1.219-1.148 2.637-1.723 4.266-1.723h5.59c.558 0 .972.168 1.246.496.328.317.492.735.492 1.246v45.2c0 .508-.164.925-.492 1.242-.274.332-.688.496-1.246.496h-9.922c-.512 0-.934-.16-1.262-.477-.32-.332-.477-.753-.477-1.261zM231.2 47.133a30.186 30.186 0 0 1-.086-2.473V37.297c0-1.035.032-1.875.086-2.524.09-3.218.707-6.007 1.844-8.37 1.137-2.376 2.656-4.333 4.566-5.868 1.91-1.543 4.168-2.7 6.77-3.46 2.613-.774 5.434-1.16 8.457-1.16 2.66 0 5.281.331 7.86.991 2.581.645 4.894 1.668 6.94 3.067a16.743 16.743 0 0 1 4.993 5.27c1.285 2.112 1.95 4.636 1.996 7.57 0 .421-.137.773-.41 1.058-.328.27-.703.406-1.125.406h-9.836c-.707 0-1.211-.136-1.52-.406-.293-.285-.53-.754-.714-1.398-.614-2.196-1.563-3.754-2.848-4.672-1.274-.934-3.05-1.399-5.336-1.399-5.262 0-7.984 2.91-8.168 8.73a36.404 36.404 0 0 0-.066 2.368v6.836c0 .98.023 1.797.066 2.457.238 5.863 2.961 8.797 8.168 8.797 2.047 0 3.79-.465 5.234-1.399 1.352-.976 2.336-2.562 2.95-4.753.226-.743.484-1.208.765-1.399.367-.273.856-.41 1.469-.41h9.836c.422 0 .797.137 1.125.41.273.281.41.637.41 1.055-.047 2.98-.723 5.543-2.027 7.691a16.475 16.475 0 0 1-5.067 5.266c-2.066 1.367-4.379 2.367-6.937 3.004a32.578 32.578 0 0 1-7.758.937c-3.113 0-5.969-.37-8.559-1.11-2.582-.75-4.824-1.894-6.734-3.425-1.91-1.535-3.422-3.492-4.535-5.867s-1.719-5.195-1.809-8.457zm46.778 17.734c-.274-.367-.41-.71-.41-1.043 0-.328.023-.539.066-.629l16.2-44.55c.51-1.352 1.444-2.032 2.796-2.032h10.824c1.356 0 2.285.68 2.797 2.032l16.2 44.55c.042.09.066.301.066.63 0 .374-.153.718-.461 1.023-.293.297-.63.445-1.004.445h-9.004c-1.168 0-1.965-.512-2.387-1.535l-3.633-9.856c-1.668.66-3.367 1.2-5.097 1.621a50.789 50.789 0 0 1-4.992.938 64.933 64.933 0 0 1-4.504.426 78.28 78.28 0 0 1-3.63.101h-1.671c-.465 0-.813-.027-1.04-.086.876.102 1.579.563 2.114 1.383.543.805.606 1.742.188 2.813l-.989 2.66c-.41 1.023-1.199 1.535-2.37 1.535h-9.005c-.328 0-.68-.145-1.054-.426zm17.746-17.87a40.94 40.94 0 0 0 4.043-.493 35.069 35.069 0 0 0 3.8-.8 18.061 18.061 0 0 0 3.82-1.5L302 28.84zm36.386 16.335V22.48c0-1.625.582-3.039 1.743-4.246 1.156-1.214 2.601-1.824 4.328-1.824h2.234c.559 0 1.184.11 1.875.324.703.204 1.434.817 2.184 1.84 2.738 4.285 5.203 8.153 7.398 11.594a290.778 290.778 0 0 1 3.172 4.996c.773 1.23 1.496 2.363 2.164 3.41.684 1.047 1.25 1.946 1.707 2.696.465.75.75 1.19.852 1.328.09.093.203.136.34.136.238 0 .359-.113.359-.34V22.48c0-.933.172-1.77.512-2.507a5.948 5.948 0 0 1 1.363-1.891 6.315 6.315 0 0 1 1.945-1.21 5.87 5.87 0 0 1 2.25-.462h4.535c.512 0 .91.16 1.192.477.32.332.476.773.476 1.332v45.043c0 .511-.156.933-.476 1.261-.281.375-.68.563-1.192.563h-7.894c-1.113 0-1.906-.441-2.371-1.328a8080.688 8080.688 0 0 0-7.535-11.528 225.146 225.146 0 0 1-3.29-4.91 376.517 376.517 0 0 0-2.199-3.425 289.307 289.307 0 0 0-1.707-2.66c-.465-.727-.746-1.16-.836-1.297-.148-.137-.265-.204-.355-.204-.274 0-.41.114-.41.34v23.258c0 .555-.164.988-.496 1.297-.328.305-.774.457-1.328.457h-8.797c-.47 0-.88-.176-1.23-.527a1.715 1.715 0 0 1-.513-1.227zM447.68 16.82c.282.328.427.68.427 1.055v.41l-7.47 44.5c-.054.602-.362 1.137-.921 1.602-.465.468-1.09.699-1.875.699h-6.988a2.88 2.88 0 0 1-1.606-.457c-.465-.309-.789-.762-.969-1.367l-6.566-18.293c-.055-.137-.176-.203-.355-.203-.137 0-.25.066-.344.203l-6.496 18.293c-.512 1.218-1.399 1.824-2.66 1.824h-6.989c-.785 0-1.41-.23-1.875-.7-.468-.417-.746-.952-.836-1.6l-7.484-44.5c-.047-.364-.035-.65.031-.852.082-.215.192-.422.324-.614.375-.273.723-.41 1.043-.41h9.086c1.352 0 2.098.535 2.235 1.602l3.972 24.722c.09.227.23.34.426.34.184 0 .297-.09.34-.27l4.332-13.761c.375-1.25 1.121-1.875 2.234-1.875h5.25c1.204 0 1.973.625 2.301 1.875l4.332 13.691c.047.184.16.274.34.274.238 0 .36-.09.36-.274l4.039-24.722c.148-.555.359-.977.632-1.262.375-.227.887-.34 1.535-.34h9.153c.422 0 .77.137 1.043.41zm3.7 48.047c-.273-.367-.41-.71-.41-1.043 0-.328.023-.539.066-.629l16.2-44.55c.511-1.352 1.44-2.032 2.796-2.032h10.825c1.355 0 2.285.68 2.796 2.032l16.2 44.55c.043.09.066.301.066.63 0 .374-.152.718-.46 1.023-.294.297-.63.445-1.005.445h-9.004c-1.172 0-1.965-.512-2.386-1.535l-3.633-9.856c-1.668.66-3.367 1.2-5.098 1.621a50.789 50.789 0 0 1-4.992.938 64.933 64.933 0 0 1-4.504.426 78.28 78.28 0 0 1-3.629.101h-1.672c-.468 0-.812-.027-1.039-.086.875.102 1.578.563 2.113 1.383.543.805.606 1.742.188 2.813l-.988 2.66c-.41 1.023-1.2 1.535-2.371 1.535h-9.004c-.328 0-.68-.145-1.055-.426zm17.746-17.87a40.94 40.94 0 0 0 4.043-.493 35.069 35.069 0 0 0 3.8-.8 18.061 18.061 0 0 0 3.821-1.5l-5.387-15.364zm48.887 16.487V51.04c0-.738-.098-1.488-.293-2.25-.18-.773-.414-1.418-.695-1.93l-15.075-28.078a1.376 1.376 0 0 1-.222-.77c0-.374.156-.71.46-1.003.31-.309.645-.461 1.008-.461h9.157c.511 0 1.011.129 1.5.39.488.25.824.633 1.004 1.145 1.683 3.023 3.199 5.746 4.554 8.164a128.912 128.912 0 0 0 1.907 3.531c.492.864.933 1.672 1.332 2.422a72.45 72.45 0 0 0 1.039 1.875c.308.512.484.813.527.903.105.148.223.222.36.222.136 0 .226-.074.273-.222.047-.09.222-.403.527-.938.309-.535.676-1.191 1.11-1.976.44-.797.94-1.708 1.5-2.727a510.37 510.37 0 0 0 1.687-3.09c1.352-2.418 2.863-5.14 4.535-8.164.602-1.023 1.445-1.535 2.524-1.535h9.14c.375 0 .707.152 1.004.46.309.294.461.63.461 1.005 0 .285-.066.543-.203.77a4504.857 4504.857 0 0 1-7.332 13.554 637.402 637.402 0 0 1-3.121 5.828 2221.82 2221.82 0 0 0-2.133 3.992 350.673 350.673 0 0 1-1.668 3.137 76.383 76.383 0 0 1-.836 1.5 7.362 7.362 0 0 0-.734 1.996 9.362 9.362 0 0 0-.239 2.043v12.652c0 .559-.164.989-.496 1.297-.328.293-.77.442-1.328.442h-9.496c-.512 0-.933-.157-1.262-.477-.32-.328-.476-.75-.476-1.262zm0 0" stroke="#fff" stroke-width="1.0043009999999999"/></g></g></g><g mask="url(#v)" clip-path="url(#u)"><g clip-path="url(#w)" transform="translate(0 501)"><g clip-path="url(#x)"><path fill="none" d="M4.219 64.926c-.274-.363-.41-.711-.41-1.04 0-.331.023-.538.07-.632l16.195-44.55c.512-1.352 1.446-2.028 2.797-2.028H33.7c1.352 0 2.285.676 2.797 2.027l16.195 44.55c.047.095.07.302.07.634 0 .375-.156.715-.46 1.023-.297.293-.633.442-1.008.442h-9c-1.172 0-1.969-.512-2.387-1.536l-3.633-9.851a39.172 39.172 0 0 1-5.097 1.617 49.94 49.94 0 0 1-4.996.938 62.308 62.308 0 0 1-4.5.425c-1.399.07-2.61.106-3.633.106H16.41c-.445 0-.777-.031-1.008-.086.832.148 1.512.617 2.047 1.414.547.785.61 1.71.188 2.777l-.989 2.66c-.41 1.024-1.199 1.536-2.37 1.536h-9c-.333 0-.684-.141-1.06-.426zm17.75-17.867a40.91 40.91 0 0 0 4.039-.496 34.22 34.22 0 0 0 3.805-.801 17.7 17.7 0 0 0 3.816-1.5l-5.387-15.364zm83.035-30.383c.465 0 .879.187 1.242.562.375.375.563.797.563 1.262v45.113c0 .512-.188.934-.563 1.262a1.84 1.84 0 0 1-1.242.477h-8.8c-.513 0-.93-.16-1.263-.477-.328-.328-.492-.75-.492-1.262v-23.82c0-.281-.136-.426-.41-.426-.101 0-.2.074-.289.223l-6.836 12.496c-.559 1.07-1.371 1.605-2.441 1.605h-3.715c-.922 0-1.735-.535-2.438-1.605L71.55 39.59c-.046-.149-.14-.223-.288-.223-.274 0-.41.145-.41.426v23.82c0 .559-.164.989-.497 1.297-.328.293-.769.442-1.328.442h-8.73c-.512 0-.942-.149-1.293-.442-.344-.308-.512-.738-.512-1.297v-41.14c0-.977.219-1.825.664-2.54a6.949 6.949 0 0 1 1.567-1.824 6.239 6.239 0 0 1 1.879-1.074c.656-.242 1.199-.36 1.617-.36h3.906c1.215 0 2.055.513 2.523 1.536l11.66 20.883c.09.094.184.136.274.136.137 0 .25-.042.34-.136l11.75-20.883c.453-1.023 1.289-1.535 2.504-1.535zm11.383 46.785V22.609c0-1.761.605-3.21 1.808-4.347 1.215-1.149 2.637-1.723 4.262-1.723h28.492c.465 0 .887.188 1.262.563.375.363.562.777.562 1.246v6.922c0 .511-.187.906-.562 1.19-.332.321-.75.478-1.262.478h-25.832c1.113 0 2.028.398 2.746 1.195.727.785 1.09 1.64 1.09 2.574v2.934c0 .511.184 1 .547 1.464.375.465.914.7 1.617.7h15.16c1.204 0 1.805.61 1.805 1.824v6.293c0 1.203-.601 1.805-1.805 1.805h-21.16c1.07 0 1.973.375 2.711 1.125.75.742 1.125 1.574 1.125 2.507v3.29c0 .511.2 1.003.598 1.468.398.465.922.7 1.566.7h20.395c.511 0 .937.175 1.277.527.352.34.527.765.527 1.277v6.84c0 .512-.187.93-.562 1.262a1.802 1.802 0 0 1-1.242.492h-33.383c-.512 0-.934-.164-1.262-.492-.32-.332-.48-.75-.48-1.262zm85.89 1.328a1.409 1.409 0 0 1-1.039.426h-9.785c-1.355 0-2.308-.629-2.867-1.89l-7.04-13.966c-.421-.75-1.05-1.125-1.894-1.125h-9.222c1.215 0 2.16.422 2.828 1.262.683.84 1.023 1.66 1.023 2.457v11.508c0 .566-.164 1.004-.492 1.312-.332.293-.773.442-1.332.442h-9.496c-.512 0-.93-.164-1.262-.492-.316-.332-.476-.75-.476-1.262V22.609c0-1.718.601-3.156 1.808-4.312 1.215-1.172 2.637-1.758 4.262-1.758h14.797c2.617 0 5.094.29 7.433.871 2.356.578 4.418 1.5 6.192 2.762 1.773 1.25 3.191 2.89 4.262 4.926 1.07 2.023 1.601 4.48 1.601 7.367 0 2.887-.594 5.426-1.789 7.62-1.183 2.18-3.05 3.974-5.61 5.372-.374.27-.562.57-.562.902 0 .329.047.586.137.766l8.73 15.855c.145.274.22.532.22.77 0 .316-.141.664-.427 1.04zM188.11 32.395c0-1.91-.55-3.364-1.652-4.364-1.094-1-2.57-1.5-4.434-1.5H170.02c1.113 0 2.02.407 2.71 1.227.708.808 1.06 1.652 1.06 2.539v5.578a2.119 2.119 0 0 0 2.163 2.164h6.07c1.864 0 3.34-.46 4.434-1.383 1.102-.93 1.652-2.351 1.652-4.261zm21.582 31.218V22.746c0-1.762.602-3.21 1.805-4.348 1.219-1.148 2.637-1.722 4.266-1.722h5.59c.558 0 .972.164 1.246.492.328.32.492.734.492 1.246v45.2c0 .511-.164.925-.492 1.245-.274.329-.688.493-1.246.493h-9.922c-.512 0-.934-.16-1.262-.477-.32-.328-.477-.75-.477-1.262zM231.2 47.195a30.186 30.186 0 0 1-.086-2.472v-7.368c0-1.035.032-1.875.086-2.523.09-3.215.707-6.008 1.844-8.371 1.137-2.375 2.656-4.328 4.566-5.863 1.91-1.547 4.168-2.7 6.77-3.461 2.613-.774 5.434-1.16 8.457-1.16 2.66 0 5.281.328 7.86.988 2.581.648 4.894 1.672 6.94 3.07a16.73 16.73 0 0 1 4.993 5.266c1.285 2.117 1.95 4.64 1.996 7.57 0 .422-.137.774-.41 1.059-.328.273-.703.41-1.125.41h-9.836c-.707 0-1.211-.137-1.52-.41-.293-.285-.53-.75-.714-1.399-.614-2.195-1.563-3.75-2.848-4.672-1.274-.93-3.05-1.398-5.336-1.398-5.262 0-7.984 2.91-8.168 8.73a36.535 36.535 0 0 0-.066 2.372v6.835c0 .977.023 1.797.066 2.454.238 5.867 2.961 8.8 8.168 8.8 2.047 0 3.79-.468 5.234-1.398 1.352-.98 2.336-2.563 2.95-4.758.226-.738.484-1.203.765-1.398.367-.274.856-.41 1.469-.41h9.836c.422 0 .797.136 1.125.41.273.285.41.636.41 1.058-.047 2.977-.723 5.54-2.027 7.688a16.488 16.488 0 0 1-5.067 5.27c-2.066 1.363-4.379 2.363-6.937 3a32.578 32.578 0 0 1-7.758.937c-3.113 0-5.969-.367-8.559-1.11-2.582-.75-4.824-1.89-6.734-3.425-1.91-1.536-3.422-3.489-4.535-5.864-1.113-2.379-1.719-5.195-1.809-8.457zm46.778 17.73c-.274-.362-.41-.71-.41-1.038 0-.332.023-.54.066-.633l16.2-44.55c.51-1.352 1.444-2.028 2.796-2.028h10.824c1.356 0 2.285.676 2.797 2.027l16.2 44.55c.042.095.066.302.066.634 0 .375-.153.715-.461 1.023-.293.293-.63.442-1.004.442h-9.004c-1.168 0-1.965-.512-2.387-1.536l-3.633-9.851a38.797 38.797 0 0 1-5.097 1.617c-1.715.41-3.38.723-4.992.938a62.614 62.614 0 0 1-4.504.425 73.67 73.67 0 0 1-3.63.106h-1.671c-.465 0-.813-.031-1.04-.086.876.101 1.579.562 2.114 1.379.543.808.606 1.746.188 2.812l-.989 2.66c-.41 1.024-1.199 1.536-2.37 1.536h-9.005c-.328 0-.68-.141-1.054-.426zm17.746-17.866a40.984 40.984 0 0 0 4.043-.496 34.16 34.16 0 0 0 3.8-.801 17.652 17.652 0 0 0 3.82-1.5L302 28.898zm36.386 16.332V22.539c0-1.625.582-3.039 1.743-4.242 1.156-1.219 2.601-1.828 4.328-1.828h2.234c.559 0 1.184.11 1.875.324.703.207 1.434.82 2.184 1.844 2.738 4.285 5.203 8.148 7.398 11.593 1.352 2.09 2.41 3.758 3.172 4.997a751.222 751.222 0 0 0 2.164 3.41 97.662 97.662 0 0 1 1.707 2.691c.465.75.75 1.195.852 1.332.09.09.203.137.34.137.238 0 .359-.113.359-.344V22.54c0-.93.172-1.766.512-2.504a5.965 5.965 0 0 1 1.363-1.894 6.315 6.315 0 0 1 1.945-1.211c.75-.305 1.5-.461 2.25-.461h4.535c.512 0 .91.16 1.192.48.32.328.476.774.476 1.328v45.047c0 .512-.156.93-.476 1.262-.281.375-.68.562-1.192.562h-7.894c-1.113 0-1.906-.445-2.371-1.332a7910.829 7910.829 0 0 0-7.535-11.523 246.135 246.135 0 0 1-3.29-4.91 380.056 380.056 0 0 0-2.199-3.43 344.41 344.41 0 0 0-1.707-2.656c-.465-.73-.746-1.16-.836-1.297-.148-.137-.265-.207-.355-.207-.274 0-.41.117-.41.344V63.39c0 .558-.164.988-.496 1.297-.328.308-.774.46-1.328.46h-8.797c-.47 0-.88-.175-1.23-.53-.34-.352-.513-.759-.513-1.227zm115.57-46.512c.282.332.427.684.427 1.059v.41l-7.47 44.5c-.054.601-.362 1.136-.921 1.601-.465.465-1.09.7-1.875.7h-6.988a2.852 2.852 0 0 1-1.606-.461c-.465-.31-.789-.762-.969-1.364l-6.566-18.297c-.055-.132-.176-.203-.355-.203-.137 0-.25.07-.344.203l-6.496 18.297c-.512 1.215-1.399 1.824-2.66 1.824h-6.989c-.785 0-1.41-.234-1.875-.699a2.56 2.56 0 0 1-.836-1.601l-7.484-44.5c-.047-.364-.035-.649.031-.856a2.98 2.98 0 0 1 .324-.613c.375-.274.723-.41 1.043-.41h9.086c1.352 0 2.098.535 2.235 1.605l3.972 24.723c.09.226.23.34.426.34.184 0 .297-.09.34-.274l4.332-13.758c.375-1.25 1.121-1.875 2.234-1.875h5.25c1.204 0 1.973.625 2.301 1.875l4.332 13.692c.047.18.16.27.34.27.238 0 .36-.09.36-.27l4.039-24.723c.148-.558.359-.976.632-1.261.375-.227.887-.344 1.535-.344h9.153c.422 0 .77.136 1.043.41zm3.7 48.047c-.273-.363-.41-.711-.41-1.04 0-.331.023-.538.066-.632l16.2-44.55c.511-1.352 1.44-2.028 2.796-2.028h10.825c1.355 0 2.285.676 2.796 2.027l16.2 44.55c.043.095.066.302.066.634 0 .375-.152.715-.46 1.023-.294.293-.63.442-1.005.442h-9.004c-1.172 0-1.965-.512-2.386-1.536l-3.633-9.851a38.797 38.797 0 0 1-5.098 1.617c-1.715.41-3.379.723-4.992.938a62.614 62.614 0 0 1-4.504.425 73.67 73.67 0 0 1-3.629.106h-1.672c-.468 0-.812-.031-1.039-.086.875.101 1.578.562 2.113 1.379.543.808.606 1.746.188 2.812l-.988 2.66c-.41 1.024-1.2 1.536-2.371 1.536h-9.004c-.328 0-.68-.141-1.055-.426zm17.746-17.867a40.984 40.984 0 0 0 4.043-.496 34.16 34.16 0 0 0 3.8-.801 17.652 17.652 0 0 0 3.821-1.5l-5.387-15.364zm48.887 16.488v-12.45c0-.738-.098-1.488-.293-2.25-.18-.773-.414-1.413-.695-1.925L501.949 18.84a1.363 1.363 0 0 1-.222-.766c0-.375.156-.71.46-1.008.31-.304.645-.46 1.008-.46h9.157c.511 0 1.011.132 1.5.394.488.25.824.629 1.004 1.14 1.683 3.024 3.199 5.747 4.554 8.169a133.727 133.727 0 0 0 1.907 3.527c.492.867.933 1.672 1.332 2.422a72.45 72.45 0 0 0 1.039 1.875c.308.512.484.812.527.906.105.149.223.219.36.219.136 0 .226-.07.273-.219.047-.094.222-.406.527-.937a382.187 382.187 0 0 0 2.61-4.707c.57-1.036 1.132-2.063 1.687-3.086 1.352-2.422 2.863-5.145 4.535-8.168.602-1.024 1.445-1.536 2.524-1.536h9.14c.375 0 .707.157 1.004.461.309.297.461.633.461 1.008 0 .285-.066.54-.203.766a4504.857 4504.857 0 0 1-7.332 13.555 647.529 647.529 0 0 1-3.121 5.832c-.762 1.421-1.473 2.75-2.133 3.988a350.696 350.696 0 0 1-1.668 3.137 57.017 57.017 0 0 1-.836 1.5 7.46 7.46 0 0 0-.734 1.996 9.369 9.369 0 0 0-.239 2.047v12.652c0 .555-.164.988-.496 1.293-.328.297-.77.445-1.328.445h-9.496c-.512 0-.933-.16-1.262-.476-.32-.332-.476-.754-.476-1.262zm0 0" stroke="#fff" stroke-width="1.0043009999999999"/></g></g></g><g mask="url(#z)" clip-path="url(#y)"><g clip-path="url(#A)" transform="translate(2)"><g clip-path="url(#B)"><path fill="none" d="M4.766 55.098c-.274-.364-.41-.711-.41-1.04 0-.331.023-.542.07-.632L20.62 8.875c.512-1.352 1.445-2.027 2.797-2.027h10.828c1.352 0 2.285.675 2.797 2.027l16.195 44.55c.047.09.07.302.07.634 0 .375-.156.714-.46 1.02-.297.296-.633.444-1.008.444h-9c-1.172 0-1.969-.511-2.387-1.535l-3.633-9.855c-1.672.66-3.37 1.199-5.097 1.62a49.94 49.94 0 0 1-4.996.938 64.608 64.608 0 0 1-4.5.426 73.18 73.18 0 0 1-3.633.102h-1.637c-.445 0-.777-.028-1.008-.086.832.148 1.512.62 2.047 1.418.547.781.61 1.71.188 2.777l-.989 2.66c-.41 1.024-1.199 1.535-2.37 1.535h-9c-.333 0-.684-.14-1.06-.425zm17.75-17.868a42.119 42.119 0 0 0 4.039-.496 35.13 35.13 0 0 0 3.804-.8 17.7 17.7 0 0 0 3.817-1.5L28.789 19.07zM105.55 6.848c.465 0 .879.187 1.242.562.375.375.562.793.562 1.262v45.113c0 .512-.187.93-.562 1.262a1.84 1.84 0 0 1-1.242.476H96.75c-.512 0-.93-.16-1.262-.476-.328-.332-.492-.75-.492-1.262v-23.82c0-.285-.137-.426-.41-.426-.102 0-.2.074-.29.223l-6.835 12.496c-.559 1.07-1.371 1.601-2.441 1.601h-3.715c-.922 0-1.735-.53-2.438-1.601l-6.77-12.496c-.046-.149-.14-.223-.288-.223-.274 0-.41.14-.41.426v23.82c0 .555-.165.988-.497 1.293-.328.297-.77.445-1.328.445h-8.73c-.512 0-.942-.148-1.293-.445-.344-.305-.512-.738-.512-1.293v-41.14c0-.98.219-1.825.664-2.543a7.012 7.012 0 0 1 1.567-1.825c.605-.488 1.23-.847 1.878-1.074.657-.238 1.196-.355 1.618-.355h3.906c1.215 0 2.055.511 2.523 1.53l11.66 20.888c.09.09.184.136.274.136.137 0 .25-.047.34-.136l11.75-20.887c.453-1.02 1.289-1.531 2.504-1.531zm11.383 46.78V12.782c0-1.765.601-3.215 1.808-4.347 1.215-1.149 2.637-1.723 4.262-1.723h28.492c.465 0 .887.187 1.262.562.375.364.562.778.562 1.243v6.922c0 .511-.187.91-.562 1.195-.332.316-.75.476-1.262.476h-25.832c1.113 0 2.027.399 2.746 1.196.727.78 1.09 1.64 1.09 2.574v2.93c0 .511.184 1.004.547 1.468.375.465.914.7 1.617.7h15.16c1.203 0 1.805.605 1.805 1.824v6.289c0 1.207-.602 1.808-1.805 1.808h-21.16c1.07 0 1.973.375 2.711 1.125.75.739 1.125 1.575 1.125 2.508v3.29c0 .511.2 1 .598 1.468.398.465.922.695 1.566.695h20.395c.511 0 .937.18 1.277.532.352.34.527.765.527 1.277v6.836c0 .512-.187.934-.562 1.262a1.788 1.788 0 0 1-1.242.496h-33.387c-.508 0-.93-.164-1.262-.496-.316-.328-.476-.75-.476-1.262zm85.89 1.333a1.409 1.409 0 0 1-1.039.426H192c-1.355 0-2.309-.633-2.867-1.895l-7.04-13.96c-.421-.75-1.05-1.126-1.894-1.126h-9.222c1.214 0 2.16.418 2.828 1.262.683.84 1.023 1.66 1.023 2.453V53.63c0 .57-.164 1.008-.492 1.312-.332.297-.773.446-1.332.446h-9.496c-.512 0-.93-.164-1.262-.496-.316-.328-.476-.75-.476-1.262V12.78c0-1.718.601-3.156 1.808-4.316 1.215-1.168 2.637-1.754 4.262-1.754h14.797c2.617 0 5.094.289 7.433.867 2.356.582 4.418 1.5 6.192 2.762 1.773 1.25 3.191 2.894 4.261 4.93 1.067 2.023 1.602 4.476 1.602 7.363 0 2.887-.598 5.43-1.789 7.62-1.184 2.185-3.05 3.974-5.61 5.372-.374.273-.562.574-.562.906 0 .328.047.582.137.766l8.73 15.855c.145.274.219.532.219.77 0 .316-.14.664-.426 1.039zm-14.168-32.395c0-1.91-.55-3.363-1.652-4.363-1.094-1.004-2.57-1.504-4.434-1.504h-12.004c1.114 0 2.02.41 2.711 1.23.707.805 1.059 1.653 1.059 2.54v5.574c0 .613.21 1.133.629 1.55.422.41.933.618 1.535.618h6.07c1.864 0 3.34-.461 4.434-1.383 1.102-.933 1.652-2.351 1.652-4.262zm21.582 31.22V12.913c0-1.762.602-3.21 1.805-4.348 1.219-1.144 2.637-1.718 4.262-1.718h5.593c.56 0 .973.164 1.247.492.328.32.492.734.492 1.246v45.2c0 .51-.164.925-.492 1.241-.274.332-.688.496-1.247.496h-9.921c-.512 0-.934-.16-1.262-.476-.32-.332-.477-.75-.477-1.262zm21.508-16.423a30.013 30.013 0 0 1-.086-2.468v-7.368c0-1.035.031-1.875.086-2.523.09-3.215.707-6.008 1.844-8.371 1.137-2.375 2.656-4.332 4.566-5.867 1.91-1.543 4.168-2.7 6.77-3.461 2.613-.77 5.433-1.157 8.457-1.157 2.66 0 5.281.329 7.86.989 2.581.648 4.894 1.672 6.94 3.066a16.743 16.743 0 0 1 4.993 5.27c1.285 2.113 1.95 4.636 1.996 7.57 0 .422-.137.773-.41 1.059a1.704 1.704 0 0 1-1.125.406H263.8c-.707 0-1.211-.133-1.52-.406-.293-.286-.53-.75-.715-1.399-.613-2.195-1.562-3.75-2.847-4.672-1.274-.933-3.051-1.398-5.336-1.398-5.262 0-7.985 2.91-8.168 8.73a36.49 36.49 0 0 0-.067 2.367v6.84c0 .977.024 1.793.067 2.453.238 5.868 2.96 8.797 8.168 8.797 2.047 0 3.789-.465 5.234-1.398 1.352-.977 2.336-2.563 2.95-4.754.226-.738.484-1.207.765-1.398.367-.274.856-.41 1.469-.41h9.836c.422 0 .797.136 1.125.41.273.285.41.636.41 1.054-.047 2.98-.723 5.543-2.027 7.692a16.488 16.488 0 0 1-5.067 5.27c-2.066 1.362-4.379 2.362-6.937 3a32.578 32.578 0 0 1-7.758.937c-3.113 0-5.969-.371-8.559-1.11-2.582-.75-4.824-1.89-6.734-3.425-1.91-1.536-3.422-3.489-4.535-5.868-1.114-2.375-1.719-5.191-1.809-8.457zm46.778 17.735c-.274-.364-.41-.711-.41-1.04 0-.331.023-.542.066-.632l16.199-44.551c.512-1.352 1.441-2.027 2.797-2.027H308c1.356 0 2.285.675 2.797 2.027l16.2 44.55c.042.09.066.302.066.634 0 .375-.153.714-.461 1.02-.293.296-.63.444-1.004.444h-9.004c-1.172 0-1.965-.511-2.387-1.535l-3.633-9.855c-1.668.66-3.367 1.199-5.097 1.62-1.715.411-3.38.724-4.993.938a64.932 64.932 0 0 1-4.503.426 73.16 73.16 0 0 1-3.63.102h-1.671c-.469 0-.813-.028-1.04-.086.876.105 1.579.562 2.114 1.383.543.808.605 1.746.187 2.812l-.988 2.66c-.41 1.024-1.199 1.535-2.37 1.535h-9.005c-.328 0-.68-.14-1.054-.425zM296.27 37.23a42.195 42.195 0 0 0 4.043-.496 35.068 35.068 0 0 0 3.8-.8 17.652 17.652 0 0 0 3.82-1.5l-5.386-15.364zm36.386 16.333V12.71c0-1.625.582-3.04 1.739-4.246 1.16-1.215 2.605-1.824 4.332-1.824h2.234c.555 0 1.184.109 1.875.324.703.207 1.434.82 2.184 1.844 2.738 4.285 5.203 8.148 7.398 11.593 1.352 2.09 2.41 3.754 3.172 4.993.773 1.23 1.492 2.367 2.164 3.41.684 1.047 1.25 1.945 1.707 2.695.465.75.75 1.195.852 1.328.09.094.203.137.34.137.238 0 .359-.113.359-.34V12.711c0-.934.168-1.766.512-2.508a5.948 5.948 0 0 1 1.363-1.89 6.315 6.315 0 0 1 1.945-1.211 5.87 5.87 0 0 1 2.25-.461h4.535c.512 0 .907.16 1.192.476.32.332.476.774.476 1.332v45.043c0 .512-.156.934-.476 1.262-.285.379-.68.566-1.192.566h-7.894c-1.114 0-1.907-.445-2.371-1.332a7910.829 7910.829 0 0 0-7.536-11.523 233.65 233.65 0 0 1-3.289-4.914 304.883 304.883 0 0 0-2.203-3.426 327.511 327.511 0 0 0-1.703-2.66 93.63 93.63 0 0 0-.836-1.293c-.148-.137-.265-.207-.36-.207-.269 0-.405.113-.405.34v23.258c0 .558-.164.988-.496 1.296-.329.305-.774.461-1.329.461h-8.8c-.465 0-.875-.18-1.227-.53a1.715 1.715 0 0 1-.512-1.227zM448.226 7.05c.282.328.426.683.426 1.058v.407l-7.468 44.5c-.059.605-.364 1.136-.922 1.605-.465.465-1.09.7-1.875.7h-6.988a2.874 2.874 0 0 1-1.606-.462c-.465-.308-.789-.761-.969-1.367L422.258 35.2c-.055-.136-.176-.203-.356-.203-.136 0-.25.067-.343.203l-6.496 18.293c-.512 1.219-1.399 1.828-2.66 1.828h-6.989c-.785 0-1.41-.234-1.875-.699a2.56 2.56 0 0 1-.836-1.605l-7.484-44.5c-.047-.364-.035-.649.031-.852.082-.215.188-.422.324-.613.375-.274.723-.41 1.043-.41h9.086c1.352 0 2.098.535 2.235 1.601l3.972 24.723c.09.23.23.344.426.344.18 0 .297-.094.34-.274l4.332-13.762c.375-1.25 1.117-1.875 2.234-1.875h5.25c1.203 0 1.973.625 2.301 1.875l4.332 13.692c.043.183.16.273.34.273.238 0 .36-.09.36-.273l4.038-24.723c.149-.554.36-.976.633-1.258.375-.23.887-.343 1.535-.343h9.153c.422 0 .77.136 1.043.41zm3.7 48.047c-.274-.364-.41-.711-.41-1.04 0-.331.023-.542.066-.632l16.2-44.551c.511-1.352 1.44-2.027 2.796-2.027h10.824c1.356 0 2.286.675 2.797 2.027l16.2 44.55c.043.09.066.302.066.634 0 .375-.152.714-.461 1.02-.293.296-.629.444-1.004.444h-9.004c-1.172 0-1.965-.511-2.387-1.535l-3.632-9.855c-1.668.66-3.368 1.199-5.098 1.62-1.715.411-3.379.724-4.996.938a64.608 64.608 0 0 1-4.5.426 73.16 73.16 0 0 1-3.629.102h-1.672c-.469 0-.812-.028-1.039-.086.875.105 1.578.562 2.113 1.383.543.808.606 1.746.188 2.812l-.988 2.66c-.41 1.024-1.2 1.535-2.372 1.535h-9.003c-.329 0-.68-.14-1.055-.425zm17.746-17.868a42.195 42.195 0 0 0 4.043-.496 35.068 35.068 0 0 0 3.8-.8 17.652 17.652 0 0 0 3.821-1.5L475.95 19.07zm48.887 16.485V41.27c0-.739-.098-1.489-.293-2.25-.18-.774-.414-1.415-.7-1.926l-15.07-28.082a1.376 1.376 0 0 1-.222-.77c0-.375.156-.707.46-1.004.31-.308.645-.46 1.008-.46h9.157c.507 0 1.011.132 1.5.394.488.25.824.629 1.003 1.14 1.684 3.024 3.2 5.747 4.555 8.168a133.73 133.73 0 0 0 1.906 3.528c.489.863.934 1.672 1.332 2.422.399.738.743 1.363 1.04 1.875.308.511.484.812.527.902.105.148.223.223.36.223.136 0 .226-.075.273-.223.047-.09.222-.402.527-.937.309-.532.676-1.192 1.11-1.977.44-.797.94-1.703 1.5-2.727.566-1.035 1.132-2.062 1.687-3.086a2422.23 2422.23 0 0 0 4.535-8.167c.602-1.024 1.445-1.536 2.523-1.536h9.141c.375 0 .707.153 1.004.461.309.297.46.63.46 1.004 0 .285-.07.543-.202.77a4504.48 4504.48 0 0 1-7.332 13.554 706.37 706.37 0 0 1-3.121 5.832c-.762 1.418-1.473 2.75-2.133 3.989a350.655 350.655 0 0 1-1.668 3.136 76.393 76.393 0 0 1-.836 1.5 7.41 7.41 0 0 0-.734 1.997 9.369 9.369 0 0 0-.239 2.046v12.649c0 .558-.164.988-.496 1.297-.328.297-.77.441-1.328.441h-9.496c-.512 0-.934-.156-1.262-.476-.32-.329-.476-.75-.476-1.262zm0 0" stroke="#fff" stroke-width="1.0043009999999999"/></g></g></g></svg>