<svg xmlns="http://www.w3.org/2000/svg" width="1366" viewBox="0 0 1024.5 576" height="768" version="1.0"><defs><clipPath id="b"><path d="M0 271h843v304.86H0zm0 0"/></clipPath><clipPath id="e"><path d="M0 1.547h842.469V251H0zm0 0"/></clipPath><clipPath id="f"><path d="M227 251h15v53.86h-15zm0 0"/></clipPath><clipPath id="g"><path d="M112 247h34v57.86h-34zm0 0"/></clipPath><clipPath id="d"><path d="M0 0h843v305H0z"/></clipPath><filter x="0%" y="0%" width="100%" height="100%" id="a"><feColorMatrix values="0 0 0 0 1 0 0 0 0 1 0 0 0 0 1 0 0 0 1 0" color-interpolation-filters="sRGB"/></filter><mask id="c"><g filter="url(#a)"><path fill-opacity=".1" d="M-102.45-57.6h1229.4v691.2h-1229.4z"/></g></mask></defs><g mask="url(#c)" clip-path="url(#b)"><g clip-path="url(#d)" transform="translate(0 271)"><g clip-path="url(#e)"><path fill="#e6335d" d="M407.066 57.805c.676 0 1.356.054 2.032.168.175.03.8.168 1.109.636.05.082.094.172.125.266-.137-2.582-.125-4.156.07-4.39.422-.508 1.032-.782 1.77-.794.258-.004.512.02.781.067-1.348-6.496-4.984-28.844-6.832-40.899-.312 1.633-.664 3.426-1.043 5.368-1.293 6.554-2.894 14.707-4.355 23.77-.43 2.671-.965 6.667-1.555 11.554.344-.012.684.027 1.004.136 1.394.481 1.531 1.668 1.64 2.626l.028.285c.144 1.136.308 1.625 1.164 1.972a8.5 8.5 0 0 1 2.101-.61 12.252 12.252 0 0 1 1.961-.155zm2.153 1.16zm-3.59.172c.91.086 1.828.082 2.73-.02-.906-.113-1.82-.11-2.73.02zm-264.922 3.785c.098.3.375.758.738 1.273-.09-.566-.312-1.195-.738-1.273zm262.383-3.016c-.434.242-.832.551-1.149.953-.68.864-.851 2.309-.03 3.09.206.196.456.34.722.45 1.262-.54 2.62-.7 3.66-.762 1.766-.106 3.176.027 4.387.437-.14-1.804-.254-3.398-.325-4.75-.003.02-.011.043-.015.063-.082.316-.34.726-1.137.86-1.875.308-3.844.23-5.687-.224-.153-.039-.29-.078-.426-.117zm2.32 5.055c.875.062 1.758.023 2.633-.11a13.57 13.57 0 0 0-1.68.02c-.332.02-.652.05-.953.09zM217.734 66.5a.105.105 0 0 0-.043.008c-.035.035-.046.125-.015.18.031.058.199.105.508.023a.164.164 0 0 0-.063-.043c-.187-.137-.324-.168-.387-.168zm184.965-.77c-.34.184-.648.391-.922.633-1.058.93-1.613 2.77-.714 3.914.261.34.628.614 1.12.82.391-.097.786-.16 1.192-.218a62.194 62.194 0 0 1 5.496-.555c.555-.035 1.684-.097 2.406.617a546.648 546.648 0 0 1-.488-5.523 13.258 13.258 0 0 1-7.605.445 5.716 5.716 0 0 1-.485-.133zm-109.851 6.184c-.618.863-.344 2.352.039 3.934l.07.32c.152.64.305 1.289.465 1.934.246-2.223.152-4.375-.574-6.188zm-119.48 5.297c-.055 0-.145.008-.177.066-.058.102-.074.309-.078.477-.035.683-.062 1.363-.086 2.043.227-.246.43-.52.606-.832.332-.574.426-1.121.242-1.48-.07-.145-.29-.266-.488-.274h-.02zm113.073-4.969c-.918 2.887-.695 6.02-.25 8.703.293-1.336.5-2.77.668-4.3.168-1.536.227-3.2-.418-4.403zm115.684.156a3.407 3.407 0 0 0-.762.36c-1.324.894-1.527 3.047-1.691 4.781-.027.285-.05.559-.082.816-.102.875-.07 2.086.644 2.88.102.109.215.21.34.304a7.804 7.804 0 0 1 1.488-1.21c2.833-1.766 6.497-2.063 9.57-.774.212.093.38.187.516.289-.289-2.817-.554-5.504-.789-8.012a.621.621 0 0 1-.257.176 14.537 14.537 0 0 1-7.711.707 8.544 8.544 0 0 1-1.266-.317zm-.39 9.723c.081.031.156.055.226.078a10.95 10.95 0 0 0 9.246-1.258c.082-.054.137-.097.172-.125a.926.926 0 0 0-.223-.117c-2.71-1.14-5.945-.879-8.441.676a7.137 7.137 0 0 0-.98.746zm-.887.98c-.856 1.13-1.48 2.563-1.793 4.169-.274 1.425-.008 2.785.71 3.68 4.563-3.028 10.618-2.009 13.06-1.415.12.028.245.063.366.102-.3-2.746-.59-5.434-.859-8.032a2.093 2.093 0 0 1-.45.368 12.184 12.184 0 0 1-10.296 1.402 7.826 7.826 0 0 1-.738-.273zm-.09 8.676c1.469.844 3.52.766 5.226.7 2.477-.09 5.07-.516 6.95-1.137.304-.098.359-.16.37-.176a.338.338 0 0 0-.105-.168c-.152-.129-.398-.2-.664-.262-2.226-.539-7.656-1.464-11.777 1.043zm-1.082.778c-3.09 2.71-3.5 8.59-3.547 10.382-.02.637.016 1.149.223 1.555.011.024.023.047.039.074.359-.464.754-.875 1.195-1.222 1.031-.82 2.242-1.285 3.184-1.602a23.287 23.287 0 0 1 12.425-.629c.504.114.993.317 1.375.598-.367-3.09-.726-6.2-1.066-9.258-.067.024-.133.043-.18.059-2.02.664-4.672 1.105-7.277 1.199-2.067.078-4.563.176-6.371-1.156zm-2.336 12.8c.39.188.89.332 1.508.446 4.937.902 10.12.14 14.582-2.153.172-.085.613-.312.656-.546.062-.297-.55-.645-1.16-.782a22.103 22.103 0 0 0-11.766.594c-.844.285-1.926.7-2.805 1.395-.375.3-.71.648-1.015 1.046zm17.328-49.597c.75 4.328 2.277 22.242 3.637 38.195.457 5.387.906 10.629 1.289 14.934-.121-9.024-.274-18.485-.489-27.82-.12-5.29-.246-10.747-.5-16.106-.015-.348 0-.871.016-1.477.05-1.464.137-4.195-.476-4.879-1.06-1.18-2.313-2.187-3.477-2.847zM289.344 98.484c-.762 3.508-1.156 7.063-.676 10.645.203 1.523.602 2.605 1.238 3.355 1.149-.687 1.145-2.836 1.11-3.523-.172-3.57-.832-7.059-1.672-10.477zm107.328 7.922c-.442.836-.777 1.832-1.016 2.965-.16.77-.297 1.766.02 2.586.222.559.644 1.043 1.277 1.457 1.422-.812 3.176-1.453 5.317-1.95a43.82 43.82 0 0 1 6.558-1c2.227-.16 3.957.18 5.832.614.426.098.785.23 1.09.402-.3-2.406-.598-4.859-.89-7.332-.301.305-.66.493-.864.598a24.333 24.333 0 0 1-15.371 2.274c-.59-.11-1.305-.278-1.953-.614zm1.668 7.672c.242.09.504.172.781.254 4.418 1.254 11.438 1.402 15.742-.781.395-.2.637-.426.645-.594.015-.242-.453-.52-1.121-.676-2.157-.5-3.594-.73-5.469-.582-2.137.16-4.281.485-6.371.973-1.645.379-3.04.844-4.207 1.406zm-.625-58.797c-1.012.528-2 1.356-2.453 1.73-1.301 1.087-3.086 2.571-3.086 12.231 0 7.156-.168 14.434-.336 21.469-.059 2.598-.121 5.191-.176 7.785-.113 5.645-.23 11.281-.351 16.922 1.91-19.031 4.453-43.824 6.402-60.137zM197.71 107.227c-.047 0-.09.007-.133.015-.535.145-.7 1.102-.746 1.504a15.183 15.183 0 0 0 1.465 8.34c.836-3.016.973-6.023.387-8.793-.082-.39-.344-.777-.641-.965a.677.677 0 0 0-.332-.101zm199.27 7.617c-1.016.668-1.801 1.445-2.391 2.351-.774 1.203-.996 2.5-.598 3.477.43 1.043 1.54 1.726 2.453 2.21.028.009.047.024.07.036 1.856-.914 3.903-1.457 5.805-1.902l.63-.153c4.363-1.031 9.792-2.32 13.913.04.028.015.063.034.09.054-.281-2.172-.57-4.426-.867-6.738-.184.156-.402.3-.664.43-4.637 2.355-11.879 2.218-16.637.87a11.053 11.053 0 0 1-1.805-.675zm.996 8.761c1.925.817 4.086 1.383 6.55 1.73 2.043.286 3.895.142 5.856-.01.527-.048 1.058-.09 1.601-.122 1.461-.098 3.329-.34 4.735-1.387.168-.129.41-.328.476-.535.14-.426-.367-.98-.945-1.308-3.695-2.114-8.863-.891-13.016.093l-.632.149c-1.567.37-3.157.781-4.625 1.39zm1.039-68.796c-2.45 20.351-5.875 54.62-7.786 73.847.368-1.156.946-2.277 1.91-3.308a10.665 10.665 0 0 1 2.106-1.723c-.937-.563-1.918-1.332-2.39-2.48-.56-1.352-.293-3.075.703-4.618a9.007 9.007 0 0 1 2.28-2.394c-.616-.492-1.05-1.063-1.312-1.727-.437-1.12-.27-2.347-.074-3.281.27-1.332.68-2.484 1.219-3.465-.16-.18-.3-.375-.414-.597-.352-.68-.383-1.438-.363-2.165.074-2.445.597-8.23 3.89-11.203-.933-1.168-1.285-2.894-.941-4.66.336-1.734 1.008-3.293 1.93-4.55a3.312 3.312 0 0 1-.454-.426c-1.027-1.133-1.09-2.715-.96-3.844.03-.25.054-.516.081-.793.192-1.992.426-4.473 2.239-5.688l.066-.043a3.832 3.832 0 0 1-.66-.648c-1.34-1.711-.625-4.281.879-5.606.133-.12.27-.226.41-.328a2.288 2.288 0 0 1-.313-.265c-1.351-1.29-1.101-3.469-.09-4.75.235-.293.505-.559.805-.801-.761-.559-1.011-1.36-1.156-2.543l-.039-.3c-.113-1.013-.207-1.388-.812-1.595a1.515 1.515 0 0 0-.754-.046zm19.445 68.386c.5 3.739.98 7.176 1.43 10.14-.04-2.429-.07-4.862-.102-7.292-.008-1.285-.023-2.586-.039-3.91-.129-1.274-.254-2.336-.375-3.07-.348-2.094-1.254-12.708-2.3-25.004-1.391-16.34-3.13-36.692-3.755-38.723a5.213 5.213 0 0 1-.062-.227 3.772 3.772 0 0 0-1.063-.183c-.34.008-.601.097-.789.285-.445 1.922 1.047 17.723 3.055 35.523.062.184.09.383.062.575 1.207 10.597 2.586 21.855 3.848 31.277.063.195.098.402.09.61zm-27.5 16.223c.203.594.52 1.11 1.008 1.5 1.676-1.488 3.953-2.027 5.988-2.406a81.776 81.776 0 0 1 12.387-1.383c2.605-.09 5.379-.063 7.996.777.473.149.855.352 1.144.59-.586-3.539-1.28-8.27-2.02-13.7a.008.008 0 0 0-.007.009c-1.668 1.242-3.762 1.523-5.394 1.629-.54.039-1.063.074-1.579.12-2.027.157-3.945.313-6.132.005-2.993-.422-5.563-1.164-7.832-2.258a9.951 9.951 0 0 0-2.473 1.89c-1.879 2.012-2.074 4.446-2.277 7.016-.082 1.02-.165 2.066-.352 3.113-.129.707-.23 1.457-.336 2.22-.039.288-.078.581-.121.878zm191.828-3.34c-1.258 1.785-1.684 3.922-1.695 6.188a9.603 9.603 0 0 1 1.933-.446c.125-1.277.223-2.558.297-3.836.051-.77-.136-1.543-.445-1.84a.442.442 0 0 0-.09-.066zm-189.652 5.477c.836.328 1.754.468 2.582.578 2.586.34 5.242.43 7.531.492 2.645.074 5.727.121 8.75-.145 2.148-.19 4.598-.582 6.43-2.02.414-.327.496-.546.496-.663 0-.246-.38-.524-.965-.711-2.438-.785-5.078-.813-7.57-.723-4.09.14-8.196.602-12.207 1.36-1.72.328-3.622.761-5.047 1.832zm91.445-9.637c-.102.117-.242.332-.375.695-.152.41-.074 1.43-.016 2.098.024.344.047.656.051.898.031 2.176.324 4.575.88 7.172.25-3.832.108-7.25-.415-10.386a2.316 2.316 0 0 0-.125-.477zm109.066 12.254c.391.187.77.383 1.145.586a.381.381 0 0 0 .07-.067l-.015-4.617c-.664 1.258-1.032 2.645-1.2 4.098zm-.093 1.336c-.004.101-.004.203-.004.3.082-.054.164-.117.246-.175l-.242-.125zm-14.528-.344c.352.242.711.457 1.09.664a31.259 31.259 0 0 1-.18-1.586c-.343.262-.652.57-.91.922zm2.43 1.3c.32.138.645.259.977.364.18-1.25.332-2.5.468-3.754a7.681 7.681 0 0 0-1.77.488c.052.961.173 1.934.325 2.903zm-397.992-.421c-.012.02-.016.039-.024.059-.132.418-.16.78-.082 1.074.036-.375.075-.754.106-1.133zm400.168 1.125c2.512.594 5.18.512 7.644-.309.399-.136.75-.261 1.063-.398-.008-.516 0-1.024.031-1.524a26.236 26.236 0 0 0-4.223-1.5c-1.234-.328-2.648-.527-3.992-.48a127.714 127.714 0 0 1-.523 4.211zm-1.942.71c.102.571.207 1.142.32 1.7l.239-1.508c-.188-.062-.375-.129-.559-.191zm-372.402-8.82c-.226.93-.434 1.868-.637 2.801l-.12.559c-.485 2.246-1.095 5.039-.56 7.184.454 1.812 1.192 2.332 1.34 2.335.098-.011.575-.558.454-2.648-.067-1.137-.11-2.402-.16-3.754-.075-2.05-.153-4.262-.317-6.476zm549.309 8.223c-.368.332-1.024 1.602-1.028 2.903 0 .62.02 1.254.063 1.886.664-1.11 1.238-2.293 1.18-3.476-.032-.778-.145-1.149-.215-1.313zm-175.961 5.727c.101.59.199 1.18.293 1.77a24.104 24.104 0 0 1 10.55-.153.607.607 0 0 1-.02-.09c-.503-2.27-.917-4.558-1.065-6.765-.227.085-.47.171-.735.261-2.64.88-5.508.977-8.207.36a114.043 114.043 0 0 1-.816 4.617zm12.183 1.937.086.024-.035-8.617a7.237 7.237 0 0 1-1.297.882c.121 2.34.59 4.754 1.09 7.036.047.234.102.457.156.675zm1.325 2.442c.398.265.996.332 1.468.168.11-.04.223-.098.324-.18a21.513 21.513 0 0 0-1.792-.727zM392.172 142.48c-1.27 1.54-1.543 3.426-1.762 5.704l-.09.945c-.351 3.57-.672 6.738 1.465 9.187.047-.05.102-.101.149-.148 1.605-1.523 3.777-2.281 5.683-2.816a47.345 47.345 0 0 1 16.797-1.61c2.465.207 3.977.938 5.992 2.121-.133-4.734-.261-9.48-.36-14.23l-.171-.918c-.23.355-.543.597-.684.71-2.097 1.653-4.886 2.09-7.086 2.286-3.085.27-6.203.219-8.89.148-2.317-.062-5.012-.156-7.656-.5-1.145-.148-2.332-.367-3.387-.879zm-71.18 18.114a.335.335 0 0 0-.027.082c.078.133.242.238.441.324-.144-.184-.293-.336-.414-.406zm-143.137-2.7c-.062 0-.097.024-.132.043-.243.176-.43.72-.407 1.192.043.992.579 1.73 1.133 2.027.012-.437.024-.875.04-1.312.011-.469.042-1.715-.477-1.918a.473.473 0 0 0-.157-.031zm214.817 1.278c.195.16.39.308.61.457 2.241 1.547 5.042 2.074 7.234 2.367 5.554.742 11.351.41 16.785-.95 1.082-.269 2.304-.62 3.152-1.405.02-.02.047-.04.063-.063-.024-.754-.043-1.5-.067-2.258-.086-.054-.172-.11-.254-.156-2.074-1.226-3.472-1.988-5.882-2.191a46.073 46.073 0 0 0-16.36 1.57c-1.765.496-3.758 1.18-5.164 2.523-.039.032-.078.07-.117.106zm187.883-2.36c-.664.29-1.29.676-1.66 1.254-.356.559-.493 1.305-.442 2.414.04.77.152 1.543.352 2.297.597-1.738 1.156-3.507 1.593-5.304.055-.223.102-.438.157-.66zm-504.992 3.06a.134.134 0 0 0-.07.015c-.09.058-.184.277-.231.386-1.164 2.715-1.133 5.168-.367 7.426 1.003-2.105 1.43-4.246 1.304-6.469-.027-.453-.066-.851-.25-1.128-.094-.137-.273-.23-.386-.23zm53.445.468c-.23.23-.43.46-.594.672-1.789 2.258-2.394 5.398-1.746 6.695.184.371.45.566.824.598 1.184-.93 1.39-2.774 1.442-4.633.03-1.11.054-2.219.074-3.332zm450.445 4.293c.836 1.883 2.168 3.61 3.89 5.035-.316-4.45-.769-8.895-1.421-13.297-.106.465-.215.93-.328 1.39-.567 2.356-1.34 4.645-2.14 6.872zm-242.168-3.496c-.11.539-.223 1.093-.328 1.66a40.855 40.855 0 0 1-.394 1.723c-.473 1.914-1.055 4.296-.555 5.714.156.446.629.864 1.027.754.383-.101.633-.613.738-1.054.54-2.204.133-4.79-.261-7.29-.075-.511-.157-1.015-.227-1.507zm247.363 9.496c.164.105.329.21.497.312.476.293.964.559 1.449.793.445-.375.91-.703 1.402-.992 2.172-1.254 4.785-1.445 6.961-.715l-.043-12.086c-.52-.55-.848-1.23-1.082-1.976a22.908 22.908 0 0 0-10.719.031c.723 4.852 1.207 9.738 1.535 14.633zm11.555 1.402v.61c.172-.055.348-.114.516-.176a7.762 7.762 0 0 0-.516-.434zm-8.308.25c2.359.875 4.804 1.102 7.078.668l-.008-1.598c-2.031-.82-4.55-.578-6.344.465a8.199 8.199 0 0 0-.726.465zm-208.02-9.992c-1.77 1.785-1.105 4.61-.52 7.113l.036.14c.32 1.337.71 2.665 1.168 3.966 1.097-3.25 1.53-6.66.793-9.258-.207-.727-.7-1.578-1.477-1.961zm204.875 9.855c.027.497.055.993.078 1.489.262-.348.531-.68.82-.992-.3-.157-.605-.32-.898-.497zm-271.168-1.906-.367 6.176c-.14 1.937-.348 4.867.578 6.234.305.442.605.703.824.707.254-.004.465-.183.742-.543 1.09-1.402.676-4.957-.007-7.57-.45-1.7-1.114-3.379-1.77-5.004zm270.246 8.418c-.113.426-.207.863-.281 1.309-.418 2.43-.223 4.847.508 6.933a416.19 416.19 0 0 0-.227-8.242zm-496.683 8.567c-.079.183.02.39.09.503.187.31.593.583.925.5.43-.113.738-.5.895-.957-.016-.015-.035-.027-.051-.043-.442-.312-1.05-.312-1.86-.003zm-26.07 1.015c.445.488 1.1.895 1.452.82.243-.046.282-.597.29-.765.019-.422-.063-.621-.126-.656-.156-.082-.761.043-1.617.601zm524.257 1.223c.207.308.434.597.676.87 2.726-2.32 5.883-3.452 8.844-3.124l.175.023-.054-13.027c-2.63.457-5.457.106-8.141-1.008a10.745 10.745 0 0 0-1.89 2.582c.214 4.574.324 9.14.39 13.684zm9.707 2.113c-.02.145-.02.29.008.434zm1.23-.785.012 1.23c.172-.12.336-.253.496-.398.137-.148-.035-.41-.152-.543a1.114 1.114 0 0 0-.355-.289zm-207.578-1.477c-.222 1.563-.226 3.063.707 3.739.473-1.098.04-2.438-.707-3.739zm198.192 1.899c1.996 1.703 4.789 2.328 7.156 1.785-.508-1.281-.203-2.57.832-3.27.055-.039.106-.066.164-.097l-.004-1.149a2.996 2.996 0 0 0-.312-.043c-2.59-.289-5.383.715-7.836 2.774zm-445.89-18.223c-1.138 7.176-2.24 15.059.226 20.754.715-2.457.547-5.7.406-8.383-.031-.586-.059-1.14-.078-1.664-.024-.719-.047-1.449-.067-2.187-.09-2.836-.175-5.719-.488-8.52zM323.257 186c-.035 1.45-.11 2.898-.285 4.328-.125 1.04.093 3.106.422 3.598.078-.067.234-.215.445-.54.848-1.288.656-3.761-.582-7.386zm273.027 7.879c.438.262.938.34 1.41.094.465-.239.813-.692.977-1.27.21-.73.113-1.574-.254-2.203-.434-.738-1.2-1.324-2.152-1.691v.675c.504.11.972.414 1.3.797.614.719.641 1.614.075 2.227a7.453 7.453 0 0 1-1.356.953zm-174.683-3.164c-2.286 2.703-2.399 6.527-1.172 9.625 1.328-2.047 1.351-4.88 1.246-7.637-.028-.664-.051-1.324-.074-1.988zm152.816-8.035c.402.57.73 1.336.984 2.289a96.033 96.033 0 0 1 2.79 16.328c.203-.344.406-.692.609-1.035l.761-1.293c1.36-2.32 2.762-4.707 4.57-6.774-.01-.78-.019-1.574-.03-2.36-1.73-2.733-2.407-6.398-1.774-10.073a15.507 15.507 0 0 1 1.363-4.246 250.566 250.566 0 0 0-.234-4.207c-1.953-1.395-3.512-3.145-4.586-5.079-.062.18-.129.352-.191.528-1.14 3.078-2.309 6.262-3.02 9.515a128.651 128.651 0 0 0-1.242 6.407zm-134.363 16.343c-.239.344-.317.922-.297 1.41.02.43.058.864.12 1.297.04-.148.075-.304.11-.453.25-1.027.274-1.761.067-2.254zm11.562 2.235c-.058.379.078.945.328 1.484a5.797 5.797 0 0 0-.328-1.484zm-85.164.398c-.156 2.145-.312 5.446.223 6.887 1.164-1.965 1.074-4.824-.223-6.887zm133.64 3.996a7.252 7.252 0 0 0-.09 3.97c.38-.755.513-1.735.356-2.786a8.222 8.222 0 0 0-.265-1.184zm73.981-20.824a133.254 133.254 0 0 0-1.386 25.922c1.222-1.988 2.378-4.016 3.53-6.031.29-.508.587-1.02.876-1.528a94.55 94.55 0 0 0-2.89-17.906 14.165 14.165 0 0 0-.13-.457zm-98.054 23.488c.105 1.688.242 3.371.406 5.051.355-.351.527-.8.61-1.172.284-1.261-.138-2.847-1.016-3.879zm88.253-1.972a36.385 36.385 0 0 1 1.04 14.219c2.355-2.415 4.378-5.145 6.23-8a134.86 134.86 0 0 1 1.562-29.52 1.295 1.295 0 0 0-.738-.348c-1.137-.101-1.933 1.422-2.324 2.348a83.862 83.862 0 0 0-5.77 21.3zm-.414 3.785a82.246 82.246 0 0 0-.273 9.656c.023.727.066 1.5.258 2.195.008 0 .008-.003.008-.003.68-3.891.671-7.934.007-11.848zM542.617 222.8c1.02.012 2.028.023 3.028.039.84.015 1.683.031 2.523.039 1.027.004 3.539.02 7.25.035a33.42 33.42 0 0 1 .016-8.453 9.997 9.997 0 0 0-.41-.879c-.169-.336-.446-.781-.786-.89-.496-.153-1.11.367-1.586.831a143.84 143.84 0 0 0-2.441 2.442c-2.297 2.34-4.785 4.867-7.594 6.836zm14.016.117c1.804.008 3.847.016 6.113.023.027-.023.063-.05.09-.078-.379-.957-.457-2.043-.484-3.039a83.99 83.99 0 0 1 .668-13.39 32.862 32.862 0 0 0-.688-2.125c-.238-.664-.633-1.45-1.184-1.47-.007-.003-.015-.003-.027-.003-.52 0-.976.7-1.277 1.289a32.677 32.677 0 0 0-3.145 10.18c1.031 2.75 1.024 5.879-.066 8.613zm8.297.027c2.515.012 5.258.02 8.203.032-.664-1.098-.91-2.512-1.043-3.75-.164-1.54-.3-3.082-.414-4.63-1.961 2.891-4.13 5.622-6.684 8.012-.02.118-.043.227-.062.336zm9.78.035h.247c1.613-2.257 2.004-5.296 2.176-8.273.176-3.086.199-6.164.082-9.238-1.426 2.484-2.86 5-4.418 7.426.125 2.066.3 4.132.52 6.195.152 1.402.449 3.027 1.394 3.89zm1.712.004c2.68.012 5.512.02 8.457.032-.531-8.582-.613-17.2-.695-25.618-.008-1.093-.02-2.187-.028-3.28-1.328 1.714-2.441 3.616-3.531 5.48l-.766 1.297a154.68 154.68 0 0 0-1.507 2.593c.222 3.746.226 7.516.007 11.29-.164 2.87-.527 5.816-1.937 8.206zm9.695.036 9.043.023-.11-28.555a4.124 4.124 0 0 1-.355-.383c-2.879.825-6.3.102-8.73-2.054-.07.066-.137.137-.203.203-.133.133-.262.27-.387.41.016 1.578.027 3.149.043 4.719.082 8.43.164 17.058.7 25.637zm10.278.027c58.57.176 149.214.402 150.52.406 3.44.043 6.878.078 10.315.09 2.852.016 5.715.05 8.579.102-.457-1.047-.649-2.223-.746-3.204a55.381 55.381 0 0 1 2.269-22.437c.07-.227.145-.438.223-.645-1.29-5.558-2.89-11.035-4.532-16.668-1.761-6.007-3.574-12.218-4.976-18.578-.434-1.96-.926-4.195-1.27-6.508-5.273 7.399-12.379 13.098-18.77 17.762-16.917 12.348-32.491 19.531-47.62 21.965-9.844 1.582-19.032.418-27.504-1.078-7.754-1.363-15.137-5.082-21.332-8.54-10.61-5.921-19.89-14.378-26.785-21.085-1.887-1.84-3.739-3.82-5.524-5.742-4.039-4.336-8.172-8.774-13.137-11.922l.036 8.379c.996.328 1.976.73 2.925 1.199.254.125.391.402.332.68-.144.691-.644 1.234-1.367 1.492a3.013 3.013 0 0 1-1.883.027l.051 11.836a6.398 6.398 0 0 1 2.051 1.762.619.619 0 0 1-.234.937 12.99 12.99 0 0 1-1.809.657l.055 13.566c1.426.43 2.562 1.262 3.218 2.375.543.926.684 2.11.375 3.168-.257.914-.828 1.633-1.593 2.027a2.528 2.528 0 0 1-1.973.16zm170.812.625c.543.012 1.09.023 1.633.031 1.472-2.207 1.555-5.344 1.398-8.226-.285-5.446-1.07-10.625-2.148-15.711a54.232 54.232 0 0 0-1.805 20.543c.16 1.48.457 2.586.922 3.363zm3.055.066c1.37.028 2.734.067 4.097.102a6.952 6.952 0 0 1-.062-.86 36.882 36.882 0 0 1 3.746-16.796 47.218 47.218 0 0 0-2.969-8.2c-.61-1.277-1.89-3.425-3.61-3.238-1.058.102-1.944 1.016-2.632 2.719 1.324 5.8 2.316 11.758 2.64 17.945.15 2.836.079 5.914-1.21 8.328zm5.351.133c.953.031 1.907.059 2.856.09.754-1.629 1.117-3.77 1.09-6.473a46.69 46.69 0 0 0-1.051-9.363 35.666 35.666 0 0 0-2.977 14.832c.004.313.035.621.082.914zm4.18.129c2.07.063 4.125.129 6.176.2 0-.012-.004-.028-.004-.036-.367-2.746.582-4.668 2.035-6.934a36.989 36.989 0 0 0-5.031-10.187c-.258-.371-1.625-2.191-2.774-1.645-.36.168-.625.54-.84.934a48.215 48.215 0 0 1 1.438 11.145c.027 2.632-.3 4.8-1 6.523zm7.434.238c.382.016.761.032 1.136.04.41-1.09.649-3.055.547-3.575a38.745 38.745 0 0 0-.445-1.883c-.996 1.692-1.547 3.184-1.278 5.18.012.074.024.164.04.238zm2.425.082c.414.016.825.032 1.239.043 2.539.09 5.082.176 7.625.262a4.632 4.632 0 0 1 1.964-2.04c-.914-2.972-3.718-5.585-6.777-6.62-1.16-.395-2.008-.453-2.672-.188-.73.293-1.27 1.008-1.652 1.602-.012.008-.02.023-.031.039.3.996.554 2.012.773 3.027.074.387.027 2.348-.469 3.875zm10.274.348c.285.012.574.016.863.023a7.32 7.32 0 0 0-.039-.824c-.32.219-.598.492-.824.801zm2.09.062c2.336.07 4.683.079 7.027.07-2.414-.917-5.106-1.792-7.129-1.425.074.445.11.902.102 1.355zm-269.88.094c1.43.188 2.9.09 4.216-.277.425-.117.843-.258 1.257-.414a45.975 45.975 0 0 0-4.222.41c-.414.062-.852.137-1.25.281zM57.204 218.56c.008 1.894.25 3.718.918 5.394.258.649.715 1.469 1.438 1.723.636.23 1.105.254 1.257.07.489-.598-.336-3.121-1.132-4.45a9.578 9.578 0 0 0-2.48-2.737zm302.137 2.168c-.149.539-.297 1.078-.442 1.617-.187.683-.671 2.793.204 3.687.785-1.281.582-3.125.32-4.777l-.082-.527zm416.648 4.394c.008.016.016.031.028.05.332.665.714.84.968.884.278-.266.54-.559.774-.88-.594-.019-1.18-.038-1.77-.054zm23.41.766c-.039.25-.027.52.059.789l1.098-.414c.03-.11.058-.223.082-.332-.414-.016-.824-.032-1.239-.043zm-540.5-32.012c-1.113 9.129-2.222 18.543-2.222 27.836 0 4.164.969 6.226 1.62 6.598.138.074.243.074.388-.012.933-.559 2.472-4.047 2.28-13.567-.14-6.898-1.023-13.925-2.066-20.855zm557.18 32.066c5.04 1.446 9.863 2.27 14.39 2.457 6.962.297 9.977-.554 10.43-1.363.043-.074.164-.297-.18-.812-1.515-2.27-8.577-1.348-12.792-.801-1.64.219-3.059.402-3.98.406a744.683 744.683 0 0 0-7.868.113zm-285.098-.086c-.128.36-.125.72-.093.946.07.605.363 1.21.785 1.633.937.93 2.336 1.277 3.71 1.52 7.802 1.358 16.223-.11 23.098-4.04a31.054 31.054 0 0 0 2.688-1.742c-6.898-.024-11.52-.047-13.012-.059-.84-.008-1.683-.023-2.527-.039a208.775 208.775 0 0 0-4.957-.031c-1.262.719-2.59 1.3-3.988 1.691-1.778.5-3.809.547-5.704.121zm-96.808-6.73c-.14.332-.277.66-.418.988-2.004 4.903-2.594 9.227-1.738 12.86 1.195-.758 1.879-2.528 2.035-5.29.156-2.843.195-5.695.12-8.558zm-340.985.773c-.519 1.848-1.003 3.641-1.445 5.438-.066.293-.172.668-.297 1.098-.543 1.918-1.547 5.484-.61 6.972.24.367.571.582 1.056.664.77.125 1.343-.027 1.757-.472 1.012-1.082 1.75-4.34-.46-13.7zm80.235-3.578c-.766 4.36-1.36 8.793-1.336 13.227.012 1.824.328 4.094 1.726 5.082 1.57-3.281 1.012-7.336.52-10.934-.336-2.445-.64-4.898-.91-7.375zm412.773 7.934c.235 3.492.547 6.976.973 10.434l.027.21c.344 2.813.72 5.88.258 8.739 2.914-.274 5.848-.477 8.758-.434-.965-6.062-1.027-12.844-1.047-18.926-3.09-.007-6.082-.011-8.969-.023zm11.52 20.234c.238.95.61 1.95 1.265 2.719 1.907 2.258 6.633 2.379 9.165 1.922 1.37-.246 1.757-.637 1.773-.832.035-.484-1.152-1.57-3.164-2.238-2.93-.973-5.961-1.426-9.04-1.57zm-11.848.547c-.867.09-1.734.184-2.597.281l-.172.016c-1.668.184-3.555.387-4.989 1.36-.992.68-1.504 1.351-1.398 1.831.113.508.906.965 1.98 1.149 2.051.344 4.871-.309 6.235-2.543a9.227 9.227 0 0 0 .941-2.094zm-6.133 5.957a7.44 7.44 0 0 1-1.242-.101c-1.64-.278-2.758-1.059-2.984-2.102-.16-.719.043-1.848 1.906-3.117 1.688-1.149 3.828-1.383 5.555-1.567l.164-.02c1.012-.108 2.031-.222 3.05-.323.524-2.735.153-5.762-.214-8.715l-.024-.211c-.43-3.508-.75-7.04-.988-10.586-3.293-.012-6.437-.02-9.398-.031-.028.035-.051.062-.082.097a.613.613 0 0 1-.73.157 3.106 3.106 0 0 1-.462-.258c-3.515-.008-6.773-.024-9.703-.031a.618.618 0 0 1-.293.18.603.603 0 0 1-.61-.169c-.003-.004-.011-.007-.019-.02h-.472a30.325 30.325 0 0 1-4.098 2.81c-7.117 4.074-15.836 5.6-23.918 4.183-1.496-.258-3.188-.684-4.367-1.856a4.039 4.039 0 0 1-1.145-2.359c-.062-.512-.015-1 .13-1.441-2.216-.762-4.122-2.23-5.048-4.457-.687-1.664-.738-3.512-.781-5.145l-.133-5.14c-.328-12.153-.664-24.711-.062-37.09-.633-.114-1.192-.453-1.7-.758-1.625-.969-4.695-2.524-7.949-2.527h-.02c-1.949 0-4.062.699-6.097 1.375a58.3 58.3 0 0 1-2.191.699c-.43.125-.989.285-1.579.316.024.371.032.73.036 1.047.043 3.918-.043 7.887-.121 11.734-.086 4.047-.176 8.23-.11 12.329.008.843.024 1.804-.383 2.69-.343.755-.91 1.298-1.46 1.83-.184.175-.36.347-.536.526a6.306 6.306 0 0 0-.812 1.067c.316.847.601 1.726.742 2.648.273 1.899-.234 3.656-1.36 4.703a.605.605 0 0 1-.542.157.608.608 0 0 1-.438-.352c-1.043-2.289-.906-5.027.234-7.254-.03-.082-.062-.164-.093-.242-.125-.328-.258-.656-.371-.977-1.082-2.933-1.422-6-1.754-8.96-.297-2.61-.598-5.313-1.41-7.88l-.086-.285c-.024-.074-.047-.152-.075-.222-.21.289-.441.59-.671.89-.688.895-1.415 1.852-1.856 2.754-.016.91-.047 1.817-.082 2.715a.618.618 0 0 1-1.14.3c-.641-1.042-.5-2.171-.008-3.292.066-3.465.015-7-.04-10.45a466.06 466.06 0 0 1-.066-6.988l.137-8.652c.012-.574.07-1.215.129-1.887.136-1.62.293-3.453-.223-4.68-.45-1.07-1.152-1.292-2.133-1.597-.761-.242-1.629-.508-2.37-1.27-.575-.59-.864-1.324-1.134-2.093a64.593 64.593 0 0 1-.73-2.172c-.688 2.355-2.098 5.058-5.012 5.719-.176.039-.36.074-.543.105-.515.086-1.008.176-1.277.461-.32.328-.348.918-.352 1.559l-.261 36.058a.615.615 0 0 1-.563.61c-.574.054-1.16-.125-1.644-.477-.188 4.516-.168 9.059.062 13.582.27.215.524.441.77.688 1.316 1.312 1.957 3.468 1.558 5.238-.281 1.238-1.031 2.129-2.125 2.515a.615.615 0 0 1-.535-.062.61.61 0 0 1-.285-.453c-.258-2.418-.45-4.852-.582-7.281-.75-.532-1.582-.977-2.445-1.438-1.075-.57-2.18-1.164-3.16-1.95a9.603 9.603 0 0 1-1.946-2.148c-.539 1.922-1.48 3.72-2.785 5.211-1.352 1.532-2.875 2.457-4.402 2.684-2.852.406-5.262-1.465-7.188-3.633-.754 2.434-2.508 5.13-5.285 8.121-.39.418-1.215 1.305-2.274 1.168-1.07-.137-1.656-1.199-1.902-1.652-1.27-2.32-2.598-4.844-3.531-7.371-1.024 2.832-2.266 5.527-3.477 8.156-.336.734-.675 1.473-1.015 2.223.191 3.734.187 7.472-.028 11.203-.207 3.75-1.379 5.992-3.48 6.672a.625.625 0 0 1-.785-.414c-1.18-4.047-.645-8.883 1.605-14.371.465-1.13.945-2.235 1.442-3.329a105.595 105.595 0 0 0-1.407-12.324c-.113-.625-.218-1.394-.34-2.254-.601-4.34-1.609-11.613-5.16-13.129-1.375-.582-2.953-.03-3.968.672a6.63 6.63 0 0 0-.387.29c.035 1.027.074 2.058.113 3.09.125 3.374.063 6.878-2.172 9.284a.616.616 0 0 1-1-.136c-2.324-4.582-1.539-9.762 1.801-12.793-.344-9.196-.68-18.52-.973-27.91-.93.593-2 .898-2.964 1.14a46.72 46.72 0 0 1-17.25.98c-2.329-.316-5.313-.886-7.77-2.578a9.64 9.64 0 0 1-.71-.535c-1.852 2.575-1.817 6.012-1.778 9.344.004.582.008 1.148.008 1.707-.04 4.969-.157 10.7-1.102 16.34 1.473 2.121 2.645 4.664 1.14 6.726a.628.628 0 0 1-.706.22c-2.774-.981-2.133-4.49-1.79-6.372.016-.09.036-.183.047-.273a35.574 35.574 0 0 0-1.425-1.809l-.38-.469a39.175 39.175 0 0 1-5.324-8.691c-1.117 2.375-2.53 4.504-4.039 6.004-.941.941-1.98 1.793-2.988 2.62-1.793 1.466-3.492 2.845-4.676 4.688-1.761 2.747-2.117 6.239-2.23 8.98-.008.2-.024.442-.043.716.078.07.144.148.215.222 2.437 2.754 2.594 7.313.328 9.954a.617.617 0 0 1-.852.078c-1.488-1.188-1.32-5.153-.988-9.473a2.095 2.095 0 0 0-.371.352c-2.152 2.554-2.645 5.906-3.117 9.148l-.102.66c-.344 2.297-.898 4.586-1.496 6.828.117 1.164.258 2.313.442 3.446.335 2.129.566 4.546-.946 6.226a.616.616 0 0 1-.71.149c-1.563-.7-2.028-2.672-1.282-5.418.188-.7.387-1.407.582-2.11.223-.789.445-1.594.66-2.394-.246-2.492-.375-5.016-.5-7.48-.289-5.509-.582-11.196-2.137-16.387-.277-.934-.917-1.98-1.875-2.13-.699-.113-1.367.313-1.796.891.191 1.453.23 2.914-.137 4.367a.618.618 0 0 1-.582.47c-.266-.028-.52-.169-.602-.434-.527-1.657-.593-2.957-.21-4.098a3.66 3.66 0 0 1 .242-.574c-.118-.801-.29-1.602-.454-2.399-.086-.418-.175-.84-.253-1.254-1.56-8.039-.715-16.25.105-24.183.02-.2.043-.414.078-.64-2.574.093-5.21-1.161-6.922-2.915-1.969-2.023-2.816-4.457-3.636-6.805-.204-.578-.403-1.164-.63-1.746a67.74 67.74 0 0 0-1.574 5.446c.137.914.247 1.797.352 2.644.082.695.2 1.426.312 2.168.399 2.5.84 5.332.243 7.774-.25 1.035-.844 1.746-1.618 1.953-1.117.3-2.171-.563-2.507-1.535-.63-1.766.007-4.348.515-6.422.149-.602.29-1.172.38-1.66.343-1.782.695-3.434 1.07-4.985-.282-1.95-.645-4.02-1.145-6.09-2.406 5.117-5.723 10.153-12.492 10.942.21 6.164.265 12.418.148 18.601-.008.54-.012 1.086-.02 1.63 2.368 5.679 2.88 9.417 1.567 11.401-.621.946-1.25 1.31-1.875 1.083-1.555-.575-1.254-4.922-1.246-4.965.277-2.305.297-4.715.316-7.047v-.23c-.097-.231-.191-.465-.296-.7-.915-2.09-2.06-4.203-3.165-6.254-1.828-3.363-3.687-6.804-4.742-10.465l-.11 1.817c.294.777.602 1.547.903 2.304.692 1.711 1.403 3.489 1.89 5.325.384 1.472 1.509 6.437-.21 8.644-.547.703-1.133 1.008-1.762 1.02-.644-.016-1.254-.438-1.8-1.246-1.169-1.723-.946-4.786-.786-7.02l.051-.805.469-8.03a33.209 33.209 0 0 1-.723-2.184c-1.52-5.239-1.3-10.79-1.09-16.16l.032-.887a391.895 391.895 0 0 0-1.493-52.016c-.12-1.273-.183-2.558-.039-3.73-5.476.754-11.757-2.313-14.496-7.258a19.407 19.407 0 0 1-1.004-2.117c-.418 1.605-.902 3.156-1.336 4.558-.21.672-.406 1.313-.586 1.91l-.308 1.04c-.516 1.738-1.043 3.5-1.504 5.269 1.113 4.191 2.074 8.508 2.289 12.984.125 2.641-.719 4.43-2.313 4.907a.625.625 0 0 1-.605-.141c-1.016-.957-1.617-2.348-1.887-4.379-.613-4.55.118-9.008 1.239-13.367-.32-1.2-.657-2.395-.985-3.574-.613-2.192-1.238-4.43-1.785-6.703-.773 1.613-1.824 3.097-3.266 4.37-3.062 2.704-6.875 4.536-10.738 5.165-.191.035-.398.07-.625.12-.613.126-1.32.266-2.012.274.747 8.567.704 17.188.664 25.535-.003 1.633-.011 3.266-.011 4.907-.004 2.406.07 4.875.144 7.265.196 6.485.399 13.192-.898 19.684-.297 1.504-1.664 2.879-3.48 3.504-1.212.414-2.399.433-3.395.094-.047 2.464-.309 4.921-.563 7.32-.21 1.992-.433 4.054-.52 6.074-.284 6.465-1.003 13-1.765 19.39 1.317 8.36 2.574 16.938 2.746 25.36.164 8-.914 13.477-2.882 14.652a1.566 1.566 0 0 1-1.63.024c-1.382-.79-2.242-3.723-2.242-7.672 0-9.664 1.192-19.426 2.34-28.867.14-1.156.281-2.309.418-3.473-.117-.781-.246-1.562-.37-2.34-.997-6.281-2.028-12.781-2.626-19.164-1.371-14.586-1.058-29.754-.758-44.418.13-6.195.262-12.605.262-18.84 0-4.199.031-8.402.066-12.605.063-7.844.125-15.961-.039-23.89 0-.044 0-.094-.004-.15-1.644-.312-3.14-1.288-4.601-2.234-1.012-.656-1.969-1.277-2.945-1.668-3.266-1.308-7.118-2.601-10.942-2.308-5.926.465-10.617 2.8-14.043 4.508-.773.383-1.48.734-2.125 1.027.34.875.352 1.988.36 2.984.004.391.011.762.035 1.082.16 2.067.078 4.07-.004 6.008-.059 1.305-.117 2.657-.098 4.02.07 5.226-.012 10.449-.105 15.312l-.098 4.676c-.184 8.29-.371 16.86-.066 25.274.379.382.699.84.914 1.34.433 1.015.402 2.097-.094 2.953-.11.183-.3.3-.508.308a.603.603 0 0 1-.535-.262c-.79-1.144-.934-2.582-.988-3.75a2.57 2.57 0 0 0-.88-.421c-1.683-.41-3.417.632-4.378 1.847-1.496 1.887-2.57 4.356-3.414 7.047.39 3.285.515 6.711.625 9.785.05 1.336.094 2.598.156 3.73.188 3.2-.86 3.84-1.496 3.938-1.113.172-2.188-1.105-2.723-3.258-.601-2.425.036-5.375.551-7.746l.117-.558c.438-2.02.918-4.063 1.512-6.004-.441-3.559-1.207-6.903-2.633-9.332-.777-1.32-2.18-2.145-3.66-3.024-1.324-.781-2.695-1.586-3.687-2.808a14.976 14.976 0 0 1-.368-.47c-1.472 3.337-4.863 6.255-8.617 5.427a3.953 3.953 0 0 1-1.558-.75c-.098 1.816-.286 3.61-.473 5.37-.18 1.704-.36 3.466-.453 5.188l-.047.856c-.125 2.41-.258 4.906-.805 7.328-.011.047-.922 3.629-2.203 5.008-.082.613-.168 1.222-.258 1.82-.175 1.215-.36 2.465-.465 3.711-.234 2.71-1.082 5.16-2.523 7.289-.437.64-.977 1.063-1.566 1.242-.477 13.899-1.672 27.176-3.567 39.48-.445 2.88-1.008 5.786-1.558 8.594-.102.5-.196 1-.293 1.504.367 3.88.808 7.707 1.332 11.5.547 3.989 1.168 8.516-.953 12.25a.623.623 0 0 1-.774.266c-1.93-.813-2.96-3.055-2.976-6.484-.028-5.961 1.011-11.856 2.125-17.59-1.196-12.621-1.579-25.746-1.18-39.785.117-4.067.25-8.133.387-12.204.39-11.507.789-23.41.664-35.113-.063-5.851-.328-11.84-.578-17.633-.36-8.273-.735-16.777-.543-25.164a6.18 6.18 0 0 1-.692.196c-6.234 1.425-16.555-5.59-20.441-8.235-2.106-1.433-5.156-3.676-7.778-6.285.012 1.43 0 2.856-.015 4.254-.02 1.691-.035 3.387-.004 5.078.11 6.07.137 12.086.164 18.219a1827.93 1827.93 0 0 1-.207 34.613c-.066 3.95-.074 7.895-.082 11.844-.016 6.793-.031 13.816-.328 20.726-.094 2-.371 4.204-.727 6.54.84 4.117.973 8.464 1.09 12.46.027.73.05 1.458.074 2.168.02.524.047 1.079.078 1.653.172 3.312.383 7.449-1.023 10.25a.617.617 0 0 1-.535.336c-.227-.028-.446-.117-.555-.313-3.586-6.379-2.11-15.644-.809-23.82.149-.926.293-1.836.43-2.73-.41-1.93-.988-3.794-1.812-5.547-.86-1.825-2.38-4.114-4.75-4.672-1.422-.336-2.614 0-3.543.55-.024 1.454-.059 2.899-.094 4.348-.063 2.266-.36 4.531-2.129 5.738a.658.658 0 0 1-.332.11c-.977.004-1.719-.434-2.14-1.29-.958-1.906-.114-5.503 1.878-8.019a8.439 8.439 0 0 1 1.59-1.562c.14-9.145.008-18.36-.398-27.465a452.37 452.37 0 0 0-1.004-16.203c-.07-.887-.086-1.887-.102-2.95-.05-3.3-.11-7.035-1.793-9.101a53.703 53.703 0 0 0-.722-.848c-.848-.984-1.817-2.105-2.274-3.273-1.062.805-2.59 1.226-3.988 1.344a38.44 38.44 0 0 1-14.129-1.442 6.463 6.463 0 0 1-1.637-.738c-.343 2-1.613 3.82-2.847 5.605-1.114 1.606-2.27 3.266-2.723 5.028-.39 1.492-.281 3.12-.18 4.699 1.164 17.566 1.653 41.379 1.254 60.68-.055 2.59-.062 5.222-.074 7.875-.023 5.816-.047 11.84-.547 17.547-.516 5.886-2.258 11.968-3.941 17.847l-.035.137c.113.527.23 1.055.351 1.582l.106.45c1.937 8.155 2.003 13.058.195 14.987-.707.762-1.672 1.047-2.863.844-.829-.14-1.47-.55-1.887-1.215-1.234-1.96-.215-5.574.46-7.968.118-.415.22-.778.29-1.063.61-2.508 1.351-5.121 2.078-7.664a124.761 124.761 0 0 1-2.629-20.813c-.012-.375.02-.957.07-1.683.11-1.742.293-4.629-.265-6.379a2.361 2.361 0 0 1-1.34.922c-.836.215-1.773-.219-2.277-1.043-.434-.715-.399-1.504.093-2.066a.629.629 0 0 1 .227-.16c.976-.415 1.836-.497 2.555-.262-.27-.856-.93-1.61-1.641-2.356-1.23-1.305-2.707-2.613-4.285-3.996-3.113-2.746-6.445-5.684-8.383-9.09-.61.914-1.32 1.828-2.137 2.738-1.816 2.02-3.902 4.079-6.379 6.297-.566.508-1.187.985-1.793 1.446-1.16.886-2.359 1.808-3.156 2.965-.578.847-1.035 2.085-.777 3.242.86-.543 1.984-1.032 2.789-.575.539.301.789.903.754 1.782-.063 1.476-.832 1.844-1.285 1.937-.891.172-1.93-.469-2.606-1.21-.66.89-.601 1.98-.535 3.355.027.465.05.941.05 1.433-.01 4.2-.308 6.196-.679 8.727a95.446 95.446 0 0 0-.695 5.445c-.117 1.121-.274 2.29-.442 3.485-.261 1.851-.527 3.734-.617 5.566 1.434.922 2.645 2.14 3.504 3.578.024.043 2.371 4.211 1.027 5.867-.523.637-1.406.746-2.62.317-.934-.328-1.669-1.149-2.176-2.43-.825-2.07-1.051-4.344-.997-6.64a11.268 11.268 0 0 0-4.246-1.333c-4.351-.468-8.632 1.172-12.25 2.844-.82.38-1.632.766-2.441 1.16-3.11 1.496-6.32 3.043-9.773 3.774-4.883 1.043-9.782.426-14.52-.172-3.777-.484-7.676-.977-11.492-.602-.344.016-.645-.218-.676-.554a.616.616 0 0 1 .555-.676c3.953-.387 7.925.117 11.765.605 4.641.586 9.43 1.192 14.114.196 3.3-.707 6.449-2.223 9.492-3.684.816-.394 1.637-.785 2.46-1.168 3.77-1.742 8.25-3.453 12.903-2.953 1.484.164 2.895.574 4.18 1.203.113-1.719.355-3.437.582-5.066.164-1.184.328-2.332.437-3.438.239-2.387.485-4.047.7-5.508.37-2.48.66-4.441.671-8.543 0-.472-.023-.925-.043-1.363-.082-1.578-.168-3.207 1.075-4.527-.547-1.442-.25-3.246.797-4.774.906-1.32 2.187-2.3 3.425-3.246.61-.469 1.188-.906 1.715-1.387 2.445-2.187 4.5-4.214 6.29-6.203.952-1.062 1.753-2.125 2.398-3.195-1.235-2.77-1.485-5.851.03-9.379.102-.238.29-.676.704-.937.73-.473 1.703-.09 2.14.566.391.578.43 1.281.458 1.75.16 2.774-.47 5.43-1.914 8.024 1.761 3.539 5.222 6.585 8.437 9.425 1.59 1.403 3.094 2.73 4.363 4.067.868.922 1.735 1.922 2.016 3.195.07.332.09.684.055 1.035 1.304 1.856 1.07 5.516.906 8.05-.035.661-.074 1.24-.063 1.556.258 6.125.97 12.254 2.13 18.277 1.453-5.145 2.84-10.402 3.28-15.461.5-5.66.52-11.652.547-17.45.008-2.652.016-5.292.07-7.894.4-19.265-.089-43.039-1.25-60.558-.109-1.684-.226-3.418.216-5.106.511-1.972 1.73-3.726 2.906-5.418 1.43-2.066 2.797-4.035 2.715-6.152a2.03 2.03 0 0 1-.145-1.211c.051-.285.297-.5.586-.508.29 0 .55.188.621.469.074.305.121.598.153.89.363.563 1.289.977 1.918 1.165a37.073 37.073 0 0 0 13.671 1.394c1.2-.101 3.036-.547 3.825-1.562.023-.485.172-.965.48-1.45a.608.608 0 0 1 .688-.254.61.61 0 0 1 .449.583 2.898 2.898 0 0 1-.371 1.476c.117 1.02 1.031 2.168 2.234 3.563.258.296.508.586.742.87 1.957 2.4 2.02 6.368 2.07 9.864.016 1.043.032 2.027.098 2.871.43 5.395.77 10.863 1.008 16.246a463.39 463.39 0 0 1 .41 26.781c1.192-.53 2.48-.656 3.809-.34 2.847.672 4.61 3.278 5.582 5.348.441.942.82 1.922 1.133 2.918a46.01 46.01 0 0 0 .304-3.437c.297-6.887.313-13.899.328-20.684.008-3.95.02-7.902.083-11.855.175-11.496.25-23.13.207-34.59-.028-6.133-.055-12.137-.165-18.203-.03-1.703-.015-3.41.004-5.114.02-1.84.04-3.726-.004-5.597-1.082-1.262-2.464-3.157-2.027-4.117.117-.239.43-.641 1.223-.583 1.133.086 1.887 1.215 1.976 2.95.02.418.032.84.047 1.258.293.34.57.64.797.867 2.578 2.582 5.613 4.828 7.711 6.246 3.402 2.316 13.758 9.367 19.473 8.058.36-.086.695-.199.996-.343.035-1.008.074-2.016.12-3.024.017-.293.036-.687.25-1.054.263-.438.743-.7 1.302-.665.648.02 1.27.399 1.55.946.375.742.274 1.71-.277 2.66-.453.773-1.031 1.402-1.73 1.867-.223 8.555.16 17.27.53 25.727.25 5.804.517 11.8.579 17.675.125 11.73-.273 23.649-.664 35.172-.137 4.063-.27 8.13-.387 12.192-.351 12.406-.09 24.086.801 35.34.371-1.93.723-3.883 1.023-5.82 1.883-12.239 3.075-25.442 3.551-39.282-.015-.004-.027-.004-.043-.008-1.27-.36-2.207-1.699-2.281-3.262-.031-.746.242-1.761.922-2.25.418-.304.934-.363 1.45-.164 1.335.52 1.288 2.332 1.269 3.11-.016.39-.024.781-.04 1.172.204-.153.372-.356.505-.543 1.324-1.95 2.101-4.203 2.312-6.696.11-1.285.293-2.554.473-3.785.058-.383.113-.77.168-1.168-.41-.136-.727-.558-.946-1.25-.172-.554-.152-1.183.067-1.886.12-.383.441-.91.933-1.114.293-.12.61-.105.895.043.305.16.496.434.574.817.352-.875.656-1.793.785-2.368.531-2.316.656-4.757.781-7.125l.043-.851c.098-1.754.286-3.527.465-5.25.227-2.176.457-4.406.516-6.64a3.372 3.372 0 0 1-.207-.454c-.406-1.043-.309-2.11.27-2.93a.616.616 0 0 1 .675-.242.62.62 0 0 1 .442.563c.058.91.078 1.828.058 2.738.426.629 1.074 1.11 1.766 1.262 3.293.722 6.285-2.145 7.433-5.211.028-.082.055-.172.09-.254-1.77-2.957-2.57-6.602-2.176-10.102.211-1.8 1.016-2.39 1.657-2.558.476-.13.968-.055 1.422.226.586.364 1.05 1.04 1.203 1.762.707 3.316.445 6.934-.746 10.52.246.379.511.742.797 1.09.847 1.05 2.062 1.769 3.355 2.527 1.55.918 3.156 1.863 4.09 3.46 1.199 2.032 1.953 4.622 2.445 7.43.754-1.937 1.672-3.71 2.832-5.171 1.207-1.532 3.426-2.817 5.645-2.278.175.043.355.102.53.172-.26-8.156-.077-16.434.095-24.441l.097-4.676c.098-4.856.18-10.067.106-15.274-.02-1.394.039-2.765.097-4.085.086-1.993.165-3.872.008-5.86-.027-.351-.031-.754-.039-1.172-.004-.879-.012-1.863-.27-2.52a3.546 3.546 0 0 1-.242.083c-1.367.46-1.937-.29-2.074-.524a1.413 1.413 0 0 1 .239-1.715c.394-.37 1.12-.55 1.972.043.223.157.426.344.613.575.66-.293 1.403-.664 2.211-1.067 3.516-1.75 8.332-4.148 14.493-4.633 4.082-.328 8.105 1.028 11.504 2.391 1.09.438 2.14 1.125 3.16 1.785 1.382.899 2.71 1.762 4.09 2.04.109-.31.289-.606.582-.844.554-.438 1.332-.293 1.78.066.427.355.56.879.325 1.352-.219.44-.672.69-1.348.746-.093.004-.18.007-.265.007v.024c.164 7.95.101 16.07.039 23.926-.035 4.195-.067 8.398-.067 12.593 0 6.246-.132 12.664-.261 18.871-.301 14.63-.61 29.758.75 44.274.53 5.668 1.41 11.441 2.3 17.078.555-4.96 1.032-9.969 1.25-14.93.086-2.054.313-4.14.524-6.156.281-2.59.566-5.254.57-7.898-1.351-1.207-1.625-3.446-.594-4.938a.656.656 0 0 1 .485-.265.65.65 0 0 1 .5.226c.582.707.695 1.61.75 2.402.05.645.078 1.293.09 1.942.78.433 1.86.472 2.988.082 1.406-.484 2.457-1.496 2.676-2.578 1.265-6.348 1.062-12.985.867-19.403-.074-2.402-.149-4.882-.145-7.304 0-1.64.008-3.278.016-4.907.035-8.414.082-17.105-.687-25.707a2.187 2.187 0 0 1-1.02-.73c-.012-.016-1.121-1.555-.555-2.363.114-.16.453-.512 1.172-.282 1.098.356 1.422 1.559 1.531 2.317.598.008 1.309-.137 1.891-.25.242-.05.469-.094.676-.125 3.633-.594 7.226-2.324 10.117-4.875 1.727-1.524 2.848-3.36 3.617-5.496a95.36 95.36 0 0 1-.215-1.024c-.68-3.414-1.238-7.851.442-11.816a.614.614 0 0 1 .437-.363c.2-.043.399.011.551.144 1.688 1.543 1.668 4.02 1.426 6.246-.254 2.324-.625 4.676-1.371 6.871.625 2.832 1.406 5.637 2.168 8.364.144.515.289 1.035.433 1.558.313-1.101.64-2.195.965-3.281l.305-1.035c.18-.602.383-1.25.59-1.926.597-1.914 1.28-4.105 1.761-6.328-.472-1.512-.832-3.047-1.183-4.555l-.07-.308c-.41-1.704-1.09-4.563 1.082-5.77a.64.64 0 0 1 .472-.047c.16.047.297.156.371.305 1.54 2.933 1.348 6.672.598 10.312.414 1.282.918 2.543 1.566 3.72 2.582 4.655 8.586 7.484 13.684 6.562.277-.918.746-1.739 1.504-2.383a.613.613 0 0 1 .488-.14c.621.085 1.024.507 1.059 1.09.047.968-.953 2.19-2.04 2.476-.222 1.207-.136 2.574-.007 3.859a393.076 393.076 0 0 1 1.492 52.18l-.031.894c-.196 4.934-.39 10.031.789 14.809l.312-5.41a.608.608 0 0 1 .657-.578.61.61 0 0 1 .578.648c-.352 6.027 2.586 11.453 5.43 16.695.816 1.512 1.656 3.067 2.417 4.633.086-5.848.032-11.754-.171-17.578-.668-.086-1.477-.313-1.915-.844a1.328 1.328 0 0 1-.242-1.25c.309-1.035 1.051-1.023 1.278-1 .773.102 1.558 1.055 1.91 1.887 6.87-.77 9.945-6.492 12.289-11.809a.607.607 0 0 1 .605-.367c.262.02.477.195.551.45.492 1.726.867 3.46 1.176 5.156.437-1.543.91-2.993 1.422-4.375a.622.622 0 0 1 .554-.403c.247.02.48.13.582.36.512 1.09.907 2.218 1.29 3.312.808 2.328 1.574 4.524 3.351 6.348 1.606 1.644 4.129 2.75 6.43 2.492.078-.145.164-.285.27-.414.366-.457.96-.762 1.546-.785.492-.031.93.148 1.25.48a.632.632 0 0 1 .164.496.637.637 0 0 1-.277.446 6.268 6.268 0 0 1-2.05.882c-.071.282-.106.598-.142.946-.808 7.847-1.648 15.96-.125 23.824.082.41.168.824.25 1.238.102.473.2.95.29 1.43.625-.484 1.406-.754 2.238-.625 1.289.203 2.36 1.324 2.863 2.996 1.594 5.332 1.895 11.102 2.184 16.676.066 1.246.129 2.512.21 3.773.231-1.039.434-2.086.59-3.129l.094-.66c.504-3.418 1.02-6.949 3.406-9.77.172-.21.684-.812 1.403-.847l.012-.254c.12-2.898.503-6.601 2.425-9.594 1.293-2.007 3.145-3.52 4.934-4.984.984-.8 2-1.637 2.894-2.535 1.618-1.606 3.137-4.04 4.25-6.7a39.379 39.379 0 0 1-1.707-5.44l-.035-.134c-.66-2.82-1.488-6.332 1.184-8.582a.615.615 0 0 1 .57-.117c1.211.356 2.219 1.477 2.63 2.922.92 3.242.226 7.508-1.302 11.363a38.043 38.043 0 0 0 5.606 9.473l.375.465c.234.281.488.586.742.914.77-5.172.875-10.402.906-14.977 0-.547-.004-1.109-.008-1.68-.039-3.44-.078-7.288 2.114-10.218-2.614-2.875-2.239-6.617-1.88-10.246l.094-.938c.184-1.937.407-4.304 1.934-6.254a3.863 3.863 0 0 1-.476-.468c-.207 1.09-.489 2.152-.903 3.117a.607.607 0 0 1-.672.36.619.619 0 0 1-.511-.56c-.067-.824.03-1.648.117-2.449l.062-.546c.168-1.665.485-4.79.89-8.95.036-.36.075-.73.114-1.101l.211-10.012c.164-7.582.324-15.156.477-22.73.054-2.602.117-5.2.18-7.793.163-7.032.331-14.297.331-21.442 0-9.449 1.672-11.629 3.536-13.176.703-.593 2.023-1.699 3.41-2.218.617-5.106 1.172-9.285 1.617-12.051 1.465-9.078 3.07-17.246 4.363-23.813.68-3.457 1.274-6.472 1.692-8.859-.301-2.02-.497-3.414-.54-3.91-.144-1.606.254-3.13.934-3.543a.8.8 0 0 1 .875-.004c.402.254.828.922.524 3.836-.102.93-.286 2.14-.536 3.594 1.618 10.746 6.184 39.32 7.489 45.09 1.71.746 3.504 2.195 4.757 3.59.872.972.875 3.175.793 5.75-.02.562-.03 1.046-.02 1.374.259 5.375.384 10.84.505 16.13.32 14.05.504 28.366.644 41.066.387 3.988.735 9.543.848 11.543.66 11.23.453 11.48.285 11.675-.187.22-.531.262-.75.172.09 3.742.192 7.477.301 11.203.144.137.281.293.398.473.559.906.301 2.012-.3 2.848.289 9.445.632 18.828.972 28.082 1.594-1 3.438-1.239 4.895-.621 4.195 1.789 5.226 9.195 5.906 14.097.113.84.223 1.598.328 2.211a107.408 107.408 0 0 1 1.274 10.168c.02-.047.035-.09.054-.133 1.48-3.21 2.899-6.285 3.965-9.586-.355-1.27-.59-2.53-.633-3.75-.058-1.484.496-2.57 1.48-2.894a.602.602 0 0 1 .618.133c1.09 1.023.844 2.683.563 3.847a37.49 37.49 0 0 1-.743 2.676c.88 2.938 2.461 5.965 3.965 8.711.246.45.578.969.969 1.02.398.05.84-.368 1.223-.782 2.976-3.21 4.707-6.007 5.21-8.441-.132-.172-.261-.336-.394-.508-.738-.957-1.297-2.484-.934-3.543a1.66 1.66 0 0 1 1.184-1.086c.285-.07.57.055.707.309.727 1.383.98 2.879.754 4.492 1.871 2.277 4.09 4.29 6.668 3.902 1.562-.226 2.851-1.359 3.656-2.277 1.477-1.68 2.438-3.8 2.813-6.023-.907-2.086-1.153-4.477-.567-6.668a.622.622 0 0 1 .567-.457.592.592 0 0 1 .609.398c.777 2.078.977 4.348.664 6.55.559 1.157 1.352 2.196 2.348 2.997.883.715 1.894 1.254 2.96 1.824.598.317 1.204.64 1.79.996-.223-4.941-.196-9.898.082-14.82 0-.09.004-.18.011-.266.04-.328.336-.554.672-.543a.62.62 0 0 1 .559.649c0 .062-.004.12-.008.183.004.313.152.641.402.907.141.144.305.261.473.332l.258-35.344c.004-.86.066-1.75.7-2.406.546-.575 1.288-.7 1.948-.817.16-.031.325-.058.485-.094 3.258-.742 4.261-5.035 4.547-6.964-1.125-4.016-1.711-7.649-1.758-10.844-.004-.223-.028-.508-.051-.82-.074-.918-.156-1.954.09-2.621.39-1.067 1.02-1.684 1.683-1.602.43.039.98.348 1.192 1.601.695 4.102.738 8.657.133 13.926-.008.09-.016.18-.032.278a70.925 70.925 0 0 0 1.375 4.289c.227.636.457 1.234.856 1.644.52.535 1.168.738 1.851.957 1.047.32 2.235.696 2.903 2.29.637 1.511.465 3.507.312 5.269a26.96 26.96 0 0 0-.12 1.8l-.137 8.65c0 2.288.03 4.62.066 6.956.039 2.754.082 5.566.066 8.367.278-.386.567-.761.84-1.125.48-.629.934-1.222 1.25-1.742-.098-.601-.113-1.226.05-1.848a.608.608 0 0 1 .353-.41.609.609 0 0 1 .539.024c.746.406.882 1.355.355 2.437.094.41.227.828.36 1.246l.093.278c.844 2.687 1.152 5.449 1.45 8.117.343 3.027.66 5.879 1.687 8.672.043.12.086.242.137.36.136-.185.293-.36.453-.528.187-.196.379-.383.578-.57.484-.47.95-.915 1.187-1.45.293-.637.282-1.414.274-2.16-.063-4.121.023-8.32.11-12.371.077-3.836.16-7.8.12-11.7-.004-.39-.011-.827-.058-1.261-.028-.012-.059-.023-.086-.039-.508-.238-.86-.633-1.004-1.121a1.736 1.736 0 0 1 .207-1.395.61.61 0 0 1 .414-.277.618.618 0 0 1 .488.117c.559.438.867 1.04 1.047 1.688h.012c.43 0 .918-.13 1.418-.274.695-.199 1.414-.437 2.14-.683 2.133-.703 4.34-1.438 6.489-1.438h.027c3.547.008 6.844 1.668 8.492 2.66.453.262.867.516 1.258.618.086-.407.27-.91.656-1.227.274-.23.614-.328.965-.277a.59.59 0 0 1 .434.273c.273.422.293.945.058 1.434-.203.41-.566.742-.984.93-.613 12.382-.27 24.976.058 37.163l.133 5.149c.043 1.594.09 3.242.692 4.699.808 1.961 2.543 3.234 4.554 3.863v-.004c.762-.77 1.829-.984 2.762-1.117 2.367-.351 4.766-.484 7.149-.512 3.304-1.94 6.175-4.863 8.976-7.71.836-.852 1.649-1.68 2.465-2.465.46-.45 1.547-1.504 2.797-1.125.52.152.89.511 1.172.902a33.583 33.583 0 0 1 2.976-8.844c.68-1.347 1.52-2 2.465-1.965.945.04 1.692.739 2.219 2.09a84.601 84.601 0 0 1 5.484-19.132c1.157-2.743 2.586-3.196 3.586-3.094.301.027.578.11.84.242.332-1.906.711-3.809 1.125-5.703.727-3.336 1.914-6.559 3.066-9.676l.606-1.664a12.541 12.541 0 0 1-.906-4.137c-.043-.851-.02-2.11.632-3.125.704-1.11 1.918-1.656 3.028-2.035.176-.793.34-1.586.5-2.379-.153-.914-.324-1.824-.5-2.738-.184-.961-.38-1.938-.54-2.93a14.46 14.46 0 0 1-2.527-1.5.616.616 0 0 1-.168-.8 5.8 5.8 0 0 1 2.211-2.2c-.07-2.812.426-5.527 2.16-7.785a.627.627 0 0 1 .434-.234c.488-.043.93.11 1.29.453.683.672.87 1.887.816 2.804a115.586 115.586 0 0 1-.282 3.665c1.434-.047 2.891.175 4.184.511 1.406.375 2.746.84 4.031 1.403.297-2.215 1.051-4.254 2.492-5.98a.614.614 0 0 1 .684-.188.616.616 0 0 1 .402.578l.028 5.703a.62.62 0 0 1 .395 1.047c-.138.14-.266.277-.391.402v.305c5.39 3.242 9.765 7.941 14.043 12.535 1.777 1.91 3.613 3.883 5.484 5.7 6.844 6.652 16.035 15.042 26.523 20.898 6.106 3.398 13.371 7.062 20.95 8.398 8.359 1.477 17.425 2.625 27.093 1.07 14.922-2.402 30.325-9.515 47.082-21.742 6.63-4.832 14.032-10.793 19.262-18.59a34.901 34.901 0 0 1-.203-3.601c.008-1.63.996-4.168 2.305-4.196.82.008 1.328.84 1.406 2.555.078 1.617-.688 3.098-1.531 4.457-.227.363-.461.73-.7 1.094.329 2.742.926 5.441 1.434 7.762 1.395 6.324 3.203 12.507 4.953 18.496 1.461 4.996 2.942 10.062 4.195 15.254.79-1.27 1.778-1.97 2.95-2.082 1.855-.172 3.535 1.183 4.84 3.937a48.212 48.212 0 0 1 2.757 7.348c.203-.211.442-.395.727-.524 1.351-.62 2.96.141 4.305 2.055a38.023 38.023 0 0 1 4.902 9.621c.433-.527.98-1.039 1.695-1.324 1.246-.504 2.61-.145 3.528.164 3.375 1.14 6.464 4.039 7.523 7.375 2.75-.523 6.164.812 9.176 1.988.55.215 1.086.422 1.586.61 1.445-.02 2.886-.043 4.308-.075 2.418-.043 4.832-.082 7.246-.097.844-.008 2.223-.184 3.829-.395 5.078-.66 12.03-1.566 13.972 1.34.637.945.477 1.664.235 2.098-1.122 2.004-6.907 2.191-11.555 1.996-5.457-.227-11.336-1.356-17.473-3.356-.25-.09-.504-.175-.773-.273-3.41.05-6.86.059-10.285-.035a8.042 8.042 0 0 1-.25.957.615.615 0 0 1-.368.383l-1.894.718a.624.624 0 0 1-.723-.226 2.855 2.855 0 0 1-.496-1.953l-7.312-.246-1.774-.059c-.183.25-.394.445-.64.562-.446.22-1.141.266-1.938-.656-2.422-.082-4.855-.156-7.297-.234a7.557 7.557 0 0 1-1.59 1.933.618.618 0 0 1-.394.157c-.95-.024-1.785-.547-2.305-1.578a5.626 5.626 0 0 1-.265-.641c-1.727-.05-3.457-.094-5.188-.133a6.778 6.778 0 0 1-.89.914.624.624 0 0 1-.669.09 3.859 3.859 0 0 1-1.343-1.062 677.43 677.43 0 0 0-9.328-.114c-3.442-.015-6.883-.05-10.32-.094-1.302-.003-91.938-.23-150.509-.406.02 6.371.082 12.926 1.07 18.957 3.282.13 6.524.602 9.677 1.649 2.07.683 4.109 2.031 4.007 3.5-.074.976-1.007 1.64-2.789 1.957-2.91.527-8.062.332-10.324-2.336-.89-1.051-1.336-2.371-1.598-3.567-3.07-.066-6.171.16-9.257.465a10.69 10.69 0 0 1-1.207 2.867c-1.387 2.286-3.997 3.22-6.243 3.22"/></g><path fill="#e6335d" d="M746.883 142.895c-.34.636-.637 2.37-.883 4.48.605-.68 1.102-1.352 1.355-2.113.293-.918.118-1.782-.472-2.367zm-1.297 8.921c4.3 1.004 7.355 1.946 9.934 4.274-.52-1.957-1.442-3.602-3.047-4.656-2.035-1.34-4.942-1.145-6.88.308-.003.024-.003.051-.007.074zm11.82 12.293c.824.157 1.696.395 2.41.739-.332-.653-.652-1.282-.949-1.887a28.213 28.213 0 0 0-1.523-2.734c.043.82.058 1.656.058 2.492 0 .46 0 .926.004 1.39zm-11.902-11.043c-.184 2.778-.258 5.18-.2 5.817.2 2.031.52 4.172 1.524 6.02.102.183.258.374.457.554 2.172-1.297 4.957-1.809 7.406-1.676a18.3 18.3 0 0 1 1.477.13v-1.192c0-1.508-.05-3-.227-4.414-2.62-3.09-5.66-4.118-10.437-5.239zm11.902 12.305c.008 1 .012 2.004.024 3.004 1.047-.094 1.828-.36 2.242-.79.27-.276.562-.667.453-.964-.203-.512-1.328-.953-2.719-1.25zm-9.008.875c1.57.89 4.008 1.703 6.36 2.02.508.07.988.113 1.437.125-.008-1.075-.02-2.149-.023-3.23a16.293 16.293 0 0 0-1.547-.15c-2.055-.109-4.363.27-6.227 1.235zm-1.16.723c-.738.558-1.355 1.246-1.773 2.07-1.707 3.309-1.504 7.461.5 10.32.414.59.867 1.086 1.355 1.5 1.172-1.601 2.684-2.808 4.364-3.406 1.367-.492 3.093-.476 4.671-.07-.062-2.578-.113-5.16-.144-7.754a16.094 16.094 0 0 1-1.621-.137c-2.57-.347-5.528-1.3-7.352-2.523zm10.395 12.219c.031 1.19.066 2.378.105 3.566.407-.031.86-.074 1.168-.262.332-.203.442-.55.477-.804a2.066 2.066 0 0 0-.508-1.59 4.525 4.525 0 0 0-1.242-.91zm-9.317 2.398c2.243 1.34 5.063 1.441 8.192 1.25a716.631 716.631 0 0 1-.125-4.156c-1.43-.43-3.07-.5-4.285-.063-1.442.516-2.754 1.563-3.782 2.969zm9.98 14.82.036.719a.96.96 0 0 0 .203-.297c.035-.101.028-.168-.031-.262a.553.553 0 0 0-.207-.16zm-10.644-13.789c-.336.598-.632 1.25-.867 1.942-.984 2.851-2.207 9.62.262 12.332.152.168.32.324.508.457.113-.121.226-.239.347-.352 1.293-1.191 3.055-1.598 4.27-1.805a20.95 20.95 0 0 1 4.82-.23 801.21 801.21 0 0 1-.445-10.887c-2.84.184-6.16.192-8.895-1.457zm1.032 15.34c2.304.883 5.754.55 8.445-.148-.027-.532-.05-1.075-.082-1.602a19.156 19.156 0 0 0-4.676.207c-1.676.277-2.832.758-3.629 1.488l-.058.055zm-123.817-14.332a4.417 4.417 0 0 0-.086.344c-.527 2.383-.687 4.55-.777 6.539-.246 5.422-.48 11.199-.418 16.941.008.93-.02 1.953-.05 3.028-.114 3.91-.25 8.734 1.609 11.765.554-.918 1.406-3.336 1.52-3.84.429-2.027.425-4.297.425-6.492a94.223 94.223 0 0 1 .008-2.11 168.05 168.05 0 0 0-.625-18.175c-.262-2.953-.801-5.621-1.606-8zm-10.496-6.816c-.066.433-.125.91-.168 1.421-.27 2.965-.121 6.543-.015 9.16.05 1.25.09 2.239.074 2.848a377.105 377.105 0 0 0 .02 23.407c.105 3.445.312 6.523 1.663 9.187 1.86-.543 2.114-3.95 2.149-4.664.636-13.973.523-29.137-3.723-41.36zm87.61 10.875c-.047.273-.09.55-.13.824a112.515 112.515 0 0 0-.359 30.844c.133 1.02.594 3.41 2.11 3.539 1.625.172 2.328-2.414 2.476-3.782 1.024-9.273.168-18.898-2.465-27.843-.46-1.575-.996-2.758-1.633-3.582zm17.812-5.504a300.439 300.439 0 0 0-.203 39.515c.043.77.195 1.196.46 1.305.298.125.774-.2 1.087-.555 1.656-1.882 1.832-4.632 1.879-7.285.125-8.164-.356-16.41-1.426-24.504-.363-2.742-.832-5.699-1.797-8.476zm-8.918 8.004c-.574 10.586-.695 22.05 1.46 32.18.15.698.33.788.38.804.305-.16.508-.606.574-1.07 1.61-10.61-.348-22.66-2.414-31.914zm-106.27-16.403c-.93 11.223-.843 22.582-.761 33.645l.035 5.312c.016 3.16.035 6.43.695 9.543.07.332.156.672.34.848.274.266.848.156 1.172-.125.437-.375.664-1 .848-1.617 1.136-3.875.89-7.715.632-11.782-.09-1.367-.18-2.738-.214-4.113-.164-6.738-.497-15.617-1.637-24.492-.32-2.504-.692-4.902-1.11-7.219zm89.239 17.86c-3.84 9.625-2.262 20.488-.082 31.703.27-.031.515-.137.75-.32.922-.704 1.472-2.419 1.605-3.797a87.454 87.454 0 0 0-.808-23.399c-.266-1.555-.637-3.098-1.465-4.187zm-9.035 4.984a32.568 32.568 0 0 0-.399 1.703 66.975 66.975 0 0 0-.789 22.977c.059.39.387 2.355 1.438 2.36h.004c1.027 0 1.41-1.88 1.476-2.263a52.114 52.114 0 0 0-1.297-23.543c-.12-.406-.262-.82-.433-1.234zm-37.875-.96c-1.121 2.073-2.008 4.792-2.559 7.21a49.39 49.39 0 0 0-.836 17.402c.168 1.293.457 2.696 1.309 3.508 1.562-1.586 1.949-4.164 2.199-6.676l.078-.773c.523-5.168 1.43-14.055-.191-20.672zm88.808-27.442a41.338 41.338 0 0 0-.297 2.382c-.828 8.508-.543 17.215-.27 25.63.079 2.363.114 4.745.145 7.132.094 6.238.184 12.688 1.082 18.895.106.734.43 1.433.77 1.656.105.07.2.086.32.05.262-.07.48-.437.668-1.128 1.461-5.434 1.258-10.594 1.043-16.059-.086-2.215-.176-4.5-.152-6.816.14-11.457-.633-20.567-2.438-28.672-.23-1.027-.488-2.086-.87-3.07zM635.457 190.14c-.059.144-.113.304-.168.46-2.969 8.95-4.531 22.395-1.32 32.262.105.32.21.617.386.79.54.515.81.41.899.374 1.492-.59 2.476-6.66 2.594-8.867.32-5.777.933-16.922-2.391-25.02zm90.8-18.887c-.284 2.117-.253 4.262-.226 6.117.035 2.43.059 4.856.078 7.277.114 12.864.235 26.165 2.54 39.098.035.18.078.309.12.387.036-.051.079-.133.13-.266 2.562-6.363 2.519-14.347 2.472-21.394-.004-1.188-.012-2.356-.008-3.493.055-10.996-1.422-19.52-4.629-26.808a7.744 7.744 0 0 0-.476-.918zm-51.003 29.559a46.716 46.716 0 0 0-.297 21.93c.129.585.293 1.167.684 1.452.254.184.554.168.761.125.438-.09.875-.398 1.114-.789.46-.77.472-1.777.437-2.828a96.738 96.738 0 0 0-2.7-19.89zm-18.684-.235c-2.242 6.895-2.953 13.91-2.11 20.879.142 1.18.716 3.129 1.974 3.227 1.273-.88 1.586-2.77 1.73-4.692.531-7.054-.004-13.578-1.594-19.414zm10.309 2.426a53.222 53.222 0 0 0-3.527 18.723c-.016 1.601.316 2.543 1.007 2.878.715.352 1.664-.125 2.13-.765.566-.778.738-1.84.87-2.856.766-6.02.602-12.05-.48-17.98zm80.355 26.117c4.082 0 8.078 0 11.965.008-.746-9.496-1.457-19.606-2-30.066-1.52.367-6.148 1.308-9.297-.094-.886 1.554-.976 3.664-.98 5.586-.012 7.754.11 15.488.242 22.691.012.613.035 1.238.07 1.875zm13.2.008c27.91.012 49.441.059 52.68.25 3.468.203 3.91-.531 3.968-.68.285-.781-1.559-2.683-3-3.762-28.016-17.542-44.543-41.957-52.867-57.43-.125.294-.332.606-.656.938-.735.762-1.918 1.07-3.114 1.164.032 2.735.086 5.473.153 8.192.859.363 1.62.855 2.18 1.449.632.68.949 1.672.824 2.602-.098.73-.473 1.335-1.051 1.691-.574.352-1.23.406-1.758.445h-.016c.13 3.735.278 7.446.457 11.114.43.09.97.293 1.297.78.282.419.332.911.157 1.384-.22.562-.727 1.023-1.282 1.336.551 10.625 1.274 20.894 2.028 30.527zm-9.61 14.484c3.438 0 6.871.153 10.27.364-.614-1.84-1.028-4.11-1.254-6.829a1152.78 1152.78 0 0 1-.543-6.785c-3.89-.004-7.902-.004-12-.004.027.485.062.977.09 1.485.242 3.828.504 8.066-.196 11.828 1.207-.043 2.422-.059 3.633-.059zm12.164 1.719c.477.93 1.074 1.754 1.828 2.348 1.141.902 2.512 1.21 4.188.96.371-.058 1.035-.222 1.3-.671.325-.543-.074-1.367-.648-1.746-.718-.473-1.707-.543-2.582-.602-1.351-.101-2.719-.2-4.086-.289zm-17.36-.352c-.437.024-.878.047-1.316.083-1.949.128-3.484.687-3.742 1.359-.187.496.39 1.187.75 1.555.692.703 1.313.992 1.848.882.781-.18 1.574-1.265 2.176-2.984.101-.293.199-.594.285-.895zm-2.706 5.137c-.813 0-1.649-.426-2.48-1.277-1.008-1.024-1.356-1.985-1.028-2.852.645-1.699 3.582-2.074 4.816-2.164.563-.039 1.133-.07 1.696-.101.738-3.621.484-7.774.234-11.801-.035-.531-.07-1.05-.097-1.563-2.739 0-5.516 0-8.317-.007-51.133-.008-114.773-.016-128.59-.63-15.633-.69-31.57-.57-46.984-.449l-1.914.012c-3.188.02-6.446-.035-9.602-.097-3.664-.075-7.449-.141-11.093-.083-6.227.11-8.551.782-11.762 1.711-2.059.598-4.387 1.274-8.25 1.973-7.496 1.367-13.93.242-20.156-.848-6.66-1.168-12.957-2.27-20.536-.593a.62.62 0 0 1-.734-.473.621.621 0 0 1 .469-.734c7.816-1.723 14.523-.555 21.015.586 6.118 1.07 12.438 2.18 19.72.847 3.8-.691 6.1-1.355 8.124-1.945 3.309-.953 5.692-1.645 12.09-1.762 3.664-.058 7.465.012 11.137.082 3.148.063 6.402.125 9.57.102l1.914-.012c15.43-.121 31.383-.242 47.043.445 13.793.614 77.418.625 128.54.633 2.78.004 5.534.004 8.25.004a50.546 50.546 0 0 1-.063-1.851c-.137-7.215-.258-14.958-.246-22.715.003-2.102.113-4.403 1.14-6.203a5.236 5.236 0 0 1-.695-.625c-3.074-3.375-1.36-11.125-.516-13.575.278-.8.625-1.554 1.028-2.25a9.33 9.33 0 0 1-1.688-1.832c-2.266-3.222-2.5-7.89-.594-11.601.465-.903 1.121-1.664 1.895-2.297a3.631 3.631 0 0 1-.516-.68c-1.105-2.05-1.465-4.433-1.66-6.496-.012-.062.02-2.863.211-6.207-.059-.012-.11-.027-.168-.035a.619.619 0 0 1-.332-1.004c.187-.223.39-.434.605-.625.004-.082.012-.156.02-.238-4.3 4.781-7.004 9.066-8.313 15.285.915 1.516 1.36 3.273 1.715 4.855 1.82 8.2 2.606 17.399 2.465 28.946-.023 2.293.063 4.566.153 6.761.214 5.559.421 10.813-1.086 16.43-.125.461-.457 1.703-1.532 1.996-.46.125-.918.055-1.324-.21-.781-.509-1.195-1.634-1.32-2.516-.903-6.282-.996-12.77-1.09-19.047a357.021 357.021 0 0 0-.145-7.114c-.277-8.453-.562-17.199.278-25.785.136-1.445.332-2.789.586-4.062a5.374 5.374 0 0 0-.336-.45c-1.07-1.3-3.024-2.257-4.684-1.593-1.324.535-2.129 1.972-2.574 3.078a14.219 14.219 0 0 0-.66 2.148c.449.457.898 1.118 1.312 2.059 3.282 7.46 4.79 16.14 4.735 27.316-.004 1.133.004 2.297.007 3.48.047 7.161.09 15.27-2.558 21.868-.29.715-.707 1.09-1.254 1.11-.711-.005-1.191-.532-1.36-1.481-2.324-13.035-2.44-26.387-2.558-39.3-.02-2.419-.043-4.849-.078-7.27-.031-2.196-.067-4.766.394-7.293a1.23 1.23 0 0 0-.765-.184c-.492.043-.996.41-1.543 1.11-1.817 2.335-2.5 5.359-2.852 8.468 1.66 3.5 2.309 7.434 2.782 11.004a168.66 168.66 0 0 1 1.433 24.676c-.043 2.766-.254 5.898-2.183 8.09-.774.883-1.704 1.21-2.497.875-1.093-.461-1.175-1.84-1.21-2.364a301.24 301.24 0 0 1 .214-39.746c.051-.77.114-1.543.196-2.32a16.582 16.582 0 0 0-1.883-2.973c-.301-.375-.63-.738-1.02-.894-.785-.313-1.761.258-2.39.965-1.735 1.941-2.059 4.804-2.243 7.57-.03.492-.066.988-.101 1.488 2.36 9.68 5.266 23.973 3.383 36.418-.047.317-.262 1.383-1 1.887a1.36 1.36 0 0 1-1.074.203c-.985-.226-1.231-1.375-1.31-1.754-2.472-11.61-1.995-24.883-1.241-36.64-.414-1.665-.992-3.262-2.293-3.872-1.414-.664-3.207.211-4.125 1.442-.57.773-.93 1.676-1.18 2.644 1.34 1.243 2.059 3.18 2.512 4.72a73.103 73.103 0 0 1 2.508 28.335c-.266 2.379-1.438 5.07-3.809 4.871-1.727-.144-2.875-1.785-3.23-4.61a113.75 113.75 0 0 1 .359-31.183c.078-.543.172-1.094.281-1.64a3.08 3.08 0 0 0-.91-.395c-2.246-.562-4.383 1.574-5.613 4.094 1.3 1.316 1.804 3.281 2.136 5.238a88.763 88.763 0 0 1 .825 23.727c-.16 1.601-.79 3.66-2.078 4.656-.625.476-1.36.672-2.118.543a.61.61 0 0 1-.504-.492c-2.304-11.743-4.015-23.13.23-33.317-1.823-1.168-4.366-.289-5.78 1.239-.782.847-1.336 1.875-1.758 2.98.402.66.777 1.5 1.09 2.555a53.425 53.425 0 0 1 1.324 24.11c-.36 2.054-1.363 3.28-2.692 3.28h-.007c-1.364-.007-2.352-1.285-2.653-3.425a67.885 67.885 0 0 1 .801-23.403c.207-.984.445-1.988.766-2.949-.586-.781-1.364-1.332-2.375-1.332h-.04c-1.995.023-4.288 2.133-5.562 4.898a98.233 98.233 0 0 1 3.196 21.973c.039 1.191.019 2.445-.618 3.504a3.024 3.024 0 0 1-1.922 1.363c-.636.133-1.25.016-1.73-.336-.738-.53-.988-1.398-1.168-2.172a47.985 47.985 0 0 1 .395-22.835c.144-.547.328-1.083.546-1.598-.191-.692-.382-1.375-.578-2.067-.285-.972-.898-2.12-1.62-2.488a.9.9 0 0 0-.766-.058c-.454.164-.793.68-1.09 1.195a53.383 53.383 0 0 0-2.914 5.758 59.922 59.922 0 0 1 .859 20.207c-.148 1.18-.355 2.418-1.094 3.43-.765 1.054-2.316 1.82-3.676 1.148-1.718-.844-1.699-3.219-1.695-4a54.496 54.496 0 0 1 4.317-20.91c-.09-.399-.18-.793-.278-1.188-.48-1.98-1.672-5.328-4.246-5.476-2.426-.168-3.945 2.707-4.644 4.445.011.027.02.055.03.09 1.981 6.37 2.692 13.574 2.099 21.41-.176 2.32-.594 4.621-2.465 5.746a.585.585 0 0 1-.29.09c-2.144.074-3.156-2.27-3.402-4.317-.926-7.636-.035-15.328 2.645-22.855.023-.066.05-.137.078-.21-.543-1.645-1.285-3.43-2.59-4.743-1.183-1.2-2.308-1.664-3.336-1.375-.793.226-1.543.894-2.226 1.832 2.093 6.988 1.109 16.668.546 22.203l-.078.773c-.3 2.958-.773 5.997-3.004 7.84a.616.616 0 0 1-.726.043c-1.567-1.011-2.008-2.933-2.235-4.675a50.747 50.747 0 0 1 .86-17.84c.371-1.606 1.437-5.72 3.293-8.559-.86-2.566-2.188-4.656-4.211-5.84-1.692-.988-3.215-1.277-4.395-.828-.644.246-1.207.703-1.668 1.363 3.88 8.461 3.227 20.387 2.891 26.493-.004.085-.652 8.878-3.379 9.949-.496.199-1.285.246-2.203-.637-.379-.367-.559-.84-.703-1.293-3.297-10.137-1.711-23.894 1.32-33.035a9.544 9.544 0 0 1 .672-1.559c-1.46-2.922-3.523-5.332-6.434-6.757-.496-.243-1.035-.461-1.515-.43-.469.031-.875.289-1.203.676 1.062 2.738 1.75 5.87 2.066 9.375.54 6.058.75 12.222.629 18.312-.012.68-.012 1.375-.008 2.078 0 2.262.004 4.594-.453 6.75-.012.051-1.316 4.793-2.605 5.063a.812.812 0 0 1-.844-.344c-2.399-3.328-2.246-8.652-2.121-12.93.031-1.058.058-2.066.05-2.976-.062-5.781.172-11.578.422-17.016.094-2.047.258-4.273.801-6.75.125-.57.348-1.176.672-1.723-1.133-2.71-2.664-4.996-4.574-6.824-1.332-1.273-2.457-1.86-3.535-1.797-.492.02-.907.465-1.235 1.313 4.938 12.707 5.094 28.797 4.422 43.555-.16 3.543-1.535 5.746-3.672 5.902a.611.611 0 0 1-.582-.313c-1.668-2.988-1.91-6.496-2.023-10.132a379.623 379.623 0 0 1-.02-23.485c.016-.562-.023-1.531-.074-2.762-.11-2.648-.254-6.273.02-9.316.062-.715.195-2.144.613-3.43-1.406-3.515-3.191-6.754-5.45-9.605-.464-.586-1.429-1.484-2.062-1.094-.379.235-.496.88-.574 1.457-.18 1.34-.34 2.692-.488 4.043.773 3.57 1.41 7.328 1.926 11.356 1.148 8.925 1.484 17.847 1.648 24.62.035 1.356.121 2.708.207 4.06.262 3.992.527 8.12-.68 12.214-.218.754-.543 1.61-1.222 2.2-.746.636-2.04.847-2.84.07-.43-.418-.578-.977-.684-1.477-.687-3.238-.703-6.566-.722-9.789l-.036-5.312c-.093-12.442-.191-25.254 1.157-37.875-.453-2.067-.95-4.075-1.493-6.032-1.234-4.422-2.898-5.976-6.214-9.074a.618.618 0 1 1 .843-.902c3.375 3.148 5.23 4.887 6.555 9.64.258.91.504 1.832.734 2.766.028-.223.059-.45.086-.672.086-.62.243-1.777 1.141-2.34 1.289-.8 2.75.188 3.691 1.375 2.106 2.664 3.813 5.649 5.192 8.868.433-.614 1.011-1.036 1.789-1.067 1.906-.023 3.43 1.188 4.43 2.145 1.898 1.812 3.437 4.03 4.609 6.644a2.767 2.767 0 0 1 1.629-.68c.781-.035 1.488.235 2.14.555 2.985 1.461 5.133 3.844 6.68 6.73a4.552 4.552 0 0 1 1.844-1.296c1.547-.586 3.43-.266 5.457.918 2.082 1.218 3.504 3.254 4.457 5.738.7-.797 1.484-1.39 2.363-1.64 1.485-.423 3.024.144 4.551 1.695 1.133 1.144 1.875 2.554 2.43 3.957 1.023-2.024 2.703-4.157 5.3-3.98 3.192.187 4.66 3.702 5.282 6.038a52.967 52.967 0 0 1 2.308-4.398c.399-.684.899-1.434 1.742-1.734a2.162 2.162 0 0 1 1.739.117c1.125.574 1.894 2.054 2.242 3.246.078.262.148.515.227.777 1.543-2.57 3.87-4.367 6.02-4.394.784.023 1.874.203 2.933 1.27.43-.977.98-1.895 1.718-2.688 1.723-1.871 4.852-2.922 7.204-1.532 1.394-2.718 3.886-5.285 6.91-4.515.324.086.629.203.914.347.281-.937.672-1.836 1.258-2.632 1.191-1.606 3.578-2.79 5.64-1.82.899.417 1.524 1.116 1.988 1.96.235-2.543.75-5.066 2.446-6.965.844-.953 2.34-1.859 3.773-1.289.653.258 1.117.762 1.524 1.27.433.539.828 1.101 1.183 1.683.434-2.687 1.227-5.261 2.88-7.382.765-.985 1.55-1.508 2.405-1.582.336-.032.73 0 1.153.168.156-.625.355-1.247.597-1.848.774-1.938 1.871-3.203 3.258-3.766 2.164-.879 4.461.196 5.82 1.64 1.575-6.421 4.715-10.933 9.442-16 .34-3.523.898-6.73 1.805-7.241a.913.913 0 0 1 1.02.086c1.183.898 1.612 2.398 1.116 3.918-.406 1.25-1.25 2.203-2.234 3.222-.168.184-.336.364-.504.54-.027.261-.05.523-.07.788 2.277-1.246 5.222-1.238 7.43.207 2.468 1.622 3.527 4.32 3.968 7.387.988 1.227 1.918 2.735 2.852 4.625 7.277 14.711 24.07 42.258 54.812 61.512.735.55 4.176 3.238 3.457 5.2-.437 1.202-2.09 1.679-5.195 1.487-3.207-.187-24.668-.23-52.508-.246.176 2.262.356 4.492.535 6.684.11 1.312.36 4.36 1.356 7.012 1.59.105 3.172.214 4.738.328.973.066 2.176.152 3.164.804 1.067.696 1.738 2.235 1.04 3.407-.395.672-1.15 1.105-2.18 1.265-2.004.309-3.731-.101-5.133-1.21-1-.79-1.825-1.923-2.473-3.415-4.855-.304-9.777-.504-14.66-.316-.121.46-.258.914-.418 1.36-.535 1.53-1.496 3.429-3.063 3.777-.175.039-.343.058-.52.058M144.941 291.707c-.34 0-.773.305-1.234.863-1.246 1.496-1.523 3.996-1.047 4.774.078.117.106.113.168.097.902-.21 2.297-1.261 3.195-2.605a3.276 3.276 0 0 1-.011-.914c.062-.426.215-1.09.465-1.629a.792.792 0 0 1-.07.05.62.62 0 0 1-.84-.226c-.008-.015-.239-.383-.583-.406-.015-.004-.027-.004-.043-.004zm42.754 10.938c-.27 0-.543-.008-.82-.036-3.227-.28-6.063-2.214-7.398-5.035-2.786-5.867-4.063-6.758-5.215-6.293-1.13.45-4.637 5.16-6.32 7.676a5.432 5.432 0 0 1-.098.695c-.336 1.426-1.078 1.446-1.305 1.426-.402-.05-.695-.398-.695-.836 0-.21.344-.86.89-1.722.051-.649.09-1.543.125-2.422.028-.496.043-.953.063-1.368-3.016 3.56-9.203 6.5-13.77 6.5-2.527 0-4.238-1.363-5.234-2.507a8.943 8.943 0 0 1-1.477-2.403c-1.007 1.188-2.296 2.082-3.332 2.325-.601.14-1.152-.098-1.5-.653-.77-1.258-.437-4.308 1.149-6.215.77-.93 1.57-1.359 2.344-1.297.976.086 1.484.926 1.535 1.024a.643.643 0 0 1 .078.387c.14-.2.297-.344.476-.41a.782.782 0 0 1 .704.128c.324.29.359.778.113 1.809a6.337 6.337 0 0 1-.68 1.656c.195.801.672 1.86 1.524 2.836.824.953 2.242 2.086 4.3 2.086 4.391 0 10.383-2.914 13.082-6.371.332-.422.606-.79.825-1.102.136-1.636.293-2.101.613-2.324.496-.347 1.047-.351 1.363-.012.399.418.39 1.07-.77 2.77a118.635 118.635 0 0 0-.171 3.2c-.004.128-.012.265-.02.39 1.938-2.707 4.602-5.961 5.723-6.414 2.484-1.004 4.3 1.66 6.793 6.91 1.152 2.426 3.601 4.09 6.394 4.336 2.864.246 5.48-.957 7.164-3.328a.614.614 0 0 1 .856-.145c.281.2.348.586.148.864-1.754 2.464-4.496 3.875-7.457 3.875M374.16 287.707c-.015.027-.207.273-.324.785a4.46 4.46 0 0 0-.082 1.203c.773-1.144.734-1.656.531-1.879-.082-.09-.125-.109-.125-.109zm21.75 3.492c-.156.012-.418.086-.715.266.332-.074.57-.18.715-.266zm22.887-.469c-.184 0-.367.051-.54.153-.433.25-.859.894-.628 1.887.2.828 1.023 1.789 2.125 2.468.219-.715.36-1.422.402-2.054.067-.965-.086-1.72-.414-2.028-.3-.281-.629-.426-.945-.426zm-3.067 3.344c-.16.488-.316 1.11-.437 1.863-.352 2.235-.012 3.567.457 3.86.39.242 1.074-.164 1.45-.422.87-.613 1.6-1.73 2.128-2.953-.008 0-.012-.008-.015-.008-1.418-.824-2.454-1.98-2.82-3.137-.141.266-.395.528-.763.797zm-171.492 6.418zm131.168-3.984c-1.386 1.441-2.27 3.351-2.047 4.242.04.148.106.414.801.352.621-.075 1.031-.387 1.281-.997.372-.902.301-2.257-.035-3.597zm-1.437 5.836c-.938 0-1.602-.465-1.805-1.297-.375-1.496.883-4.125 2.82-5.867-.336-.871-.77-1.672-1.238-2.246a5.364 5.364 0 0 1-.457-.672c-1.086 1.21-2.5 2.562-4.133 4.039-3.761 3.402-11.36 6.851-15.836 4.492-2.675-1.41-3.125-4.543-2.894-6.895-.598.48-1.32 1.047-2.192 1.704-3.574 2.707-12.644 5.273-15.914 4.511-1.218-.285-2.156-.937-2.765-1.933-.453-.727-.715-1.649-.778-2.657-.086.114-.18.23-.273.344-2.293 2.82-8.082 5.766-13.762 3.48-3.308-1.324-5.16-4.269-6.512-6.421-.757-1.192-1.53-2.403-2.023-2.344-1.184.207-4.7 4.754-6.605 7.61-.07 1.624-.125 2.34-.227 2.624-.207.579-.684.891-1.215.801-.594-.105-1.027-.68-1.027-1.375 0-.265.488-1.176 1.246-2.37.012-.321.027-.657.035-.97.031-.664.055-1.27.082-1.812-1.484 1.652-3.418 3.465-5.336 4.91-3.465 2.629-9.34 3.23-12.558-.059-1.262-1.293-1.98-2.808-2.348-4.183-.895 1.273-2.203 2.449-3.274 2.5-.507.015-.937-.184-1.222-.594-.516-.723-.457-2.277-.098-3.719-.996.496-2.36 1.008-5.055 1.41-5.066.75-13.535-1.074-15.546-2.285-2.04-1.23-3.27-1.847-4.688-.132-.734.878-1.5 2.234-2.129 3.519-.078.992-.195 1.906-.363 2.492-.293 1.028-.555 1.473-.965 1.637-.379.148-.7-.04-.82-.11a.652.652 0 0 1-.426-.343c-.203-.438.469-2.192 1.363-4.004.156-2.14.156-4.649.156-4.688 0-.343.282-.617.618-.617.343 0 .617.274.617.617 0 .09 0 1.012-.031 2.204.367-.606.722-1.13 1.03-1.5 2.169-2.61 4.446-1.235 6.27-.133 1.575.945 9.829 2.855 14.735 2.117 3.277-.484 4.383-1.106 5.453-1.707.129-.074.258-.152.394-.219.59-1.23 1.352-1.953 2.227-2.105.469-.086 1.703-.297 1.93.57.265 1.027-1.59 1.805-2.403 2.09a7.368 7.368 0 0 0-.8.34c-.711 1.75-.707 3.515-.465 3.851.035.059.062.09.156.074.61-.027 1.894-1.144 2.719-2.586.12-.21.218-.41.3-.59-.062-1.011.07-1.769.254-2.03.27-.38.696-.399.97-.223.554.355.452 1.383.03 2.453.133 1.344.649 3.351 2.293 5.031 2.72 2.781 7.946 2.203 10.934-.062 2.484-1.875 4.809-4.227 6.191-5.993.11-1.62.243-2.359.461-2.671.426-.602 1.16-1.086 1.75-.758.805.453.278 1.683.106 2.09-.215.503-.602 1.12-1.113 1.808-.047.781-.086 1.645-.118 2.43 2.075-2.938 4.89-6.309 6.301-6.555 1.3-.234 2.172 1.153 3.277 2.903 1.329 2.12 2.989 4.753 5.934 5.937 5.102 2.04 10.29-.594 12.34-3.117.496-.617.937-1.207 1.336-1.746.031-.04.058-.078.086-.117a.657.657 0 0 1 .027-.094c.2-.867.809-1.414 1.488-1.766.723-.719 1.461-1.113 2.383-.894.293.066.832.195.824.742-.011.543-.511.64-.96.734-.387.07-.989.192-1.508.426-.325.348-.68.809-1.102 1.367-.148.817-.316 2.496.48 3.79.438.702 1.114 1.167 2.004 1.378 2.961.7 11.586-1.797 14.887-4.293 1.61-1.222 2.645-2.062 3.309-2.644.281-.942.75-1.883 1.496-1.883.625 0 .812.41.851.531.13.39.082.809-1.253 2.031a9.38 9.38 0 0 0-.254 3.106c.12 1.32.613 3.074 2.254 3.937 3.93 2.078 11.03-1.234 14.437-4.312 2.086-1.887 3.492-3.317 4.418-4.395-.5-1.738-.137-3.543.64-4.207.563-.48 1.278-.398 1.817.215.879.984.375 2.422-1.062 4.25.14.309.324.621.562.902.488.61.938 1.387 1.3 2.243a6.42 6.42 0 0 1 1.122-.59c3.297-1.324 12.82-2.043 16.152-2.207a4.474 4.474 0 0 1 1.082-1.059c.957-.656 1.95-.77 2.469-.281.402.375.531.848.352 1.293-.336.86-1.68 1.246-2.864 1.246-.086 0-.195 0-.328.004-.445.879-.703 2.262.117 4.281.579 1.414 1.407 2.3 2.551 2.707 1.735.625 4.258.086 7.29-1.55 1.26-.684 3.066-1.438 4.968-2.239 1.89-.793 4.52-1.898 5.777-2.683.32-.856.72-1.497 1.137-1.625a.709.709 0 0 1 .54.058c.128-.82.573-1.531 1.26-1.93.946-.55 2.075-.382 2.954.438.621.582.894 1.625.8 3.016-.054.78-.234 1.66-.515 2.53 1.223.493 3.078.868 5.383.18 4.734-1.398 7.039-3.503 7.062-3.523a.609.609 0 0 1 .868.031.605.605 0 0 1-.028.867c-.097.098-2.511 2.32-7.554 3.813-2.622.777-4.75.352-6.168-.211-.61 1.406-1.485 2.691-2.524 3.426-1.383.969-2.289.785-2.812.46-1.504-.94-1.22-3.878-1.028-5.097.04-.254.09-.504.14-.758-1.198.617-2.827 1.313-4.815 2.145-1.797.754-3.649 1.535-4.86 2.187-3.398 1.84-6.187 2.387-8.297 1.625-1.465-.523-2.562-1.668-3.265-3.402-.774-1.887-.77-3.465-.348-4.684-3.82.22-12.2.946-15.035 2.09a5.27 5.27 0 0 0-1.145.64c.54 1.763.684 3.657.14 4.985-.425 1.035-1.214 1.637-2.296 1.754-.11.012-.219.016-.32.016"/><path fill="#e6335d" d="M353.082 288.758a.62.62 0 0 1-.543-.91c.012-.016.762-1.434 1.008-2.121a.607.607 0 0 1 .785-.372.612.612 0 0 1 .375.786c-.273.77-1.043 2.226-1.078 2.289a.624.624 0 0 1-.547.328M219.445 271.879c-.023 0-.05 0-.078-.004-.898-.113-3.957-.707-5.449-3.445-1.266-2.313-1-5.395.793-9.172 4.531-9.555 24.867-11.281 34.012-10.621 10.03.718 14.53.734 14.574.734a.616.616 0 1 1 0 1.234c-.047 0-4.574-.011-14.66-.738-10.965-.797-28.965 1.82-32.813 9.922-1.61 3.395-1.887 6.106-.828 8.05.969 1.774 2.977 2.61 4.527 2.81a.619.619 0 0 1-.078 1.23"/><g clip-path="url(#f)"><path fill="#e6335d" d="M227.797 304.164a.667.667 0 0 1-.242-.047.621.621 0 0 1-.325-.812c.02-.051 2.364-5.598 4.93-16.41 1.082-4.582 2.781-11.043 4.418-17.293 1.977-7.532 4.219-16.075 4.18-16.961-.074-.332.133-.637.465-.72.336-.077.668.157.746.49.164.687-.797 4.558-4.196 17.503-1.636 6.242-3.335 12.695-4.414 17.266-2.593 10.933-4.968 16.554-4.996 16.61a.618.618 0 0 1-.566.374"/></g><path fill="#e6335d" d="M227.535 279.953a.62.62 0 0 1-.433-1.058c1.824-1.829 2.765-1.985 8.03-2.868l1.438-.238c4.848-.816 6.868-1.11 7.149-1.11a.616.616 0 1 1 0 1.235c-.004.004-.79.059-6.946 1.094l-1.437.242c-5.16.86-5.82.969-7.363 2.52a.609.609 0 0 1-.438.183"/><g clip-path="url(#g)"><path fill="#e6335d" d="M120.031 305.273c-3.879 0-5.738-1.89-6.617-3.515-1.64-3.028-1.047-7.258.082-8.84 1.762-2.484 4.371-3.93 7.746-4.297a.634.634 0 0 1 .68.55.62.62 0 0 1-.55.68c-3.048.329-5.298 1.57-6.876 3.782-.812 1.148-1.433 4.883 0 7.535 1.094 2.016 3.11 2.98 6 2.863 4.621-.195 7.586-1.265 9.067-3.289 1.285-1.754 1.464-4.27.542-7.672-.851-3.148-2.808-6.41-4.882-9.867-2.864-4.765-6.106-10.172-6.88-16.265-1.331-10.45 9.18-17.418 12.95-18.641 2.168-.703 6.687-2.168 9.98-.086 1.965 1.242 3.18 3.539 3.614 6.828 1.336 10.137-5.711 15.426-6.524 15.996a.62.62 0 0 1-.855-.148.616.616 0 0 1 .148-.864c.742-.523 7.246-5.406 6.008-14.824-.387-2.91-1.41-4.906-3.047-5.945-2.804-1.777-6.953-.43-8.945.219-3.516 1.14-13.332 7.62-12.102 17.304.743 5.84 3.774 10.899 6.707 15.79 2.125 3.53 4.125 6.867 5.02 10.175 1.027 3.793.785 6.653-.742 8.735-1.711 2.34-4.985 3.582-10.008 3.789-.172.007-.348.007-.516.007"/></g></g></g></svg>