<svg xmlns="http://www.w3.org/2000/svg" xmlns:xlink="http://www.w3.org/1999/xlink" width="39" zoomAndPan="magnify" viewBox="0 0 29.25 28.5" height="38" preserveAspectRatio="xMidYMid meet" version="1.0"><defs><clipPath id="c606520707"><path d="M 6.527344 23.300781 L 7.992188 23.300781 L 7.992188 24.765625 L 6.527344 24.765625 Z M 6.527344 23.300781 " clip-rule="nonzero"/></clipPath><clipPath id="90135a25b7"><path d="M 7 23.300781 L 7.992188 23.300781 L 7.992188 24.765625 L 7 24.765625 Z M 7 23.300781 " clip-rule="nonzero"/></clipPath><clipPath id="e092c5ec82"><path d="M 0.25 0.402344 L 28 0.402344 L 28 27.898438 L 0.25 27.898438 Z M 0.25 0.402344 " clip-rule="nonzero"/></clipPath></defs><g clip-path="url(#c606520707)"><path fill="#d71820" d="M 7.253906 23.300781 C 6.851562 23.300781 6.527344 23.628906 6.527344 24.027344 C 6.527344 24.429688 6.851562 24.753906 7.253906 24.753906 C 7.65625 24.753906 7.980469 24.429688 7.980469 24.027344 C 7.980469 23.628906 7.652344 23.300781 7.253906 23.300781 Z M 7.671875 24.230469 C 7.664062 24.285156 7.617188 24.324219 7.5625 24.324219 L 6.945312 24.324219 C 6.890625 24.324219 6.84375 24.285156 6.835938 24.230469 C 6.828125 24.179688 6.820312 24.113281 6.820312 24.027344 C 6.820312 23.941406 6.828125 23.875 6.835938 23.824219 C 6.84375 23.769531 6.890625 23.730469 6.945312 23.730469 L 7.5625 23.730469 C 7.617188 23.730469 7.664062 23.769531 7.671875 23.824219 C 7.679688 23.875 7.6875 23.941406 7.6875 24.027344 C 7.6875 24.113281 7.679688 24.179688 7.671875 24.230469 Z M 7.671875 24.230469 " fill-opacity="1" fill-rule="nonzero"/></g><g clip-path="url(#90135a25b7)"><path fill="#d71820" d="M 7.164062 23.910156 L 7.164062 24.144531 L 7.382812 24.027344 Z M 7.164062 23.910156 " fill-opacity="1" fill-rule="nonzero"/></g><g clip-path="url(#e092c5ec82)"><path fill="#007dff" d="M 14.027344 0.410156 C 6.417969 0.410156 0.25 6.578125 0.25 14.1875 C 0.25 21.027344 5.234375 26.703125 11.761719 27.777344 L 11.761719 18.4375 L 8.253906 18.4375 L 8.253906 14.34375 L 11.761719 14.34375 L 11.761719 11.375 C 11.761719 8.152344 14.375 5.96875 17.59375 5.96875 C 19.027344 5.96875 19.921875 6.183594 19.921875 6.183594 L 19.921875 9.621094 L 17.59375 9.621094 C 16.628906 9.621094 15.84375 10.40625 15.84375 11.375 L 15.84375 14.34375 L 19.601562 14.34375 L 19.074219 18.4375 L 15.84375 18.4375 L 15.84375 27.835938 C 22.582031 26.941406 27.785156 21.167969 27.785156 14.1875 C 27.796875 6.578125 21.628906 0.410156 14.027344 0.410156 Z M 14.027344 0.410156 " fill-opacity="1" fill-rule="nonzero"/></g></svg>