<svg xmlns="http://www.w3.org/2000/svg" width="1366" viewBox="0 0 1024.5 576" height="768" version="1.0"><defs><clipPath id="G"><path d="M984 408h20v20h-20zm0 0"/></clipPath><clipPath id="a"><path d="M956 78h49v49h-49zm0 0"/></clipPath><clipPath id="c"><path d="m960.836 74.824 47.297 8.184-8.188 47.297-47.297-8.188zm0 0"/></clipPath><clipPath id="d"><path d="m960.836 74.824 47.297 8.184-8.188 47.297-47.297-8.188zm0 0"/></clipPath><clipPath id="e"><path d="M967 90h28v24h-28zm0 0"/></clipPath><clipPath id="f"><path d="m960.836 74.824 47.297 8.184-8.188 47.297-47.297-8.188zm0 0"/></clipPath><clipPath id="g"><path d="m960.836 74.824 47.297 8.184-8.188 47.297-47.297-8.188zm0 0"/></clipPath><clipPath id="h"><path d="m960.836 74.824 47.297 8.184-8.188 47.297-47.297-8.188zm0 0"/></clipPath><clipPath id="i"><path d="M895 1h16v17h-16zm0 0"/></clipPath><clipPath id="j"><path d="m896.55.14 15.52 2.688-2.687 15.52-15.52-2.688zm0 0"/></clipPath><clipPath id="k"><path d="m896.55.14 15.52 2.688-2.687 15.52-15.52-2.688zm0 0"/></clipPath><clipPath id="l"><path d="m896.55.14 15.52 2.688-2.687 15.52-15.52-2.688zm0 0"/></clipPath><clipPath id="m"><path d="M898 5h10v8h-10zm0 0"/></clipPath><clipPath id="n"><path d="m896.55.14 15.52 2.688-2.687 15.52-15.52-2.688zm0 0"/></clipPath><clipPath id="o"><path d="m896.55.14 15.52 2.688-2.687 15.52-15.52-2.688zm0 0"/></clipPath><clipPath id="p"><path d="m896.55.14 15.52 2.688-2.687 15.52-15.52-2.688zm0 0"/></clipPath><clipPath id="q"><path d="M865 167h34v33h-34zm0 0"/></clipPath><clipPath id="r"><path d="m871.7 162.629 31.304 10.437-10.438 31.305-31.304-10.437zm0 0"/></clipPath><clipPath id="s"><path d="m871.7 162.629 31.304 10.437-10.438 31.305-31.304-10.437zm0 0"/></clipPath><clipPath id="t"><path d="m871.7 162.629 31.304 10.437-10.438 31.305-31.304-10.437zm0 0"/></clipPath><clipPath id="u"><path d="M873 174h20v18h-20zm0 0"/></clipPath><clipPath id="v"><path d="m871.7 162.629 31.304 10.437-10.438 31.305-31.304-10.437zm0 0"/></clipPath><clipPath id="w"><path d="m871.7 162.629 31.304 10.437-10.438 31.305-31.304-10.437zm0 0"/></clipPath><clipPath id="x"><path d="m871.7 162.629 31.304 10.437-10.438 31.305-31.304-10.437zm0 0"/></clipPath><clipPath id="y"><path d="M961 265h46v46h-46zm0 0"/></clipPath><clipPath id="z"><path d="m952.637 285.457 34.379-29.035 29.035 34.379-34.38 29.035zm0 0"/></clipPath><clipPath id="A"><path d="m952.637 285.457 34.379-29.035 29.035 34.379-34.38 29.035zm0 0"/></clipPath><clipPath id="B"><path d="m952.637 285.457 34.379-29.035 29.035 34.379-34.38 29.035zm0 0"/></clipPath><clipPath id="C"><path d="M971 274h25v25h-25zm0 0"/></clipPath><clipPath id="D"><path d="m952.637 285.457 34.379-29.035 29.035 34.379-34.38 29.035zm0 0"/></clipPath><clipPath id="E"><path d="m952.637 285.457 34.379-29.035 29.035 34.379-34.38 29.035zm0 0"/></clipPath><clipPath id="F"><path d="m952.637 285.457 34.379-29.035 29.035 34.379-34.38 29.035zm0 0"/></clipPath><clipPath id="b"><path d="m960.836 74.824 47.297 8.184-8.188 47.297-47.297-8.188zm0 0"/></clipPath><clipPath id="H"><path d="m980.422 417.164 14.691-12.824 12.82 14.695-14.69 12.82zm0 0"/></clipPath><clipPath id="I"><path d="m980.422 417.164 14.691-12.824 12.82 14.695-14.69 12.82zm0 0"/></clipPath><clipPath id="J"><path d="m980.422 417.164 14.691-12.824 12.82 14.695-14.69 12.82zm0 0"/></clipPath><clipPath id="K"><path d="M988 412h11v11h-11zm0 0"/></clipPath><clipPath id="L"><path d="m980.422 417.164 14.691-12.824 12.82 14.695-14.69 12.82zm0 0"/></clipPath><clipPath id="M"><path d="m980.422 417.164 14.691-12.824 12.82 14.695-14.69 12.82zm0 0"/></clipPath><clipPath id="N"><path d="m980.422 417.164 14.691-12.824 12.82 14.695-14.69 12.82zm0 0"/></clipPath><clipPath id="O"><path d="M853 321h17v16h-17zm0 0"/></clipPath><clipPath id="P"><path d="m854.867 319.988 15.52 2.688-2.688 15.52-15.52-2.688zm0 0"/></clipPath><clipPath id="Q"><path d="m854.867 319.988 15.52 2.688-2.688 15.52-15.52-2.688zm0 0"/></clipPath><clipPath id="R"><path d="m854.867 319.988 15.52 2.688-2.688 15.52-15.52-2.688zm0 0"/></clipPath><clipPath id="S"><path d="M857 325h9v8h-9zm0 0"/></clipPath><clipPath id="T"><path d="m854.867 319.988 15.52 2.688-2.688 15.52-15.52-2.688zm0 0"/></clipPath><clipPath id="U"><path d="m854.867 319.988 15.52 2.688-2.688 15.52-15.52-2.688zm0 0"/></clipPath><clipPath id="V"><path d="m854.867 319.988 15.52 2.688-2.688 15.52-15.52-2.688zm0 0"/></clipPath><clipPath id="W"><path d="M880.496 441.25h45v45h-45zm0 0"/></clipPath><clipPath id="X"><path d="M948 532h34v34h-34zm0 0"/></clipPath><clipPath id="Y"><path d="m951.898 529.559 32.516 5.629-5.629 32.519-32.515-5.629zm0 0"/></clipPath><clipPath id="Z"><path d="m951.898 529.559 32.516 5.629-5.629 32.519-32.515-5.629zm0 0"/></clipPath><clipPath id="aa"><path d="m951.898 529.559 32.516 5.629-5.629 32.519-32.515-5.629zm0 0"/></clipPath><clipPath id="ab"><path d="M956 540h20v17h-20zm0 0"/></clipPath><clipPath id="ac"><path d="m951.898 529.559 32.516 5.629-5.629 32.519-32.515-5.629zm0 0"/></clipPath><clipPath id="ad"><path d="m951.898 529.559 32.516 5.629-5.629 32.519-32.515-5.629zm0 0"/></clipPath><clipPath id="ae"><path d="m951.898 529.559 32.516 5.629-5.629 32.519-32.515-5.629zm0 0"/></clipPath><clipPath id="af"><path d="M830 521h17v17h-17zm0 0"/></clipPath><clipPath id="ag"><path d="m827.488 528.805 11.867-10.356 10.356 11.867-11.867 10.356zm0 0"/></clipPath><clipPath id="ah"><path d="m827.488 528.805 11.867-10.356 10.356 11.867-11.867 10.356zm0 0"/></clipPath><clipPath id="ai"><path d="m827.488 528.805 11.867-10.356 10.356 11.867-11.867 10.356zm0 0"/></clipPath><clipPath id="aj"><path d="M833 524h10v10h-10zm0 0"/></clipPath><clipPath id="ak"><path d="m827.488 528.805 11.867-10.356 10.356 11.867-11.867 10.356zm0 0"/></clipPath><clipPath id="al"><path d="m827.488 528.805 11.867-10.356 10.356 11.867-11.867 10.356zm0 0"/></clipPath><clipPath id="am"><path d="m827.488 528.805 11.867-10.356 10.356 11.867-11.867 10.356zm0 0"/></clipPath></defs><g clip-path="url(#a)"><g clip-path="url(#b)"><g clip-path="url(#c)"><g clip-path="url(#d)"><path fill="#ef2945" d="M1004.04 106.656a23.034 23.034 0 0 1-.517 2.301 24.514 24.514 0 0 1-1.691 4.39 24.455 24.455 0 0 1-2.516 3.977 24.65 24.65 0 0 1-3.242 3.406 24.086 24.086 0 0 1-10.418 5.25 24.403 24.403 0 0 1-4.668.579c-.785.02-1.57 0-2.355-.059a24.353 24.353 0 0 1-4.633-.8 24.997 24.997 0 0 1-2.238-.74 24.656 24.656 0 0 1-2.153-.952 25.146 25.146 0 0 1-2.05-1.16 23.898 23.898 0 0 1-5.336-4.602 23.875 23.875 0 0 1-2.711-3.844 25.172 25.172 0 0 1-1.059-2.101 24.106 24.106 0 0 1-2.055-9.137c-.02-.785 0-1.57.055-2.355.059-.786.156-1.563.29-2.336.132-.778.304-1.543.515-2.301a22.32 22.32 0 0 1 .738-2.234c.281-.735.598-1.454.953-2.157.352-.703.739-1.383 1.16-2.047a22.82 22.82 0 0 1 1.356-1.93 23.92 23.92 0 0 1 5.098-4.855 23.563 23.563 0 0 1 4.094-2.32c.718-.32 1.448-.602 2.195-.852a24.106 24.106 0 0 1 4.59-1.03 23.718 23.718 0 0 1 7.042.171c.774.133 1.54.305 2.297.512.758.21 1.504.457 2.239.738.734.285 1.449.602 2.152.953.703.356 1.387.742 2.05 1.16a23.898 23.898 0 0 1 5.336 4.602 23.875 23.875 0 0 1 2.712 3.844c.386.683.738 1.386 1.058 2.101a24.106 24.106 0 0 1 2.055 9.137c.02.785 0 1.57-.059 2.355a23.39 23.39 0 0 1-.285 2.336zm0 0"/></g></g></g></g><g clip-path="url(#e)"><g clip-path="url(#f)"><g clip-path="url(#g)"><g clip-path="url(#h)"><path fill="#fff" d="M976.168 91.008a7.197 7.197 0 0 1 5.64 4.933 7.194 7.194 0 0 1 6.97-2.75 7.198 7.198 0 0 1 5.867 8.32c-1.63 9.423-13.286 12.88-15.81 12.442-2.964-.512-12.636-7.578-10.991-17.078a7.202 7.202 0 0 1 8.324-5.867zm0 0" fill-rule="evenodd"/></g></g></g></g><g clip-path="url(#i)"><g clip-path="url(#j)"><g clip-path="url(#k)"><g clip-path="url(#l)"><path fill="#ef2945" d="M910.727 10.586a7.864 7.864 0 0 1-1.105 2.867 7.51 7.51 0 0 1-.95 1.219c-.356.375-.746.71-1.168 1.008-.422.297-.871.55-1.344.761-.472.211-.96.372-1.465.485a7.784 7.784 0 0 1-3.07.078 8.068 8.068 0 0 1-1.488-.41 7.97 7.97 0 0 1-2.598-1.645 7.756 7.756 0 0 1-1.008-1.168 7.987 7.987 0 0 1-.761-1.344 7.758 7.758 0 0 1-.485-1.464 8.089 8.089 0 0 1-.191-1.532 7.783 7.783 0 0 1 .527-3.027c.184-.484.414-.945.692-1.379a7.97 7.97 0 0 1 .949-1.219c.355-.375.746-.71 1.168-1.007a7.48 7.48 0 0 1 1.343-.762c.473-.211.961-.371 1.465-.485a7.784 7.784 0 0 1 3.074-.078c.508.09 1.004.227 1.489.41.48.188.941.419 1.379.696a8.012 8.012 0 0 1 2.227 2.117c.296.422.55.871.757 1.344a7.77 7.77 0 0 1 .676 2.996 7.813 7.813 0 0 1-.113 1.539zm0 0"/></g></g></g></g><g clip-path="url(#m)"><g clip-path="url(#n)"><g clip-path="url(#o)"><g clip-path="url(#p)"><path fill="#fff" d="M901.582 5.453a2.36 2.36 0 0 1 1.852 1.617 2.363 2.363 0 0 1 4.21 1.828c-.535 3.09-4.359 4.227-5.187 4.082-.973-.168-4.144-2.484-3.605-5.605a2.36 2.36 0 0 1 2.73-1.922zm0 0" fill-rule="evenodd"/></g></g></g></g><g clip-path="url(#q)"><g clip-path="url(#r)"><g clip-path="url(#s)"><g clip-path="url(#t)"><path fill="#ef2945" d="M897.785 188.719a16.181 16.181 0 0 1-1.32 2.953 16.122 16.122 0 0 1-2.988 3.808c-.391.372-.801.723-1.227 1.055-.43.332-.871.64-1.328.93-.457.289-.926.55-1.41.793-.485.242-.977.46-1.485.652a15.07 15.07 0 0 1-1.539.504 15.998 15.998 0 0 1-3.188.543c-.538.04-1.077.05-1.616.04a17.228 17.228 0 0 1-1.618-.126 16.456 16.456 0 0 1-4.66-1.305 16.148 16.148 0 0 1-2.812-1.601 16.47 16.47 0 0 1-4.426-4.676c-.29-.457-.55-.926-.793-1.41-.242-.484-.46-.977-.652-1.48a15.728 15.728 0 0 1-.504-1.54 15.905 15.905 0 0 1-.352-1.582c-.09-.53-.156-1.07-.191-1.609-.04-.54-.051-1.078-.04-1.617.016-.54.06-1.078.126-1.613.066-.54.16-1.07.281-1.598a16.79 16.79 0 0 1 1.023-3.067c.22-.492.465-.976.73-1.445.27-.469.56-.926.872-1.363a16.53 16.53 0 0 1 1-1.278c.355-.406.727-.796 1.121-1.167.39-.372.8-.723 1.227-1.055.43-.332.87-.64 1.328-.93.457-.285.926-.55 1.41-.793.484-.242.976-.46 1.48-.652.508-.192 1.02-.36 1.54-.504.523-.14 1.05-.258 1.581-.352.532-.09 1.07-.152 1.61-.191.539-.04 1.078-.05 1.617-.035.54.012 1.078.054 1.613.12.54.071 1.07.165 1.598.282a16.79 16.79 0 0 1 3.066 1.024 16.727 16.727 0 0 1 4.086 2.601c.407.356.797.727 1.168 1.121.371.39.723.801 1.055 1.227.332.43.64.87.93 1.328.285.457.55.926.793 1.41.242.484.46.977.652 1.484.191.504.36 1.016.504 1.54.14.52.258 1.046.351 1.578.09.535.153 1.07.192 1.609.039.54.05 1.078.035 1.617a16 16 0 0 1-.402 3.211 16.456 16.456 0 0 1-.438 1.559zm0 0"/></g></g></g></g><g clip-path="url(#u)"><g clip-path="url(#v)"><g clip-path="url(#w)"><g clip-path="url(#x)"><path fill="#fff" d="M880.453 175.21a4.949 4.949 0 0 1 3.324 3.935 4.95 4.95 0 0 1 8.152 5.11c-2.077 6.233-10.355 7.386-12.027 6.827-1.96-.652-7.808-6.453-5.71-12.742a4.947 4.947 0 0 1 6.261-3.13zm0 0" fill-rule="evenodd"/></g></g></g></g><g clip-path="url(#y)"><g clip-path="url(#z)"><g clip-path="url(#A)"><g clip-path="url(#B)"><path fill="#ef2945" d="M1001.531 273.61c.477.562.926 1.148 1.344 1.753a22.699 22.699 0 0 1 2.906 5.93c.223.703.41 1.414.567 2.133.152.722.273 1.449.355 2.18a23.101 23.101 0 0 1 .063 4.41 23.05 23.05 0 0 1-.293 2.191 23.826 23.826 0 0 1-.508 2.148 22.336 22.336 0 0 1-.715 2.09 22.093 22.093 0 0 1-2.023 3.918 24.199 24.199 0 0 1-1.29 1.793 22.588 22.588 0 0 1-6.707 5.664 23.31 23.31 0 0 1-1.984.973c-.676.289-1.367.547-2.066.773-.703.223-1.414.41-2.137.567-.719.152-1.445.27-2.18.355-.73.082-1.465.13-2.203.137a21.932 21.932 0 0 1-2.207-.078 20.706 20.706 0 0 1-2.187-.293c-.723-.133-1.442-.3-2.149-.504a21.955 21.955 0 0 1-2.09-.715 23.245 23.245 0 0 1-2.007-.914c-.657-.34-1.293-.71-1.91-1.11a24.2 24.2 0 0 1-1.794-1.288c-.574-.461-1.129-.95-1.656-1.461a21.797 21.797 0 0 1-1.504-1.617 22.001 22.001 0 0 1-2.504-3.629 23.898 23.898 0 0 1-.972-1.985 21.923 21.923 0 0 1-.774-2.066 22.622 22.622 0 0 1-.922-4.316 21.797 21.797 0 0 1-.136-2.204c-.012-.734.011-1.472.074-2.207.062-.734.16-1.46.293-2.187.137-.723.305-1.442.508-2.149.203-.707.441-1.406.715-2.09a22.093 22.093 0 0 1 2.023-3.918c.402-.62.832-1.218 1.289-1.792a22.66 22.66 0 0 1 3.074-3.164 22.658 22.658 0 0 1 7.684-4.247 22.742 22.742 0 0 1 4.313-.922 23.164 23.164 0 0 1 2.206-.14c.735-.008 1.473.016 2.207.078.735.063 1.461.16 2.188.293a22.57 22.57 0 0 1 11.605 5.996 21.74 21.74 0 0 1 1.504 1.613zm0 0"/></g></g></g></g><g clip-path="url(#C)"><g clip-path="url(#D)"><g clip-path="url(#E)"><g clip-path="url(#F)"><path fill="#fff" d="M973.5 284.2a6.746 6.746 0 0 1 6.941-1.083 6.749 6.749 0 0 1 11.735-5.86c5.785 6.845 1.246 17.302-.59 18.852-2.152 1.82-13.055 4.508-18.89-2.398-2.403-2.848-2.048-7.11.804-9.512zm0 0" fill-rule="evenodd"/></g></g></g></g><g clip-path="url(#G)"><g clip-path="url(#H)"><g clip-path="url(#I)"><g clip-path="url(#J)"><path fill="#ef2945" d="M1001.523 411.688c.422.484.793 1 1.11 1.558a9.772 9.772 0 0 1 1.273 5.516 9.628 9.628 0 0 1-.316 1.883 10.085 10.085 0 0 1-.676 1.789 9.81 9.81 0 0 1-2.324 3.011 9.828 9.828 0 0 1-3.3 1.895 9.772 9.772 0 0 1-1.864.43 9.922 9.922 0 0 1-3.793-.258 9.79 9.79 0 0 1-3.41-1.691 9.814 9.814 0 0 1-3.285-4.61 9.767 9.767 0 0 1-.488-3.773c.046-.641.152-1.27.316-1.887.168-.617.394-1.211.68-1.785a9.79 9.79 0 0 1 1.011-1.621c.39-.508.828-.973 1.313-1.391.48-.422 1-.793 1.554-1.11a9.556 9.556 0 0 1 1.742-.785 9.767 9.767 0 0 1 5.66-.172c.618.168 1.212.395 1.786.676a9.81 9.81 0 0 1 3.011 2.325zm0 0"/></g></g></g></g><g clip-path="url(#K)"><g clip-path="url(#L)"><g clip-path="url(#M)"><g clip-path="url(#N)"><path fill="#fff" d="M989.453 416.473a2.916 2.916 0 0 1 3-.516 2.921 2.921 0 0 1 .918-2.906 2.928 2.928 0 0 1 4.125.281c2.555 2.926.66 7.488-.125 8.172-.918.805-5.625 2.047-8.2-.906a2.921 2.921 0 0 1 .282-4.125zm0 0" fill-rule="evenodd"/></g></g></g></g><g clip-path="url(#O)"><g clip-path="url(#P)"><g clip-path="url(#Q)"><g clip-path="url(#R)"><path fill="#ef2945" d="M869.043 330.438a8.241 8.241 0 0 1-.41 1.488c-.188.48-.418.941-.696 1.379a8.011 8.011 0 0 1-2.117 2.227c-.422.296-.87.55-1.343.757a7.77 7.77 0 0 1-2.997.676 7.79 7.79 0 0 1-1.539-.113 7.5 7.5 0 0 1-1.488-.41 7.73 7.73 0 0 1-1.379-.696 7.51 7.51 0 0 1-1.219-.95 7.756 7.756 0 0 1-1.007-1.167 7.48 7.48 0 0 1-.762-1.344 7.758 7.758 0 0 1-.484-1.465 7.813 7.813 0 0 1-.078-3.07c.09-.512.226-1.008.41-1.488a7.97 7.97 0 0 1 1.645-2.598c.355-.375.745-.71 1.167-1.008.422-.297.871-.55 1.344-.761.472-.211.96-.372 1.465-.485a8.089 8.089 0 0 1 1.53-.191 7.783 7.783 0 0 1 3.027.527c.486.184.943.414 1.38.692a7.97 7.97 0 0 1 1.219.949c.375.355.71.746 1.008 1.168.297.422.55.87.761 1.343.211.473.372.961.485 1.465a8.09 8.09 0 0 1 .191 1.532 8.163 8.163 0 0 1-.113 1.543zm0 0"/></g></g></g></g><g clip-path="url(#S)"><g clip-path="url(#T)"><g clip-path="url(#U)"><g clip-path="url(#V)"><path fill="#fff" d="M859.898 325.3a2.36 2.36 0 0 1 1.848 1.618 2.363 2.363 0 0 1 4.215 1.828c-.535 3.094-4.36 4.227-5.188 4.086-.972-.172-4.148-2.488-3.605-5.605a2.36 2.36 0 0 1 2.73-1.926zm0 0" fill-rule="evenodd"/></g></g></g></g><g clip-path="url(#W)"><path fill="#ef2945" d="M925.496 463.75c0 .738-.035 1.473-.11 2.207a21.8 21.8 0 0 1-.323 2.184 22.26 22.26 0 0 1-1.282 4.218 22.094 22.094 0 0 1-2.078 3.89c-.41.614-.848 1.204-1.316 1.774a21.77 21.77 0 0 1-1.48 1.637 23.562 23.562 0 0 1-1.637 1.485 22.713 22.713 0 0 1-5.664 3.395c-.68.28-1.376.526-2.079.741-.707.215-1.418.395-2.14.535a21.71 21.71 0 0 1-2.188.325c-.73.074-1.469.109-2.203.109-.738 0-1.473-.035-2.207-.11a21.8 21.8 0 0 1-2.184-.324 22.64 22.64 0 0 1-4.219-1.277 22.744 22.744 0 0 1-3.89-2.082 22.345 22.345 0 0 1-6.207-6.207c-.41-.613-.789-1.242-1.137-1.895a21.676 21.676 0 0 1-.945-1.996 22.64 22.64 0 0 1-1.277-4.218 21.8 21.8 0 0 1-.325-2.184 21.914 21.914 0 0 1-.109-2.207c0-.738.035-1.473.11-2.203.07-.735.18-1.465.324-2.188.14-.722.32-1.433.535-2.14a22.17 22.17 0 0 1 1.688-4.074 22.713 22.713 0 0 1 2.449-3.668c.468-.57.964-1.114 1.484-1.637a21.77 21.77 0 0 1 1.637-1.48 22.392 22.392 0 0 1 5.664-3.395 22.26 22.26 0 0 1 4.219-1.281 21.8 21.8 0 0 1 2.183-.325c.734-.074 1.469-.109 2.207-.109.734 0 1.473.035 2.203.11a22.553 22.553 0 0 1 4.328.86c.703.214 1.399.46 2.078.745a22.135 22.135 0 0 1 3.891 2.078 22.562 22.562 0 0 1 3.41 2.797 22.562 22.562 0 0 1 2.797 3.41 22.136 22.136 0 0 1 2.078 3.89 21.946 21.946 0 0 1 1.281 4.22c.145.722.254 1.452.325 2.187.074.73.11 1.465.11 2.203zm0 0"/></g><path fill="#fff" d="M897.246 453.75a6.746 6.746 0 0 1 6 3.656 6.75 6.75 0 0 1 12.75 3.094c0 8.96-10.215 14.02-12.613 14.02-2.824 0-12.887-4.977-12.887-14.02a6.752 6.752 0 0 1 6.75-6.75zm0 0" fill-rule="evenodd"/><g clip-path="url(#X)"><g clip-path="url(#Y)"><g clip-path="url(#Z)"><g clip-path="url(#aa)"><path fill="#ef2945" d="M981.602 551.445a16.555 16.555 0 0 1-3.247 7.332c-.332.43-.687.836-1.058 1.227-.371.394-.762.766-1.172 1.117-.41.356-.836.688-1.277 1a17.12 17.12 0 0 1-2.813 1.594c-.492.219-.996.414-1.512.582a15.35 15.35 0 0 1-1.558.433 16.853 16.853 0 0 1-3.211.399c-.54.012-1.078 0-1.617-.04a16.02 16.02 0 0 1-1.61-.198 16.747 16.747 0 0 1-1.578-.356 16.099 16.099 0 0 1-3.02-1.16 16.126 16.126 0 0 1-2.734-1.73 16.536 16.536 0 0 1-2.343-2.23 16.629 16.629 0 0 1-.997-1.274 16.557 16.557 0 0 1-1.593-2.817 17.192 17.192 0 0 1-.586-1.508 16.82 16.82 0 0 1-.828-4.773c-.012-.54 0-1.078.039-1.617.039-.54.105-1.074.199-1.606.09-.535.207-1.062.351-1.582a16.492 16.492 0 0 1 5.122-8.093c.41-.356.836-.688 1.277-1a17.12 17.12 0 0 1 2.812-1.594c.497-.219 1-.414 1.512-.582a15.421 15.421 0 0 1 1.563-.434c.527-.117 1.058-.21 1.593-.277a17.14 17.14 0 0 1 1.614-.121c.543-.012 1.082 0 1.62.039.54.039 1.075.105 1.606.199.532.09 1.059.21 1.582.355a16.392 16.392 0 0 1 8.094 5.122c.352.406.684.832.996 1.273.313.441.602.898.867 1.371a16.148 16.148 0 0 1 1.313 2.953c.168.516.312 1.035.433 1.563a15.994 15.994 0 0 1 .395 3.21 16.988 16.988 0 0 1-.234 3.223zm0 0"/></g></g></g></g><g clip-path="url(#ab)"><g clip-path="url(#ac)"><g clip-path="url(#ad)"><g clip-path="url(#ae)"><path fill="#fff" d="M962.438 540.688a4.956 4.956 0 0 1 3.878 3.39 4.95 4.95 0 0 1 8.824 3.832c-1.117 6.477-9.132 8.856-10.867 8.555-2.039-.356-8.687-5.211-7.554-11.746a4.949 4.949 0 0 1 5.718-4.032zm0 0" fill-rule="evenodd"/></g></g></g></g><g clip-path="url(#af)"><g clip-path="url(#ag)"><g clip-path="url(#ah)"><g clip-path="url(#ai)"><path fill="#ef2945" d="M844.535 524.383a7.896 7.896 0 0 1 1.668 7.234 7.983 7.983 0 0 1-1.367 2.754 7.8 7.8 0 0 1-2.316 2.02c-.45.257-.918.468-1.407.632a7.844 7.844 0 0 1-3.047.395 8.058 8.058 0 0 1-1.523-.254 8.27 8.27 0 0 1-1.445-.547 7.987 7.987 0 0 1-1.309-.82 7.979 7.979 0 0 1-2.02-2.317 7.927 7.927 0 0 1-.98-2.91 7.834 7.834 0 0 1 .758-4.507 7.8 7.8 0 0 1 1.875-2.434 7.827 7.827 0 0 1 2.664-1.531 7.844 7.844 0 0 1 4.57-.137c.5.133.98.316 1.446.547.46.23.898.504 1.308.816.41.317.785.672 1.125 1.059zm0 0"/></g></g></g></g><g clip-path="url(#aj)"><g clip-path="url(#ak)"><g clip-path="url(#al)"><g clip-path="url(#am)"><path fill="#fff" d="M834.781 528.246a2.36 2.36 0 0 1 2.426-.414 2.37 2.37 0 0 1 .738-2.348 2.37 2.37 0 0 1 3.336.227c2.063 2.363.532 6.05-.101 6.601-.742.649-4.543 1.653-6.625-.73a2.37 2.37 0 0 1 .226-3.336zm0 0" fill-rule="evenodd"/></g></g></g></g></svg>