<svg xmlns="http://www.w3.org/2000/svg" xmlns:xlink="http://www.w3.org/1999/xlink" width="39" zoomAndPan="magnify" viewBox="0 0 29.25 28.5" height="38" preserveAspectRatio="xMidYMid meet" version="1.0"><defs><clipPath id="640d4b3035"><path d="M 14.355469 19.9375 L 15.816406 19.9375 L 15.816406 21.402344 L 14.355469 21.402344 Z M 14.355469 19.9375 " clip-rule="nonzero"/></clipPath><clipPath id="b70e30d491"><path d="M 14.355469 20 L 15.816406 20 L 15.816406 21 L 14.355469 21 Z M 14.355469 20 " clip-rule="nonzero"/></clipPath><clipPath id="11965a6489"><path d="M 0.628906 0.449219 L 28.417969 0.449219 L 28.417969 27.898438 L 0.628906 27.898438 Z M 0.628906 0.449219 " clip-rule="nonzero"/></clipPath></defs><g clip-path="url(#640d4b3035)"><path fill="#d71820" d="M 15.078125 19.9375 C 14.679688 19.9375 14.355469 20.261719 14.355469 20.664062 C 14.355469 21.066406 14.679688 21.390625 15.078125 21.390625 C 15.480469 21.390625 15.804688 21.066406 15.804688 20.664062 C 15.804688 20.261719 15.480469 19.9375 15.078125 19.9375 Z M 15.496094 20.867188 C 15.488281 20.921875 15.441406 20.957031 15.386719 20.957031 L 14.769531 20.957031 C 14.714844 20.957031 14.667969 20.921875 14.660156 20.867188 C 14.652344 20.816406 14.644531 20.746094 14.644531 20.664062 C 14.644531 20.578125 14.652344 20.511719 14.660156 20.460938 C 14.667969 20.40625 14.714844 20.367188 14.769531 20.367188 L 15.386719 20.367188 C 15.441406 20.367188 15.488281 20.40625 15.496094 20.460938 C 15.503906 20.507812 15.511719 20.578125 15.511719 20.664062 C 15.511719 20.746094 15.503906 20.816406 15.496094 20.867188 Z M 15.496094 20.867188 " fill-opacity="1" fill-rule="nonzero"/></g><g clip-path="url(#b70e30d491)"><path fill="#d71820" d="M 14.988281 20.546875 L 14.988281 20.78125 L 15.207031 20.664062 Z M 14.988281 20.546875 " fill-opacity="1" fill-rule="nonzero"/></g><path fill="#e6335d" d="M 14.351562 11.128906 C 12.675781 11.128906 11.3125 12.496094 11.3125 14.171875 C 11.3125 15.847656 12.675781 17.214844 14.351562 17.214844 C 16.027344 17.214844 17.394531 15.847656 17.394531 14.171875 C 17.394531 12.496094 16.027344 11.128906 14.351562 11.128906 Z M 14.351562 11.128906 " fill-opacity="1" fill-rule="nonzero"/><path fill="#e6335d" d="M 18.4375 6.710938 L 10.265625 6.710938 C 8.410156 6.710938 6.890625 8.21875 6.890625 10.085938 L 6.890625 18.257812 C 6.890625 20.113281 8.398438 21.632812 10.265625 21.632812 L 18.4375 21.632812 C 20.292969 21.632812 21.8125 20.125 21.8125 18.257812 L 21.8125 10.085938 C 21.800781 8.21875 20.292969 6.710938 18.4375 6.710938 Z M 14.351562 18.746094 C 11.820312 18.746094 9.765625 16.691406 9.765625 14.160156 C 9.765625 11.628906 11.820312 9.574219 14.351562 9.574219 C 16.882812 9.574219 18.9375 11.628906 18.9375 14.160156 C 18.925781 16.691406 16.871094 18.746094 14.351562 18.746094 Z M 19.257812 10.347656 C 18.652344 10.347656 18.152344 9.847656 18.152344 9.242188 C 18.152344 8.636719 18.652344 8.136719 19.257812 8.136719 C 19.863281 8.136719 20.363281 8.636719 20.363281 9.242188 C 20.363281 9.859375 19.875 10.347656 19.257812 10.347656 Z M 19.257812 10.347656 " fill-opacity="1" fill-rule="nonzero"/><g clip-path="url(#11965a6489)"><path fill="#e6335d" d="M 14.351562 0.449219 C 6.773438 0.449219 0.628906 6.589844 0.628906 14.171875 C 0.628906 21.75 6.773438 27.894531 14.351562 27.894531 C 21.933594 27.894531 28.074219 21.75 28.074219 14.171875 C 28.0625 6.589844 21.921875 0.449219 14.351562 0.449219 Z M 23.347656 18.257812 C 23.347656 20.96875 21.136719 23.175781 18.425781 23.175781 L 10.265625 23.175781 C 7.554688 23.175781 5.347656 20.96875 5.347656 18.257812 L 5.347656 10.085938 C 5.347656 7.375 7.554688 5.164062 10.265625 5.164062 L 18.4375 5.164062 C 21.148438 5.164062 23.359375 7.375 23.359375 10.085938 L 23.359375 18.257812 Z M 23.347656 18.257812 " fill-opacity="1" fill-rule="nonzero"/></g></svg>