<svg xmlns="http://www.w3.org/2000/svg" xmlns:xlink="http://www.w3.org/1999/xlink" width="162" zoomAndPan="magnify" viewBox="0 0 121.5 120.750001" height="161" preserveAspectRatio="xMidYMid meet" version="1.0"><defs><clipPath id="172b53ea02"><path d="M 0.589844 0.492188 L 120.097656 0.492188 L 120.097656 120 L 0.589844 120 Z M 0.589844 0.492188 " clip-rule="nonzero"/></clipPath><clipPath id="2aabb781cf"><path d="M 48.472656 101.136719 L 60.421875 101.136719 L 60.421875 113.085938 L 48.472656 113.085938 Z M 48.472656 101.136719 " clip-rule="nonzero"/></clipPath></defs><path fill="#ffffff" d="M 60.417969 47.0625 C 53.113281 47.0625 47.15625 53.019531 47.15625 60.324219 C 47.15625 67.628906 53.113281 73.585938 60.417969 73.585938 C 67.722656 73.585938 73.679688 67.628906 73.679688 60.324219 C 73.679688 53.019531 67.722656 47.0625 60.417969 47.0625 Z M 60.417969 47.0625 " fill-opacity="1" fill-rule="nonzero"/><path fill="#ffffff" d="M 78.238281 27.792969 L 42.597656 27.792969 C 34.519531 27.792969 27.886719 34.371094 27.886719 42.503906 L 27.886719 78.140625 C 27.886719 86.222656 34.464844 92.855469 42.597656 92.855469 L 78.238281 92.855469 C 86.320312 92.855469 92.949219 86.273438 92.949219 78.140625 L 92.949219 42.503906 C 92.898438 34.371094 86.320312 27.792969 78.238281 27.792969 Z M 60.417969 80.265625 C 49.386719 80.265625 40.421875 71.304688 40.421875 60.269531 C 40.421875 49.238281 49.386719 40.277344 60.417969 40.277344 C 71.453125 40.277344 80.414062 49.238281 80.414062 60.269531 C 80.363281 71.304688 71.398438 80.265625 60.417969 80.265625 Z M 81.8125 43.644531 C 79.171875 43.644531 76.996094 41.46875 76.996094 38.824219 C 76.996094 36.183594 79.171875 34.007812 81.8125 34.007812 C 84.453125 34.007812 86.628906 36.183594 86.628906 38.824219 C 86.628906 41.519531 84.503906 43.644531 81.8125 43.644531 Z M 81.8125 43.644531 " fill-opacity="1" fill-rule="nonzero"/><g clip-path="url(#172b53ea02)"><path fill="#ffffff" d="M 60.417969 0.492188 C 27.371094 0.492188 0.589844 27.273438 0.589844 60.324219 C 0.589844 93.371094 27.371094 120.152344 60.417969 120.152344 C 93.46875 120.152344 120.25 93.371094 120.25 60.324219 C 120.195312 27.273438 93.414062 0.492188 60.417969 0.492188 Z M 99.632812 78.140625 C 99.632812 89.953125 89.996094 99.589844 78.1875 99.589844 L 42.597656 99.589844 C 30.789062 99.589844 21.152344 89.953125 21.152344 78.140625 L 21.152344 42.503906 C 21.152344 30.691406 30.789062 21.058594 42.597656 21.058594 L 78.238281 21.058594 C 90.046875 21.058594 99.683594 30.691406 99.683594 42.503906 L 99.683594 78.140625 Z M 99.632812 78.140625 " fill-opacity="1" fill-rule="nonzero"/></g><path fill="#ffffff" d="M 54.449219 105.789062 C 53.71875 105.789062 53.125 106.382812 53.125 107.113281 C 53.125 107.839844 53.71875 108.4375 54.449219 108.4375 C 55.175781 108.4375 55.773438 107.839844 55.773438 107.113281 C 55.773438 106.382812 55.175781 105.789062 54.449219 105.789062 Z M 54.449219 105.789062 " fill-opacity="1" fill-rule="nonzero"/><path fill="#ffffff" d="M 56.226562 103.863281 L 52.667969 103.863281 C 51.859375 103.863281 51.199219 104.519531 51.199219 105.332031 L 51.199219 108.890625 C 51.199219 109.699219 51.855469 110.359375 52.667969 110.359375 L 56.226562 110.359375 C 57.035156 110.359375 57.695312 109.703125 57.695312 108.890625 L 57.695312 105.332031 C 57.691406 104.519531 57.035156 103.863281 56.226562 103.863281 Z M 54.449219 109.105469 C 53.347656 109.105469 52.449219 108.207031 52.449219 107.105469 C 52.449219 106.003906 53.347656 105.109375 54.449219 105.109375 C 55.550781 105.109375 56.445312 106.003906 56.445312 107.105469 C 56.441406 108.207031 55.542969 109.105469 54.449219 109.105469 Z M 56.585938 105.445312 C 56.320312 105.445312 56.105469 105.230469 56.105469 104.964844 C 56.105469 104.703125 56.320312 104.484375 56.585938 104.484375 C 56.847656 104.484375 57.066406 104.703125 57.066406 104.964844 C 57.066406 105.234375 56.855469 105.445312 56.585938 105.445312 Z M 56.585938 105.445312 " fill-opacity="1" fill-rule="nonzero"/><g clip-path="url(#2aabb781cf)"><path fill="#ffffff" d="M 54.449219 101.136719 C 51.148438 101.136719 48.472656 103.8125 48.472656 107.113281 C 48.472656 110.414062 51.148438 113.085938 54.449219 113.085938 C 57.75 113.085938 60.421875 110.414062 60.421875 107.113281 C 60.417969 103.8125 57.742188 101.136719 54.449219 101.136719 Z M 58.363281 108.890625 C 58.363281 110.070312 57.402344 111.035156 56.222656 111.035156 L 52.667969 111.035156 C 51.488281 111.035156 50.527344 110.070312 50.527344 108.890625 L 50.527344 105.332031 C 50.527344 104.152344 51.488281 103.191406 52.667969 103.191406 L 56.226562 103.191406 C 57.40625 103.191406 58.371094 104.152344 58.371094 105.332031 L 58.371094 108.890625 Z M 58.363281 108.890625 " fill-opacity="1" fill-rule="nonzero"/></g></svg>