<svg xmlns="http://www.w3.org/2000/svg" xmlns:xlink="http://www.w3.org/1999/xlink" width="162" zoomAndPan="magnify" viewBox="0 0 121.5 121.499994" height="162" preserveAspectRatio="xMidYMid meet" version="1.0"><defs><clipPath id="fa7b70eac6"><path d="M 0.664062 0.597656 L 120.171875 0.597656 L 120.171875 120.105469 L 0.664062 120.105469 Z M 0.664062 0.597656 " clip-rule="nonzero"/></clipPath><clipPath id="d04e4f00e9"><path d="M 52.035156 0.597656 L 69 0.597656 L 69 17.777344 L 52.035156 17.777344 Z M 52.035156 0.597656 " clip-rule="nonzero"/></clipPath></defs><path fill="#ffffff" d="M 61.738281 28.050781 C 44.28125 28.050781 30.085938 42.246094 30.085938 59.703125 C 30.085938 65.816406 31.847656 71.71875 35.113281 76.847656 L 35.890625 78.039062 L 32.832031 89.023438 L 44.4375 86.277344 L 45.523438 86.949219 C 50.394531 89.851562 56.039062 91.40625 61.738281 91.40625 C 79.195312 91.40625 93.386719 77.210938 93.386719 59.753906 C 93.386719 42.296875 79.195312 28.050781 61.738281 28.050781 Z M 79.765625 73.324219 C 79.453125 74.878906 76.140625 76.847656 74.015625 77.417969 C 68.730469 78.816406 61.273438 74.777344 53.917969 68.351562 C 46.507812 61.929688 41.535156 55.09375 42.15625 49.652344 C 42.417969 47.476562 43.96875 43.902344 45.421875 43.4375 C 46.871094 42.96875 47.90625 43.4375 49.410156 43.902344 C 50.136719 44.730469 51.066406 45.714844 52.101562 46.90625 C 53.5 48.460938 54.433594 49.859375 55.003906 50.84375 C 55.46875 51.671875 55.316406 52.710938 54.589844 53.332031 L 52.050781 55.609375 C 51.585938 56.023438 51.429688 56.699219 51.6875 57.269531 C 52.464844 58.925781 54.277344 62.34375 57.023438 64.726562 C 59.71875 67.109375 63.394531 68.457031 65.15625 68.976562 C 65.726562 69.183594 66.398438 68.921875 66.710938 68.40625 L 68.628906 65.609375 C 69.144531 64.832031 70.183594 64.519531 71.0625 64.882812 C 72.097656 65.347656 73.652344 66.074219 75.363281 67.214844 C 76.65625 68.09375 77.796875 68.871094 78.675781 69.492188 C 79.453125 70.890625 80.074219 71.875 79.765625 73.324219 Z M 79.765625 73.324219 " fill-opacity="1" fill-rule="nonzero"/><g clip-path="url(#fa7b70eac6)"><path fill="#ffffff" d="M 60.496094 0.597656 C 27.445312 0.597656 0.664062 27.378906 0.664062 60.425781 C 0.664062 93.476562 27.445312 120.257812 60.496094 120.257812 C 93.542969 120.257812 120.324219 93.476562 120.324219 60.425781 C 120.273438 27.378906 93.492188 0.597656 60.496094 0.597656 Z M 61.738281 97.570312 C 55.316406 97.570312 49.046875 95.960938 43.453125 92.855469 L 24.027344 97.464844 L 29.15625 78.972656 C 25.683594 73.117188 23.871094 66.488281 23.871094 59.652344 C 23.871094 38.773438 40.863281 21.785156 61.738281 21.785156 C 82.613281 21.785156 99.605469 38.828125 99.605469 59.703125 C 99.605469 80.578125 82.613281 97.570312 61.738281 97.570312 Z M 61.738281 97.570312 " fill-opacity="1" fill-rule="nonzero"/></g><path fill="#ffffff" d="M 60.671875 4.480469 C 58.203125 4.480469 56.195312 6.488281 56.195312 8.957031 C 56.195312 9.820312 56.445312 10.65625 56.90625 11.382812 L 57.015625 11.550781 L 56.585938 13.101562 L 58.226562 12.714844 L 58.378906 12.808594 C 59.070312 13.21875 59.867188 13.441406 60.671875 13.441406 C 63.140625 13.441406 65.148438 11.433594 65.148438 8.964844 C 65.148438 6.496094 63.140625 4.480469 60.671875 4.480469 Z M 63.222656 10.882812 C 63.179688 11.101562 62.710938 11.382812 62.410156 11.460938 C 61.664062 11.660156 60.605469 11.089844 59.566406 10.179688 C 58.519531 9.269531 57.816406 8.304688 57.902344 7.535156 C 57.941406 7.226562 58.160156 6.722656 58.367188 6.65625 C 58.570312 6.589844 58.71875 6.65625 58.929688 6.722656 C 59.03125 6.839844 59.164062 6.976562 59.308594 7.148438 C 59.507812 7.367188 59.640625 7.5625 59.722656 7.703125 C 59.785156 7.820312 59.765625 7.96875 59.664062 8.054688 L 59.304688 8.378906 C 59.238281 8.4375 59.214844 8.53125 59.25 8.613281 C 59.363281 8.847656 59.617188 9.328125 60.007812 9.667969 C 60.386719 10.003906 60.90625 10.195312 61.15625 10.265625 C 61.238281 10.296875 61.332031 10.261719 61.375 10.1875 L 61.648438 9.792969 C 61.722656 9.679688 61.867188 9.636719 61.992188 9.6875 C 62.136719 9.753906 62.359375 9.855469 62.601562 10.019531 C 62.78125 10.144531 62.945312 10.253906 63.070312 10.339844 C 63.179688 10.539062 63.265625 10.679688 63.222656 10.882812 Z M 63.222656 10.882812 " fill-opacity="1" fill-rule="nonzero"/><g clip-path="url(#d04e4f00e9)"><path fill="#ffffff" d="M 60.496094 0.597656 C 55.824219 0.597656 52.035156 4.386719 52.035156 9.058594 C 52.035156 13.734375 55.824219 17.519531 60.496094 17.519531 C 65.171875 17.519531 68.957031 13.734375 68.957031 9.058594 C 68.953125 4.386719 65.164062 0.597656 60.496094 0.597656 Z M 60.671875 14.3125 C 59.765625 14.3125 58.878906 14.085938 58.085938 13.644531 L 55.339844 14.296875 L 56.066406 11.679688 C 55.574219 10.855469 55.316406 9.914062 55.316406 8.949219 C 55.316406 5.996094 57.722656 3.59375 60.671875 3.59375 C 63.625 3.59375 66.027344 6.003906 66.027344 8.957031 C 66.027344 11.910156 63.625 14.3125 60.671875 14.3125 Z M 60.671875 14.3125 " fill-opacity="1" fill-rule="nonzero"/></g></svg>