<svg xmlns="http://www.w3.org/2000/svg" xmlns:xlink="http://www.w3.org/1999/xlink" width="38" zoomAndPan="magnify" viewBox="0 0 28.5 28.5" height="38" preserveAspectRatio="xMidYMid meet" version="1.0"><defs><clipPath id="782119ca47"><path d="M 0.105469 0.414062 L 27.378906 0.414062 L 27.378906 27.6875 L 0.105469 27.6875 Z M 0.105469 0.414062 " clip-rule="nonzero"/></clipPath><clipPath id="ea1ca90ef4"><path d="M 13.0625 24.898438 L 14.539062 24.898438 L 14.539062 26.371094 L 13.0625 26.371094 Z M 13.0625 24.898438 " clip-rule="nonzero"/></clipPath><clipPath id="f9a5e898fa"><path d="M 13.0625 25 L 14 25 L 14 26 L 13.0625 26 Z M 13.0625 25 " clip-rule="nonzero"/></clipPath></defs><g clip-path="url(#782119ca47)"><path fill="#d71820" d="M 13.792969 0.414062 C 6.234375 0.414062 0.105469 6.542969 0.105469 14.101562 C 0.105469 21.664062 6.234375 27.789062 13.792969 27.789062 C 21.355469 27.789062 27.480469 21.664062 27.480469 14.101562 C 27.46875 6.542969 21.34375 0.414062 13.792969 0.414062 Z M 21.675781 17.929688 C 21.519531 18.9375 20.644531 19.671875 19.625 19.671875 L 7.953125 19.671875 C 6.933594 19.671875 6.054688 18.9375 5.902344 17.929688 C 5.761719 16.996094 5.617188 15.691406 5.605469 14.089844 C 5.617188 12.492188 5.746094 11.199219 5.902344 10.25 C 6.054688 9.242188 6.933594 8.507812 7.953125 8.507812 L 19.625 8.507812 C 20.644531 8.507812 21.519531 9.242188 21.675781 10.25 C 21.816406 11.1875 21.960938 12.492188 21.972656 14.089844 C 21.960938 15.691406 21.816406 16.996094 21.675781 17.929688 Z M 21.675781 17.929688 " fill-opacity="1" fill-rule="nonzero"/></g><path fill="#d71820" d="M 12.0625 11.875 L 12.0625 16.320312 L 16.199219 14.101562 Z M 12.0625 11.875 " fill-opacity="1" fill-rule="nonzero"/><g clip-path="url(#ea1ca90ef4)"><path fill="#d71820" d="M 13.796875 24.898438 C 13.390625 24.898438 13.0625 25.222656 13.0625 25.628906 C 13.0625 26.03125 13.390625 26.359375 13.796875 26.359375 C 14.199219 26.359375 14.527344 26.03125 14.527344 25.628906 C 14.527344 25.222656 14.199219 24.898438 13.796875 24.898438 Z M 14.214844 25.832031 C 14.207031 25.886719 14.160156 25.925781 14.105469 25.925781 L 13.484375 25.925781 C 13.429688 25.925781 13.382812 25.886719 13.375 25.832031 C 13.367188 25.78125 13.359375 25.714844 13.359375 25.628906 C 13.359375 25.542969 13.363281 25.472656 13.375 25.421875 C 13.382812 25.367188 13.429688 25.328125 13.484375 25.328125 L 14.105469 25.328125 C 14.160156 25.328125 14.207031 25.367188 14.214844 25.421875 C 14.222656 25.472656 14.230469 25.542969 14.230469 25.628906 C 14.230469 25.714844 14.222656 25.78125 14.214844 25.832031 Z M 14.214844 25.832031 " fill-opacity="1" fill-rule="nonzero"/></g><g clip-path="url(#f9a5e898fa)"><path fill="#d71820" d="M 13.703125 25.507812 L 13.703125 25.746094 L 13.921875 25.628906 Z M 13.703125 25.507812 " fill-opacity="1" fill-rule="nonzero"/></g></svg>