<svg xmlns="http://www.w3.org/2000/svg" width="38" height="38" version="1.0" viewBox="0 0 28.5 28.5"><defs><clipPath id="a"><path d="M.105.414H27.38v27.273H.105Zm0 0"/></clipPath><clipPath id="b"><path d="M13.063 24.898h1.476v1.473h-1.476Zm0 0"/></clipPath><clipPath id="c"><path d="M13.063 25H14v1h-.938Zm0 0"/></clipPath></defs><g clip-path="url(#a)"><path fill="#d71820" d="M13.793.414C6.234.414.105 6.543.105 14.102c0 7.562 6.13 13.687 13.688 13.687 7.562 0 13.687-6.125 13.687-13.687C27.47 6.543 21.344.414 13.793.414Zm7.883 17.516a2.068 2.068 0 0 1-2.051 1.742H7.953a2.065 2.065 0 0 1-2.05-1.742 27.052 27.052 0 0 1-.298-3.84c.012-1.598.141-2.89.297-3.84a2.065 2.065 0 0 1 2.051-1.742h11.672c1.02 0 1.895.734 2.05 1.742.141.938.286 2.242.298 3.84a27.052 27.052 0 0 1-.297 3.84Zm0 0"/></g><path fill="#d71820" d="M12.063 11.875v4.445l4.136-2.218Zm0 0"/><g clip-path="url(#b)"><path fill="#d71820" d="M13.797 24.898a.73.73 0 1 0 0 1.461.73.73 0 1 0 0-1.46Zm.418.934a.11.11 0 0 1-.11.094h-.62a.11.11 0 0 1-.11-.094 1.3 1.3 0 0 1-.016-.203.99.99 0 0 1 .016-.207.11.11 0 0 1 .11-.094h.62a.11.11 0 0 1 .11.094 1.358 1.358 0 0 1 0 .41Zm0 0"/></g><g clip-path="url(#c)"><path fill="#d71820" d="M13.703 25.508v.238l.219-.117Zm0 0"/></g></svg>