<svg xmlns="http://www.w3.org/2000/svg" xmlns:xlink="http://www.w3.org/1999/xlink" width="162" zoomAndPan="magnify" viewBox="0 0 121.5 121.499994" height="162" preserveAspectRatio="xMidYMid meet" version="1.0"><defs><clipPath id="998cadadb0"><path d="M 0.695312 0.660156 L 120.203125 0.660156 L 120.203125 120.167969 L 0.695312 120.167969 Z M 0.695312 0.660156 " clip-rule="nonzero"/></clipPath><clipPath id="0dfc975e3a"><path d="M 32.09375 86.800781 L 41.058594 86.800781 L 41.058594 95.765625 L 32.09375 95.765625 Z M 32.09375 86.800781 " clip-rule="nonzero"/></clipPath></defs><g clip-path="url(#998cadadb0)"><path fill="#ffffff" d="M 60.527344 0.660156 C 27.476562 0.660156 0.695312 27.441406 0.695312 60.492188 C 0.695312 93.539062 27.476562 120.320312 60.527344 120.320312 C 93.574219 120.320312 120.355469 93.539062 120.355469 60.492188 C 120.304688 27.441406 93.523438 0.660156 60.527344 0.660156 Z M 94.972656 77.222656 C 94.300781 81.625 90.46875 84.835938 86.011719 84.835938 L 34.988281 84.835938 C 30.535156 84.835938 26.699219 81.625 26.027344 77.222656 C 25.40625 73.128906 24.785156 67.433594 24.730469 60.4375 C 24.785156 53.445312 25.351562 47.800781 26.027344 43.65625 C 26.699219 39.253906 30.535156 36.039062 34.988281 36.039062 L 86.011719 36.039062 C 90.46875 36.039062 94.300781 39.253906 94.972656 43.65625 C 95.59375 47.746094 96.214844 53.445312 96.269531 60.4375 C 96.214844 67.433594 95.59375 73.128906 94.972656 77.222656 Z M 94.972656 77.222656 " fill-opacity="1" fill-rule="nonzero"/></g><path fill="#ffffff" d="M 52.964844 50.753906 L 52.964844 70.175781 L 71.042969 60.492188 Z M 52.964844 50.753906 " fill-opacity="1" fill-rule="nonzero"/><g clip-path="url(#0dfc975e3a)"><path fill="#ffffff" d="M 36.746094 86.800781 C 34.175781 86.800781 32.09375 88.882812 32.09375 91.453125 C 32.09375 94.023438 34.175781 96.105469 36.746094 96.105469 C 39.3125 96.105469 41.394531 94.023438 41.394531 91.453125 C 41.390625 88.882812 39.308594 86.800781 36.746094 86.800781 Z M 39.421875 92.753906 C 39.371094 93.097656 39.070312 93.347656 38.726562 93.347656 L 34.757812 93.347656 C 34.414062 93.347656 34.113281 93.097656 34.0625 92.753906 C 34.015625 92.4375 33.964844 91.992188 33.960938 91.449219 C 33.964844 90.90625 34.011719 90.464844 34.0625 90.144531 C 34.113281 89.800781 34.414062 89.550781 34.757812 89.550781 L 38.726562 89.550781 C 39.070312 89.550781 39.371094 89.800781 39.421875 90.144531 C 39.46875 90.460938 39.519531 90.90625 39.523438 91.449219 C 39.519531 91.992188 39.46875 92.4375 39.421875 92.753906 Z M 39.421875 92.753906 " fill-opacity="1" fill-rule="nonzero"/></g><path fill="#ffffff" d="M 36.15625 90.695312 L 36.15625 92.207031 L 37.5625 91.453125 Z M 36.15625 90.695312 " fill-opacity="1" fill-rule="nonzero"/></svg>